<svg xmlns="http://www.w3.org/2000/svg" viewBox="0 0 400 88.82"><defs><style>.cls-1{fill:#7f7f80;}.cls-1,.cls-2,.cls-3{fill-rule:evenodd;}.cls-2{fill:#55bcb4;}.cls-3{fill:#3f3f3f;}</style></defs><title>logo 02</title><g id="Layer_2" data-name="Layer 2"><g id="Layer_1-2" data-name="Layer 1"><path class="cls-1" d="M43.53,9.22s13.25,4.07,14.3,20.33v11H74.62V28.13c0-2.38.14-2.58-.91-4.88C71.45,18.34,64.22,8,43.53,9.22Z"/><path class="cls-1" d="M57.83,50.12h17s.2,20.47-24.6,15.42C50.22,65.54,60.32,65.41,57.83,50.12Z"/><path class="cls-2" d="M54,26.57S43.2,23.16,34.41,30.24L22.14,42.41s-5.77,5,.46,11L35.4,66S42.61,71.8,48.52,74s12.85,5.64,23.68.19c0,0,4.79-2.82,7.15-5.64,0,0-.13,7.94-9.71,13.91,0,0-12.86,9.64-32.15,5.25,0,0-11.84-3-18.27-10.34L6.66,65S-4.42,53.37,2,38.28a34,34,0,0,1,6.46-9.64l10.2-10.11a31.48,31.48,0,0,1,7.13-5.69c3.75-1.87,10-4,15.3-1C41.1,11.88,52.45,16.14,54,26.57Z"/><path class="cls-3" d="M135,37.62a1.73,1.73,0,0,1,1.41.63,2,2,0,0,1,.47,1.51,29.3,29.3,0,0,1-2.32,8.29A22.45,22.45,0,0,1,130,54.61a18.81,18.81,0,0,1-6.68,4.46,23.94,23.94,0,0,1-8.64,1.53q-10.2-.18-16.35-7.41l0,0a24.77,24.77,0,0,1-4.8-8.14A31.06,31.06,0,0,1,92,34.9a30.81,30.81,0,0,1,5.37-17.53v0q5.64-8.7,18.23-8.93A25.71,25.71,0,0,1,124.46,10a16.42,16.42,0,0,1,6.3,4.3h0q5.11,5.61,5.18,10.93a1.9,1.9,0,0,1-.56,1.36,1.82,1.82,0,0,1-1.35.58h-1.33a1.74,1.74,0,0,1-1.27-.53,1.85,1.85,0,0,1-.6-1.21,11.77,11.77,0,0,0-1.29-4.34,13.71,13.71,0,0,0-3.08-3.82c-2.65-2.41-6.28-3.65-10.89-3.75a16.63,16.63,0,0,0-11.68,4.36,16.42,16.42,0,0,0-2.45,2.82v0a31.29,31.29,0,0,0-3.27,7,23.4,23.4,0,0,0-1.07,7.2,22.58,22.58,0,0,0,4.78,14.48q4.44,5.94,12.94,6.12c5,0,8.89-1.59,11.73-4.62A18,18,0,0,0,130,45.69a24.85,24.85,0,0,0,1.84-6.44,1.72,1.72,0,0,1,.65-1.16,2,2,0,0,1,1.26-.47ZM163.33,42a7.37,7.37,0,0,1-1.42.36c-.5.08-1,.14-1.55.18-1.15.12-2.39.22-3.68.33s-2.63.19-4,.26c-.52,0-1.06,0-1.59.11a10.63,10.63,0,0,0-1.61.29,7.27,7.27,0,0,0-1.43.47,14.47,14.47,0,0,0-1.3.66,3.68,3.68,0,0,0-1.46,1.74,3.7,3.7,0,0,0-.48,1.37,11.37,11.37,0,0,0-.14,1.86,5.43,5.43,0,0,0,.28,1.91,3.94,3.94,0,0,0,1.29,1.84c1,1.17,3,1.79,5.92,1.84a14.15,14.15,0,0,0,4.8-.85A9.29,9.29,0,0,0,160.53,52h0a10.86,10.86,0,0,0,2.83-7.36V42Zm-19.78-4.76a1.86,1.86,0,0,1-1.34-.54,1.92,1.92,0,0,1-.55-1.37,14.43,14.43,0,0,1,1.12-5,12.17,12.17,0,0,1,2.77-4q3.55-3.53,10.2-3.56a16,16,0,0,1,4.62.55,14.73,14.73,0,0,1,3.94,1.73q3.66,2.58,4,8.77V54.26a.08.08,0,0,1,.07,0,3.51,3.51,0,0,1,.58-.1,2.66,2.66,0,0,1,.68,0,1.92,1.92,0,0,1,1.43,1,1.63,1.63,0,0,1,0,1.68,4.77,4.77,0,0,1-1.7,1.9,4.07,4.07,0,0,1-2.27.73,3.72,3.72,0,0,1-2.26-.75A4,4,0,0,1,163.47,56c-.27.26-.52.48-.77.68s-.51.42-.84.66a17.55,17.55,0,0,1-14.54,2.18,13.3,13.3,0,0,1-3.93-2,10.1,10.1,0,0,1-2.73-3.39,10.33,10.33,0,0,1-1-4.52,16.07,16.07,0,0,1,.3-3.21,9.09,9.09,0,0,1,.95-2.6,10.25,10.25,0,0,1,1.39-2,11.5,11.5,0,0,1,1.83-1.53,15.5,15.5,0,0,1,2-1,11.14,11.14,0,0,1,2.16-.66,18.25,18.25,0,0,1,2-.34c1.82-.23,3.65-.28,5.47-.42.79-.09,1.59-.13,2.38-.18s1.39-.15,2-.23a9.58,9.58,0,0,0,1.54-.35,2.62,2.62,0,0,0,1.26-.67,3,3,0,0,0,.35-1.67c0-.41,0-.83,0-1.27s-.06-.9-.11-1.35v-.09a5.32,5.32,0,0,0-1-2.22,6,6,0,0,0-.8-.77,6.4,6.4,0,0,0-1.07-.66,13.45,13.45,0,0,0-4.52-.64c-5.6.12-8.67,2.68-9.19,7.71a1.91,1.91,0,0,1-.61,1.2,1.78,1.78,0,0,1-1.23.51Zm40.08-5.58a13.8,13.8,0,0,0-2.26,4.44,19.13,19.13,0,0,0-.78,5.24,20,20,0,0,0,1,5.58,14.25,14.25,0,0,0,2.33,4.24,10.91,10.91,0,0,0,3.44,2.8,11.72,11.72,0,0,0,4.43,1.19,11.32,11.32,0,0,0,4.73-1.07,8,8,0,0,0,3.18-2.95,18.36,18.36,0,0,0,2.63-9.75,16.49,16.49,0,0,0-2.76-9.72,8.1,8.1,0,0,0-3.25-2.92,10.47,10.47,0,0,0-4.57-1,11,11,0,0,0-4.67,1,9,9,0,0,0-3.45,2.92Zm8.11,28.52a21,21,0,0,1-6.49-1.08,10.93,10.93,0,0,1-4.66-3.23V70.05a1.83,1.83,0,0,1-.54,1.35,1.85,1.85,0,0,1-1.32.52h-1.22a1.85,1.85,0,0,1-1.36-.52,1.9,1.9,0,0,1-.52-1.35V53.31a5.32,5.32,0,0,0,0-.54,4.33,4.33,0,0,1,0-.66V48.23c0-1.26,0-2.56.05-3.92s.1-2.66.21-4,.24-2.5.43-3.64a14.64,14.64,0,0,1,.74-2.94v0A16.39,16.39,0,0,1,182.31,26a14.66,14.66,0,0,1,4.31-2.43,15.51,15.51,0,0,1,5.13-.88,15.07,15.07,0,0,1,6.55,1.51,14.79,14.79,0,0,1,4.94,4,19.52,19.52,0,0,1,3,5.88,23.53,23.53,0,0,1,1.06,7.23,24.82,24.82,0,0,1-.95,7.09,19.16,19.16,0,0,1-2.9,5.91,13.24,13.24,0,0,1-4.9,4.26,15.56,15.56,0,0,1-6.8,1.54Zm46.18-21.53a15.53,15.53,0,0,0-.87-4,12.31,12.31,0,0,0-1.83-3.34,8.25,8.25,0,0,0-3.41-2.64,12.51,12.51,0,0,0-4.7-.87,10.46,10.46,0,0,0-7.52,3.27,13.39,13.39,0,0,0-2.16,3.29,15.73,15.73,0,0,0-1.25,4.27Zm-21.81,5A21,21,0,0,0,217,48a12.4,12.4,0,0,0,1.72,3.56,7,7,0,0,0,3.24,2.72,13.25,13.25,0,0,0,5,.91A10.61,10.61,0,0,0,234,52.86,12.22,12.22,0,0,0,237.65,46a1.73,1.73,0,0,1,.63-1.06,1.79,1.79,0,0,1,1.17-.44h1.27a1.84,1.84,0,0,1,1.41.62,1.82,1.82,0,0,1,.47,1.5,14.53,14.53,0,0,1-9.81,12.63,17.7,17.7,0,0,1-5.79,1c-5.58,0-9.63-1.92-12.18-5.63Q211,49.4,211,41.52q.18-9,4.95-13.75a14.57,14.57,0,0,1,11-5,16.76,16.76,0,0,1,7.35,1.62,13.2,13.2,0,0,1,5.1,4.38,19.8,19.8,0,0,1,2.65,5.52,21.48,21.48,0,0,1,.91,6.28v.66a5.83,5.83,0,0,1,0,.66,1.79,1.79,0,0,1-.62,1.19,1.75,1.75,0,0,1-1.22.52Zm36.41,14a1.83,1.83,0,0,1-1.86,1.88h-1.22a1.83,1.83,0,0,1-1.36-.55,1.87,1.87,0,0,1-.52-1.33V25.43a1.88,1.88,0,0,1,.52-1.33,1.82,1.82,0,0,1,1.36-.54h1.22a1.81,1.81,0,0,1,1.34.54,1.84,1.84,0,0,1,.52,1.33v1.16a4.21,4.21,0,0,1,.48-.41,4.84,4.84,0,0,0,.51-.45q3.56-3.09,9.94-2.94a1.89,1.89,0,0,1,1.3.56,1.8,1.8,0,0,1,.54,1.32v1.26a1.81,1.81,0,0,1-.57,1.35,1.68,1.68,0,0,1-1.34.54,12.49,12.49,0,0,0-4.83.71A7.64,7.64,0,0,0,255.28,31a13.65,13.65,0,0,0-2.76,8.44V57.6Zm14-32.17a1.81,1.81,0,0,1,1.88-1.87h1.22a1.86,1.86,0,0,1,1.86,1.87v1c.14-.11.27-.23.4-.35s.25-.22.38-.34l0,0a11.47,11.47,0,0,1,7.75-3c4.58,0,7.88,1.7,9.86,5A10.05,10.05,0,0,1,291,26.42c.45-.42.91-.82,1.41-1.21a12.73,12.73,0,0,1,7.49-2.42q6.74.06,9.64,4,2.56,3.64,2.49,9.62V57.6a1.83,1.83,0,0,1-.53,1.33,1.8,1.8,0,0,1-1.34.55H309a1.83,1.83,0,0,1-1.33-.55,1.8,1.8,0,0,1-.54-1.33V36.45a15.29,15.29,0,0,0-.37-3.81,8.6,8.6,0,0,0-1.14-2.8,4.3,4.3,0,0,0-2.14-1.51,11.53,11.53,0,0,0-3.48-.51,9,9,0,0,0-3.42.65,5.7,5.7,0,0,0-2.47,2,11,11,0,0,0-2.36,6.75V57.6a1.82,1.82,0,0,1-.52,1.33,1.79,1.79,0,0,1-1.32.55H288.6a1.77,1.77,0,0,1-1.32-.55,1.82,1.82,0,0,1-.52-1.33V36.93a13.71,13.71,0,0,0-1.37-6.86h0a5.79,5.79,0,0,0-1.89-1.63,8,8,0,0,0-3.51-.62,7.51,7.51,0,0,0-3.44,1A9.73,9.73,0,0,0,273.91,31v0a15.56,15.56,0,0,0-1.79,3.89,14.92,14.92,0,0,0-.67,4.51V57.6a1.77,1.77,0,0,1-.55,1.33,1.8,1.8,0,0,1-1.31.55h-1.22a1.83,1.83,0,0,1-1.88-1.88V25.43ZM324.63,57.6a1.83,1.83,0,0,1-.53,1.33,1.8,1.8,0,0,1-1.34.55h-1.22a1.88,1.88,0,0,1-1.88-1.88V25.43a1.86,1.86,0,0,1,1.88-1.87h1.22a1.79,1.79,0,0,1,1.34.54,1.85,1.85,0,0,1,.53,1.33V57.6Zm0-38.37a1.85,1.85,0,0,1-.53,1.36,1.82,1.82,0,0,1-1.34.52h-1.22a1.83,1.83,0,0,1-1.88-1.88V12.92a1.86,1.86,0,0,1,1.88-1.87h1.22a1.79,1.79,0,0,1,1.34.54,1.85,1.85,0,0,1,.53,1.33v6.31Zm4.81,6.2A1.84,1.84,0,0,1,330,24.1a1.76,1.76,0,0,1,1.32-.54h1.28a1.76,1.76,0,0,1,1.29.54,1.83,1.83,0,0,1,.55,1.33v1.12a1.87,1.87,0,0,1,.33-.27,1.94,1.94,0,0,0,.32-.28l.17-.14.21-.2a13.94,13.94,0,0,1,8.85-2.87,13.28,13.28,0,0,1,9.56,3.48,10.94,10.94,0,0,1,2.79,4.23,16.68,16.68,0,0,1,1,5.77V57.6a1.8,1.8,0,0,1-.54,1.33,1.85,1.85,0,0,1-1.34.55h-1.26a1.85,1.85,0,0,1-1.34-.55,1.81,1.81,0,0,1-.55-1.33V36.45a13.36,13.36,0,0,0-.58-4,5.68,5.68,0,0,0-1.7-2.62,9.08,9.08,0,0,0-6-2,10.43,10.43,0,0,0-4.23,1,8.69,8.69,0,0,0-3,2.28,15.58,15.58,0,0,0-1.91,3.88,14.06,14.06,0,0,0-.72,4.45V57.6a1.81,1.81,0,0,1-.55,1.33,1.77,1.77,0,0,1-1.29.55h-1.28a1.77,1.77,0,0,1-1.32-.55,1.82,1.82,0,0,1-.52-1.33V25.43ZM371,28.52V51.35c.05,1.58.25,2.48.59,2.66a1.85,1.85,0,0,0,.92.41,5,5,0,0,0,1,.1,14.66,14.66,0,0,0,2.24-.1h0a1.83,1.83,0,0,1,1.69.26,1.79,1.79,0,0,1,.7,1.52v1.27a1.8,1.8,0,0,1-.54,1.32,1.85,1.85,0,0,1-1.34.55h-.74a8.9,8.9,0,0,1-1,.11c-.38,0-.84,0-1.36,0a7.1,7.1,0,0,1-4.74-1.57,11.43,11.43,0,0,1-1.13-1.52,5.18,5.18,0,0,1-.67-1.42,9.68,9.68,0,0,1-.58-3.41v-23H362a1.83,1.83,0,0,1-1.33-.53,1.79,1.79,0,0,1-.55-1.35V25.42a1.82,1.82,0,0,1,.55-1.32,1.8,1.8,0,0,1,1.33-.54h4.06V16a1.81,1.81,0,0,1,.29-.92,2,2,0,0,1,.67-.76l1.25-.61a2,2,0,0,1,1-.26,1.9,1.9,0,0,1,.88.24,1.61,1.61,0,0,1,.63.66,2.08,2.08,0,0,1,.23,1v8.26h5.43a1.78,1.78,0,0,1,1.32.54,1.83,1.83,0,0,1,.52,1.32v1.22a1.8,1.8,0,0,1-1.84,1.88Z"/><path class="cls-3" d="M199.7,64.11a.63.63,0,0,1-.46-.19.65.65,0,0,1-.18-.44v-.42a.67.67,0,0,1,.18-.44.62.62,0,0,1,.46-.18h11.24a.58.58,0,0,1,.43.18.62.62,0,0,1,.18.44v.42a.6.6,0,0,1-.18.44.59.59,0,0,1-.43.19h-4.8v14a.6.6,0,0,1-.18.44.62.62,0,0,1-.45.19h-.41a.62.62,0,0,1-.45-.19.6.6,0,0,1-.18-.44v-14Zm18.38,7.81a4.93,4.93,0,0,0-.28-1.3,4.11,4.11,0,0,0-.59-1.09,2.64,2.64,0,0,0-1.12-.85,4,4,0,0,0-1.53-.29,3.44,3.44,0,0,0-2.45,1.07,4.43,4.43,0,0,0-.71,1.07,5,5,0,0,0-.4,1.39ZM211,73.54h8.16a.58.58,0,0,0,.4-.17.55.55,0,0,0,.2-.38,1.48,1.48,0,0,0,0-.22v-.22a6.8,6.8,0,0,0-.29-2,6.49,6.49,0,0,0-.86-1.8,4.36,4.36,0,0,0-1.67-1.43,5.4,5.4,0,0,0-2.39-.53,4.74,4.74,0,0,0-3.6,1.63,6.2,6.2,0,0,0-1.61,4.48,6.84,6.84,0,0,0,1.23,4.27,4.55,4.55,0,0,0,4,1.84,5.61,5.61,0,0,0,1.88-.32,4.86,4.86,0,0,0,1.55-.88,5,5,0,0,0,1.65-3.24.6.6,0,0,0-.15-.48.59.59,0,0,0-.46-.21h-.41a.6.6,0,0,0-.39.15.55.55,0,0,0-.2.34,4,4,0,0,1-1.2,2.23,3.47,3.47,0,0,1-2.32.77,4.24,4.24,0,0,1-1.61-.3,2.25,2.25,0,0,1-1.06-.89,3.68,3.68,0,0,1-.56-1.16,6.94,6.94,0,0,1-.28-1.44Zm19.43.38a.58.58,0,0,1,.46.2.61.61,0,0,1,.15.49A4.6,4.6,0,0,1,226.1,79a5.46,5.46,0,0,1-2.24-.49,4.87,4.87,0,0,1-1.67-1.31,6.83,6.83,0,0,1-1-1.87,6.71,6.71,0,0,1-.36-2.22,7.85,7.85,0,0,1,.34-2.37,6.54,6.54,0,0,1,1-2,4.55,4.55,0,0,1,1.73-1.43,5.63,5.63,0,0,1,2.45-.53,4.85,4.85,0,0,1,3,1,4.64,4.64,0,0,1,1.56,3,.62.62,0,0,1-.16.47.55.55,0,0,1-.44.21h-.41a.56.56,0,0,1-.39-.16.63.63,0,0,1-.21-.36,3.41,3.41,0,0,0-.38-1.1,2.81,2.81,0,0,0-.63-.79,3.19,3.19,0,0,0-2-.61,4.34,4.34,0,0,0-1,.1,3.38,3.38,0,0,0-.83.29,3.85,3.85,0,0,0-.67.47,3.6,3.6,0,0,0-.5.56,6.39,6.39,0,0,0-.67,1.56,5.44,5.44,0,0,0-.24,1.71,4.72,4.72,0,0,0,1,3,2.87,2.87,0,0,0,1.13.93,4.07,4.07,0,0,0,1.55.31,3.41,3.41,0,0,0,2.29-.77h0a3.09,3.09,0,0,0,1-2.1.67.67,0,0,1,.2-.38.57.57,0,0,1,.4-.16Zm2.34-10.39a.61.61,0,0,1,.17-.43.58.58,0,0,1,.43-.18h.42a.58.58,0,0,1,.42.18.58.58,0,0,1,.18.43V68l.1-.09a.44.44,0,0,0,.11-.09l.05,0,.07-.06a4.58,4.58,0,0,1,2.89-.94,4.34,4.34,0,0,1,3.12,1.14,3.62,3.62,0,0,1,.91,1.37,5.69,5.69,0,0,1,.32,1.88v7a.63.63,0,0,1-.18.44.65.65,0,0,1-.44.18h-.41a.65.65,0,0,1-.44-.18.63.63,0,0,1-.18-.44V71.21a4.12,4.12,0,0,0-.19-1.31,1.8,1.8,0,0,0-.55-.85,3,3,0,0,0-1.95-.66,3.5,3.5,0,0,0-1.38.31,2.82,2.82,0,0,0-1,.75,5,5,0,0,0-.63,1.26,4.73,4.73,0,0,0-.23,1.45V78.1a.59.59,0,0,1-.18.44.62.62,0,0,1-.42.18h-.42a.6.6,0,0,1-.6-.62V63.53Zm11.4,4.08a.57.57,0,0,1,.17-.43.57.57,0,0,1,.43-.18h.41a.58.58,0,0,1,.43.18.61.61,0,0,1,.17.43V68l.11-.09a.44.44,0,0,0,.11-.09s0,0,.05,0l.07-.06a4.56,4.56,0,0,1,2.89-.94,4.3,4.3,0,0,1,3.11,1.14,3.4,3.4,0,0,1,.91,1.37,5.44,5.44,0,0,1,.32,1.88v7a.59.59,0,0,1-.18.44.6.6,0,0,1-.43.18h-.41a.63.63,0,0,1-.44-.18.59.59,0,0,1-.18-.44V71.21a4.43,4.43,0,0,0-.19-1.31,1.88,1.88,0,0,0-.55-.85,3,3,0,0,0-2-.66,3.58,3.58,0,0,0-1.38.31,2.82,2.82,0,0,0-1,.75,5.28,5.28,0,0,0-.62,1.26,4.45,4.45,0,0,0-.24,1.45V78.1a.6.6,0,0,1-.6.62h-.41a.6.6,0,0,1-.43-.18.58.58,0,0,1-.17-.44V67.61ZM255,72.86a7.31,7.31,0,0,1,.35-2.28,6.48,6.48,0,0,1,1-1.93,5.17,5.17,0,0,1,8,0,6.92,6.92,0,0,1,1,1.93,7.62,7.62,0,0,1,.33,2.28A6.85,6.85,0,0,1,264.33,77a4.84,4.84,0,0,1-4,1.93,5.35,5.35,0,0,1-2.28-.52,4.68,4.68,0,0,1-1.7-1.41,7.58,7.58,0,0,1-1-1.94,7,7,0,0,1-.36-2.24Zm1.64,0a5.14,5.14,0,0,0,1,3.18,3,3,0,0,0,1.13.95,4,4,0,0,0,1.57.34,3.4,3.4,0,0,0,2.76-1.3,5.21,5.21,0,0,0,1-3.17,5.3,5.3,0,0,0-1-3.18,3.36,3.36,0,0,0-2.75-1.29,3.23,3.23,0,0,0-2.71,1.29,5.22,5.22,0,0,0-1,3.18Zm10.53-9.33a.58.58,0,0,1,.18-.43.59.59,0,0,1,.44-.18h.39a.57.57,0,0,1,.44.18.61.61,0,0,1,.17.43V78.1a.62.62,0,0,1-.17.44.61.61,0,0,1-.44.18h-.39a.63.63,0,0,1-.44-.18.59.59,0,0,1-.18-.44V63.53Zm2.62,9.33a7.31,7.31,0,0,1,.35-2.28,6.26,6.26,0,0,1,1-1.93,5.16,5.16,0,0,1,8,0,6.69,6.69,0,0,1,1,1.93,7.62,7.62,0,0,1,.33,2.28A6.8,6.8,0,0,1,279.11,77a4.82,4.82,0,0,1-4,1.93,5.3,5.3,0,0,1-2.27-.52,4.6,4.6,0,0,1-1.7-1.41,7.58,7.58,0,0,1-1-1.94,7,7,0,0,1-.36-2.24Zm1.64,0a5.2,5.2,0,0,0,1,3.18,3.14,3.14,0,0,0,1.14.95,4,4,0,0,0,1.57.34,3.37,3.37,0,0,0,2.75-1.3,5.15,5.15,0,0,0,1-3.17,5.24,5.24,0,0,0-1-3.18,3.33,3.33,0,0,0-2.74-1.29,3.26,3.26,0,0,0-2.72,1.29,5.28,5.28,0,0,0-1,3.18Zm18.71-.34a4.68,4.68,0,0,0-.89-2.93,2.52,2.52,0,0,0-1-.89,3.87,3.87,0,0,0-3,0,2.66,2.66,0,0,0-1.06.86,4.63,4.63,0,0,0-.93,3,4.55,4.55,0,0,0,.9,2.91,3,3,0,0,0,2.45,1.1,4,4,0,0,0,1.51-.29,2.84,2.84,0,0,0,1.12-.86,4.36,4.36,0,0,0,.92-2.86ZM286.74,81a3.51,3.51,0,0,0,2.53-.79,3.27,3.27,0,0,0,.86-2.41v-1a4.26,4.26,0,0,1-.61.48,5.93,5.93,0,0,1-1.42.66,5,5,0,0,1-1.52.24,4.92,4.92,0,0,1-2.17-.47,4.37,4.37,0,0,1-1.58-1.28,5.93,5.93,0,0,1-.93-1.78,6.79,6.79,0,0,1-.32-2.1,7,7,0,0,1,.33-2.2,6.28,6.28,0,0,1,1-1.83,4.6,4.6,0,0,1,3.83-1.74,5.33,5.33,0,0,1,1.61.27,4.8,4.8,0,0,1,1.36.73,6.49,6.49,0,0,1,1.07,1.15,4,4,0,0,1,.66,1.38,7.39,7.39,0,0,1,.31,1.62c.05.59.08,1.2.08,1.83s0,1.12,0,1.66c0,.06,0,.14,0,.24s0,.19,0,.26v1.87c-.06,3.21-1.72,4.82-5,4.81h-1.88a.61.61,0,0,1-.45-.18.6.6,0,0,1-.17-.43v-.4a.61.61,0,0,1,.17-.43.64.64,0,0,1,.45-.17Zm8.63-2.85a.62.62,0,0,1-.17.44.63.63,0,0,1-.44.18h-.4a.62.62,0,0,1-.43-.18.59.59,0,0,1-.18-.44V67.61a.61.61,0,0,1,.61-.61h.4a.59.59,0,0,1,.44.18.61.61,0,0,1,.17.43V78.1Zm0-12.51a.6.6,0,0,1-.17.44.58.58,0,0,1-.44.17h-.4a.6.6,0,0,1-.61-.61V63.53a.61.61,0,0,1,.61-.61h.4a.59.59,0,0,1,.44.18.61.61,0,0,1,.17.43v2.06Zm9.71,6.33a5.36,5.36,0,0,0-.29-1.3,4.11,4.11,0,0,0-.59-1.09,2.64,2.64,0,0,0-1.12-.85,4,4,0,0,0-1.53-.29,3.39,3.39,0,0,0-1.34.29,3.35,3.35,0,0,0-1.11.78,4.43,4.43,0,0,0-.71,1.07,5,5,0,0,0-.4,1.39ZM298,73.54a6.94,6.94,0,0,0,.28,1.44,3.68,3.68,0,0,0,.56,1.16,2.25,2.25,0,0,0,1.06.89,4.24,4.24,0,0,0,1.61.3,3.47,3.47,0,0,0,2.32-.77,4,4,0,0,0,1.2-2.23.55.55,0,0,1,.2-.34.6.6,0,0,1,.39-.15H306a.59.59,0,0,1,.46.21.56.56,0,0,1,.15.48A5,5,0,0,1,305,77.77a4.86,4.86,0,0,1-1.55.88,5.61,5.61,0,0,1-1.88.32,4.55,4.55,0,0,1-4-1.84,6.84,6.84,0,0,1-1.23-4.27,6.2,6.2,0,0,1,1.61-4.48,4.74,4.74,0,0,1,3.6-1.63,5.36,5.36,0,0,1,2.39.53,4.36,4.36,0,0,1,1.67,1.43,6.22,6.22,0,0,1,.86,1.8,6.8,6.8,0,0,1,.29,2v.22a1.48,1.48,0,0,1,0,.22.55.55,0,0,1-.2.38.58.58,0,0,1-.4.17Zm17.78-2.21a.56.56,0,0,1-.43-.19.57.57,0,0,1-.18-.41,2.15,2.15,0,0,0-.7-1.79,3.47,3.47,0,0,0-2.08-.55,5.34,5.34,0,0,0-.86.06,3.11,3.11,0,0,0-.63.14,2.08,2.08,0,0,0-.7.51,1.39,1.39,0,0,0-.28.54c-.05.21-.08.34-.08.36a1.35,1.35,0,0,0,.21.83,1,1,0,0,0,.55.44c.32.11.69.22,1.12.35s.94.25,1.5.38l.63.17a5.79,5.79,0,0,1,.63.18,5.47,5.47,0,0,1,.64.23,2.78,2.78,0,0,1,.59.32v0a2.93,2.93,0,0,1,1,1,3.16,3.16,0,0,1,.35,1.56,3.48,3.48,0,0,1-.4,1.63,3.16,3.16,0,0,1-1.11,1.13,5.35,5.35,0,0,1-1.35.58,6.31,6.31,0,0,1-1.54.19c-3.22,0-4.83-1.48-4.84-4.46a.56.56,0,0,1,.17-.43.57.57,0,0,1,.44-.18h.4a.61.61,0,0,1,.42.17.57.57,0,0,1,.19.43,2.74,2.74,0,0,0,.81,2.13,3.53,3.53,0,0,0,2.4.7,4.19,4.19,0,0,0,1-.13,3.92,3.92,0,0,0,1-.38,1.53,1.53,0,0,0,.81-1.37,1.93,1.93,0,0,0-.05-.45,1.33,1.33,0,0,0-.12-.32,1.42,1.42,0,0,0-.63-.5,3.61,3.61,0,0,0-.48-.22c-.18-.08-.37-.14-.57-.21l-.29-.08-.3-.08-.18,0-.17,0-.18,0-.17,0c-.44-.11-.89-.23-1.33-.37s-.81-.27-1.13-.4a2.47,2.47,0,0,1-1.22-1,3.19,3.19,0,0,1-.42-1.71,3,3,0,0,1,1-2.19A4.21,4.21,0,0,1,310.5,67a3.44,3.44,0,0,1,.84-.21,7.52,7.52,0,0,1,1-.06,4.45,4.45,0,0,1,3.21,1,4.1,4.1,0,0,1,1.2,2.94.73.73,0,0,1-.19.41.53.53,0,0,1-.41.2Zm12.15-1.69a4.6,4.6,0,0,0-.73,1.45,6,6,0,0,0-.26,1.71,6.27,6.27,0,0,0,.33,1.82A4.36,4.36,0,0,0,328,76a3.38,3.38,0,0,0,1.12.91,3.67,3.67,0,0,0,1.44.39A3.54,3.54,0,0,0,332.1,77a2.57,2.57,0,0,0,1-1,5.93,5.93,0,0,0,.86-3.18,5.39,5.39,0,0,0-.9-3.17,2.61,2.61,0,0,0-1.06-1,3.44,3.44,0,0,0-1.49-.32,3.62,3.62,0,0,0-1.52.32,3,3,0,0,0-1.13,1Zm2.65,9.3a6.85,6.85,0,0,1-2.12-.35,3.54,3.54,0,0,1-1.52-1v4.62a.59.59,0,0,1-.18.44.56.56,0,0,1-.43.17h-.39a.57.57,0,0,1-.44-.17.59.59,0,0,1-.18-.44V76.7a1,1,0,0,0,0-.17c0-.06,0-.14,0-.22V75.05c0-.41,0-.84,0-1.28s0-.87.07-1.3a10.32,10.32,0,0,1,.14-1.18,4.48,4.48,0,0,1,.24-1h0a5.3,5.3,0,0,1,1.73-2.53,4.45,4.45,0,0,1,1.41-.79,4.76,4.76,0,0,1,1.67-.29,4.92,4.92,0,0,1,2.14.49,5,5,0,0,1,1.61,1.32,6.26,6.26,0,0,1,1,1.91,7.48,7.48,0,0,1,.35,2.36,8.14,8.14,0,0,1-.31,2.32,6.38,6.38,0,0,1-.95,1.92,4.31,4.31,0,0,1-1.59,1.39,5,5,0,0,1-2.22.5ZM337.13,67a.56.56,0,0,1,.32.12.6.6,0,0,1,.23.25l3.51,8.71c.53-1.46,1.07-2.9,1.61-4.35s1.09-2.88,1.63-4.33a.69.69,0,0,1,.23-.27A.6.6,0,0,1,345,67h.44a.6.6,0,0,1,.3.07.49.49,0,0,1,.2.18.63.63,0,0,1,.1.27.6.6,0,0,1,0,.32l-4,10.5h0a.73.73,0,0,1-.57.39H341a.58.58,0,0,1-.32-.12.63.63,0,0,1-.24-.25l-4.33-10.5a.65.65,0,0,1,.07-.58.53.53,0,0,1,.49-.27Zm11.76,1.62h1.77a.61.61,0,0,0,.43-.17.58.58,0,0,0,.17-.44v-.4a.57.57,0,0,0-.17-.43.58.58,0,0,0-.43-.18h-1.77V64.31a.67.67,0,0,0-.07-.33.6.6,0,0,0-.21-.21.57.57,0,0,0-.29-.08.56.56,0,0,0-.32.08l-.41.2a.67.67,0,0,0-.22.25.64.64,0,0,0-.09.3V67H346a.57.57,0,0,0-.43.18.58.58,0,0,0-.18.43V68a.59.59,0,0,0,.18.44.6.6,0,0,0,.43.17h1.33v7.51a3.1,3.1,0,0,0,.19,1.12,1.84,1.84,0,0,0,.21.46,3.71,3.71,0,0,0,.37.49,2.34,2.34,0,0,0,1.55.52l.44,0a1.3,1.3,0,0,0,.31,0h.25a.61.61,0,0,0,.61-.61v-.42a.58.58,0,0,0-.78-.57h0a4.9,4.9,0,0,1-.73,0,1.69,1.69,0,0,1-.33,0,.76.76,0,0,1-.3-.14c-.11-.06-.17-.35-.19-.87V68.62Zm9.44-5.09a.61.61,0,0,1,.61-.61h.4a.6.6,0,0,1,.44.18.61.61,0,0,1,.17.43V78.1a.62.62,0,0,1-.17.44.65.65,0,0,1-.44.18h-.4a.62.62,0,0,1-.43-.18.59.59,0,0,1-.18-.44V63.53Zm5.35,5.09v7.44c0,.52.08.81.19.87a.7.7,0,0,0,.3.14,1.66,1.66,0,0,0,.32,0,5.08,5.08,0,0,0,.74,0h0a.59.59,0,0,1,.55.08.57.57,0,0,1,.22.49v.42a.57.57,0,0,1-.17.43.6.6,0,0,1-.44.18h-.24a1.35,1.35,0,0,1-.31,0l-.45,0a2.31,2.31,0,0,1-1.54-.52,3.71,3.71,0,0,1-.37-.49,2.37,2.37,0,0,1-.22-.46,3.33,3.33,0,0,1-.19-1.12V68.62h-1.32a.64.64,0,0,1-.44-.17.62.62,0,0,1-.17-.44v-.4a.61.61,0,0,1,.17-.43.6.6,0,0,1,.44-.18h1.32V64.52a.56.56,0,0,1,.1-.3.67.67,0,0,1,.22-.25l.41-.2a.56.56,0,0,1,.32-.08.57.57,0,0,1,.29.08.7.7,0,0,1,.21.21.81.81,0,0,1,.07.33V67h1.77a.58.58,0,0,1,.43.18.61.61,0,0,1,.17.43V68a.62.62,0,0,1-.17.44.61.61,0,0,1-.43.17Zm10.92,7.43a4.6,4.6,0,0,0,.75-1.46,6.23,6.23,0,0,0,.26-1.7,6.62,6.62,0,0,0-.34-1.81,4.51,4.51,0,0,0-.75-1.39,3.66,3.66,0,0,0-1.13-.91,3.85,3.85,0,0,0-1.45-.39,3.67,3.67,0,0,0-1.53.37,2.76,2.76,0,0,0-1.06.94,6.32,6.32,0,0,0-.64,1.49,6.57,6.57,0,0,0-.22,1.69,5.43,5.43,0,0,0,.9,3.19A2.93,2.93,0,0,0,372,77.33a3.58,3.58,0,0,0,1.52-.33,2.82,2.82,0,0,0,1.12-1ZM372,66.75a6.55,6.55,0,0,1,2.12.36,3.72,3.72,0,0,1,1.53,1.06V63.53a.61.61,0,0,1,.17-.43.6.6,0,0,1,.44-.18h.4a.57.57,0,0,1,.43.18.57.57,0,0,1,.17.43V69a1.41,1.41,0,0,0,0,.18c0,.06,0,.13,0,.21v1.27c0,.41,0,.83,0,1.28s0,.87-.07,1.3-.08.82-.14,1.19a7.45,7.45,0,0,1-.24,1h0A5.27,5.27,0,0,1,375,77.89a4.88,4.88,0,0,1-1.41.79,5.39,5.39,0,0,1-1.69.29,4.91,4.91,0,0,1-2.13-.5,4.74,4.74,0,0,1-1.61-1.32,6.16,6.16,0,0,1-1-1.91,7.74,7.74,0,0,1-.34-2.36,8,8,0,0,1,.31-2.31,6.1,6.1,0,0,1,.95-1.93,4.26,4.26,0,0,1,1.6-1.39A5,5,0,0,1,372,66.75Z"/><path class="cls-3" d="M384.47,1c0,.18,0,.33,0,.46a1.61,1.61,0,0,1-.07.31.32.32,0,0,1-.12.17.22.22,0,0,1-.15.06h-3v9.75a.27.27,0,0,1-.06.17.43.43,0,0,1-.2.12,2,2,0,0,1-.38.08,4.91,4.91,0,0,1-.59,0,5,5,0,0,1-.6,0,2.25,2.25,0,0,1-.38-.08.48.48,0,0,1-.2-.12.27.27,0,0,1-.06-.17V2h-3a.23.23,0,0,1-.16-.06.38.38,0,0,1-.11-.17,1.1,1.1,0,0,1-.07-.31,3,3,0,0,1,0-.46,3.23,3.23,0,0,1,0-.48,1.1,1.1,0,0,1,.07-.31.45.45,0,0,1,.11-.17.28.28,0,0,1,.16,0h8.52a.3.3,0,0,1,.15.05.37.37,0,0,1,.12.17,1.61,1.61,0,0,1,.07.31c0,.13,0,.29,0,.48ZM400,11.76a.34.34,0,0,1-.05.17.39.39,0,0,1-.19.12,2,2,0,0,1-.36.08,5.43,5.43,0,0,1-1.14,0,1.84,1.84,0,0,1-.35-.08.39.39,0,0,1-.19-.12.27.27,0,0,1-.06-.17V1.91h0l-3.5,9.84A.45.45,0,0,1,394,12a.62.62,0,0,1-.23.12,1.68,1.68,0,0,1-.37.06l-.54,0a4.16,4.16,0,0,1-.54,0,1.52,1.52,0,0,1-.37-.07.82.82,0,0,1-.23-.13.42.42,0,0,1-.11-.18l-3.37-9.84h0v9.85a.27.27,0,0,1-.06.17.31.31,0,0,1-.19.12,2,2,0,0,1-.36.08,4.39,4.39,0,0,1-.56,0,4.45,4.45,0,0,1-.57,0,2,2,0,0,1-.36-.08.39.39,0,0,1-.19-.12.34.34,0,0,1,0-.17V1a1,1,0,0,1,.25-.73.91.91,0,0,1,.68-.25h1.61a3.26,3.26,0,0,1,.74.07,1.5,1.5,0,0,1,.53.23,1.44,1.44,0,0,1,.38.43,3.49,3.49,0,0,1,.26.66L393,8.6h0l2.7-7.19A3.47,3.47,0,0,1,396,.75a1.56,1.56,0,0,1,.34-.44,1.15,1.15,0,0,1,.45-.24,2.22,2.22,0,0,1,.61-.07H399a1.11,1.11,0,0,1,.43.07.67.67,0,0,1,.3.19.75.75,0,0,1,.18.3A1.42,1.42,0,0,1,400,1Z"/></g></g></svg>