<?xml version="1.0" standalone="no"?>
<!DOCTYPE svg PUBLIC "-//W3C//DTD SVG 1.1//EN" "http://www.w3.org/Graphics/SVG/1.1/DTD/svg11.dtd">
<svg xmlns="http://www.w3.org/2000/svg" xmlns:xlink="http://www.w3.org/1999/xlink" version="1.1" id="Layer_1" x="0px" y="0px" viewBox="0 0 1200 1200" style="enable-background:new 0 0 1200 1200;" xml:space="preserve" width="1200" height="1200">
<style type="text/css">
	.st0{fill:#FF4453;}
	.st1{fill:#2B2E5F;}
	.st2{fill:#FF7957;}
	.st3{fill:#FFD541;}
	.st4{fill:#00C3AC;}
</style>
<g>
	<g>
		<path class="st0" d="M129.86,883.66l11.98-29.28h2.87l11.94,29.28h-4.3l-9.83-24.76h1.48l-9.91,24.76H129.86z M135.55,877.04    v-3.46h15.4v3.46H135.55z"/>
		<path class="st0" d="M160.7,883.66v-30.12h3.8v30.12H160.7z M174.87,883.66v-11.69c0-1.52-0.48-2.77-1.43-3.76    c-0.96-0.98-2.19-1.48-3.71-1.48c-1.01,0-1.91,0.23-2.7,0.68c-0.79,0.45-1.41,1.07-1.86,1.86c-0.45,0.79-0.68,1.69-0.68,2.7    l-1.56-0.89c0-1.52,0.34-2.87,1.01-4.05c0.67-1.18,1.62-2.12,2.83-2.81c1.21-0.69,2.57-1.03,4.09-1.03c1.52,0,2.86,0.34,4.03,1.01    c1.17,0.67,2.09,1.62,2.76,2.83c0.68,1.21,1.01,2.6,1.01,4.18v12.45H174.87z"/>
		<path class="st0" d="M183.81,883.66v-20.04h3.8v20.04H183.81z M197.36,883.66v-12.11c0-1.49-0.46-2.66-1.37-3.52    c-0.91-0.86-2.06-1.29-3.44-1.29c-0.93,0-1.76,0.2-2.49,0.59c-0.73,0.39-1.32,0.94-1.77,1.65c-0.45,0.7-0.68,1.55-0.68,2.53    l-1.56-0.76c0-1.52,0.33-2.84,0.99-3.97c0.66-1.12,1.57-2,2.72-2.64c1.15-0.63,2.45-0.95,3.88-0.95c1.41,0,2.68,0.31,3.82,0.93    c1.14,0.62,2.04,1.49,2.7,2.61c0.66,1.13,0.99,2.46,0.99,4.01v12.91H197.36z M210.9,883.66v-12.11c0-1.49-0.46-2.66-1.37-3.52    c-0.91-0.86-2.05-1.29-3.4-1.29c-0.93,0-1.77,0.2-2.51,0.59c-0.75,0.39-1.34,0.94-1.79,1.65c-0.45,0.7-0.68,1.55-0.68,2.53    l-2.15-0.76c0.08-1.55,0.5-2.88,1.24-3.99c0.74-1.11,1.71-1.98,2.89-2.62c1.18-0.63,2.47-0.95,3.88-0.95    c1.46,0,2.77,0.31,3.92,0.93c1.15,0.62,2.07,1.49,2.76,2.61c0.69,1.13,1.03,2.48,1.03,4.05v12.87H210.9z"/>
		<path class="st0" d="M229.17,884.08c-2,0-3.8-0.46-5.4-1.37c-1.6-0.91-2.87-2.16-3.8-3.73c-0.93-1.57-1.39-3.36-1.39-5.36    c0-1.97,0.46-3.74,1.37-5.32c0.91-1.58,2.15-2.82,3.71-3.73c1.56-0.91,3.31-1.37,5.25-1.37c1.86,0,3.49,0.42,4.91,1.27    c1.42,0.84,2.53,2.01,3.33,3.5c0.8,1.49,1.2,3.18,1.2,5.06c0,0.28-0.01,0.58-0.04,0.91c-0.03,0.32-0.08,0.7-0.17,1.12h-16.92    v-3.16h14.89l-1.39,1.22c0-1.35-0.24-2.5-0.72-3.44c-0.48-0.94-1.15-1.67-2.02-2.19c-0.87-0.52-1.93-0.78-3.16-0.78    c-1.29,0-2.43,0.28-3.42,0.84c-0.98,0.56-1.74,1.35-2.28,2.36c-0.53,1.01-0.8,2.21-0.8,3.59c0,1.41,0.28,2.64,0.84,3.69    c0.56,1.05,1.36,1.87,2.4,2.45c1.04,0.58,2.24,0.87,3.59,0.87c1.12,0,2.16-0.2,3.1-0.59c0.94-0.39,1.75-0.98,2.43-1.77l2.45,2.49    c-0.96,1.12-2.13,1.98-3.52,2.57S230.74,884.08,229.17,884.08z"/>
		<path class="st0" d="M250.98,884.08c-1.86,0-3.52-0.46-4.98-1.37c-1.46-0.91-2.62-2.16-3.48-3.73c-0.86-1.57-1.29-3.35-1.29-5.32    c0-1.97,0.43-3.74,1.29-5.32c0.86-1.57,2.02-2.83,3.48-3.75c1.46-0.93,3.12-1.39,4.98-1.39c1.49,0,2.84,0.32,4.05,0.95    c1.21,0.63,2.19,1.51,2.93,2.62c0.74,1.11,1.16,2.4,1.24,3.86v6.03c-0.08,1.43-0.49,2.71-1.22,3.84c-0.73,1.13-1.7,2-2.91,2.64    C253.86,883.77,252.5,884.08,250.98,884.08z M251.61,880.5c1.27,0,2.37-0.3,3.31-0.89c0.94-0.59,1.68-1.4,2.21-2.43    c0.53-1.03,0.8-2.2,0.8-3.52c0-1.38-0.27-2.57-0.82-3.59c-0.55-1.01-1.29-1.81-2.24-2.4c-0.94-0.59-2.05-0.89-3.31-0.89    c-1.27,0-2.38,0.3-3.33,0.89c-0.96,0.59-1.71,1.4-2.26,2.43c-0.55,1.03-0.82,2.2-0.82,3.52c0,1.35,0.27,2.54,0.82,3.57    c0.55,1.03,1.31,1.83,2.28,2.43C249.23,880.2,250.34,880.5,251.61,880.5z M261.52,883.66h-3.84v-5.4l0.72-4.89l-0.72-4.85v-14.98    h3.84V883.66z"/>
		<path class="st0" d="M275.57,884.08c-1.83,0-3.49-0.46-4.98-1.37c-1.49-0.91-2.67-2.16-3.52-3.73c-0.86-1.57-1.29-3.35-1.29-5.32    c0-1.97,0.43-3.74,1.29-5.32c0.86-1.57,2.02-2.83,3.5-3.75s3.14-1.39,5-1.39c1.52,0,2.88,0.32,4.07,0.95    c1.2,0.63,2.16,1.51,2.89,2.62c0.73,1.11,1.14,2.4,1.22,3.86v6.03c-0.08,1.43-0.49,2.71-1.2,3.84c-0.72,1.13-1.67,2-2.87,2.64    C278.49,883.77,277.12,884.08,275.57,884.08z M276.21,880.5c1.88,0,3.4-0.64,4.56-1.92c1.15-1.28,1.73-2.92,1.73-4.91    c0-1.38-0.26-2.58-0.78-3.61c-0.52-1.03-1.26-1.83-2.21-2.4c-0.96-0.58-2.07-0.87-3.33-0.87c-1.27,0-2.38,0.3-3.35,0.89    c-0.97,0.59-1.73,1.4-2.28,2.43c-0.55,1.03-0.82,2.2-0.82,3.52c0,1.35,0.27,2.54,0.82,3.57s1.31,1.83,2.3,2.43    C273.81,880.2,274.94,880.5,276.21,880.5z M282.24,883.66v-5.4l0.72-4.89l-0.72-4.85v-4.89h3.84v20.04H282.24z"/>
		<path class="st0" d="M291.6,883.66v-30.12h3.8v14.98l-0.72,4.85l0.72,4.89v5.4H291.6z M302.15,884.08c-1.52,0-2.89-0.32-4.11-0.95    c-1.22-0.63-2.2-1.51-2.93-2.64c-0.73-1.12-1.14-2.4-1.22-3.84v-6.03c0.08-1.46,0.5-2.75,1.24-3.86c0.75-1.11,1.73-1.98,2.95-2.62    c1.22-0.63,2.58-0.95,4.07-0.95c1.83,0,3.48,0.46,4.96,1.39c1.48,0.93,2.64,2.18,3.48,3.75c0.84,1.58,1.27,3.35,1.27,5.32    c0,1.97-0.42,3.74-1.27,5.32c-0.84,1.58-2,2.82-3.48,3.73C305.63,883.63,303.98,884.08,302.15,884.08z M301.52,880.5    c1.27,0,2.38-0.3,3.33-0.89c0.96-0.59,1.72-1.4,2.28-2.43c0.56-1.03,0.84-2.21,0.84-3.57c0-1.32-0.28-2.5-0.84-3.54    c-0.56-1.04-1.32-1.85-2.28-2.43c-0.96-0.58-2.05-0.87-3.29-0.87c-1.27,0-2.38,0.29-3.33,0.87c-0.96,0.58-1.7,1.39-2.24,2.43    c-0.53,1.04-0.8,2.24-0.8,3.59c0,1.32,0.26,2.5,0.78,3.52c0.52,1.03,1.27,1.83,2.24,2.43C299.18,880.2,300.28,880.5,301.52,880.5z    "/>
		<path class="st0" d="M324.68,884.08c-1.83,0-3.49-0.46-4.98-1.37c-1.49-0.91-2.67-2.16-3.52-3.73c-0.86-1.57-1.29-3.35-1.29-5.32    c0-1.97,0.43-3.74,1.29-5.32c0.86-1.57,2.02-2.83,3.5-3.75s3.14-1.39,5-1.39c1.52,0,2.88,0.32,4.07,0.95    c1.2,0.63,2.16,1.51,2.89,2.62c0.73,1.11,1.14,2.4,1.22,3.86v6.03c-0.08,1.43-0.49,2.71-1.2,3.84c-0.72,1.13-1.67,2-2.87,2.64    C327.6,883.77,326.22,884.08,324.68,884.08z M325.31,880.5c1.88,0,3.4-0.64,4.56-1.92c1.15-1.28,1.73-2.92,1.73-4.91    c0-1.38-0.26-2.58-0.78-3.61c-0.52-1.03-1.26-1.83-2.21-2.4c-0.96-0.58-2.07-0.87-3.33-0.87c-1.27,0-2.38,0.3-3.35,0.89    c-0.97,0.59-1.73,1.4-2.28,2.43c-0.55,1.03-0.82,2.2-0.82,3.52c0,1.35,0.27,2.54,0.82,3.57s1.31,1.83,2.3,2.43    C322.92,880.2,324.05,880.5,325.31,880.5z M331.34,883.66v-5.4l0.72-4.89l-0.72-4.85v-4.89h3.84v20.04H331.34z"/>
		<path class="st0" d="M349.19,884.08c-1.86,0-3.52-0.46-4.98-1.37c-1.46-0.91-2.62-2.16-3.48-3.73c-0.86-1.57-1.29-3.35-1.29-5.32    c0-1.97,0.43-3.74,1.29-5.32c0.86-1.57,2.02-2.83,3.48-3.75c1.46-0.93,3.12-1.39,4.98-1.39c1.49,0,2.84,0.32,4.05,0.95    c1.21,0.63,2.19,1.51,2.93,2.62c0.74,1.11,1.16,2.4,1.24,3.86v6.03c-0.08,1.43-0.49,2.71-1.22,3.84c-0.73,1.13-1.7,2-2.91,2.64    C352.07,883.77,350.71,884.08,349.19,884.08z M349.82,880.5c1.27,0,2.37-0.3,3.31-0.89c0.94-0.59,1.68-1.4,2.21-2.43    c0.53-1.03,0.8-2.2,0.8-3.52c0-1.38-0.27-2.57-0.82-3.59c-0.55-1.01-1.29-1.81-2.24-2.4c-0.94-0.59-2.05-0.89-3.31-0.89    c-1.27,0-2.38,0.3-3.33,0.89c-0.96,0.59-1.71,1.4-2.26,2.43c-0.55,1.03-0.82,2.2-0.82,3.52c0,1.35,0.27,2.54,0.82,3.57    s1.31,1.83,2.28,2.43C347.44,880.2,348.56,880.5,349.82,880.5z M359.74,883.66h-3.84v-5.4l0.72-4.89l-0.72-4.85v-14.98h3.84    V883.66z"/>
		<path class="st0" d="M374.71,883.66v-29.28h3.97v29.28H374.71z"/>
		<path class="st0" d="M383.4,858.01v-3.63h23.84v3.63H383.4z M393.36,883.66v-28.44h3.97v28.44H393.36z"/>
		<path class="st0" d="M420.06,883.66v-29.28h2.78l12.4,20.38h-1.9l12.4-20.38h2.78v29.28h-3.97v-22.32l0.93,0.25l-9.79,16.07h-2.78    l-9.79-16.07l0.89-0.25v22.32H420.06z"/>
		<path class="st0" d="M463.3,884.08c-1.83,0-3.49-0.46-4.98-1.37c-1.49-0.91-2.67-2.16-3.52-3.73c-0.86-1.57-1.29-3.35-1.29-5.32    c0-1.97,0.43-3.74,1.29-5.32c0.86-1.57,2.02-2.83,3.5-3.75s3.14-1.39,5-1.39c1.52,0,2.88,0.32,4.07,0.95    c1.2,0.63,2.16,1.51,2.89,2.62c0.73,1.11,1.14,2.4,1.22,3.86v6.03c-0.08,1.43-0.49,2.71-1.2,3.84c-0.72,1.13-1.67,2-2.87,2.64    C466.22,883.77,464.85,884.08,463.3,884.08z M463.94,880.5c1.88,0,3.4-0.64,4.56-1.92c1.15-1.28,1.73-2.92,1.73-4.91    c0-1.38-0.26-2.58-0.78-3.61c-0.52-1.03-1.26-1.83-2.21-2.4c-0.96-0.58-2.07-0.87-3.33-0.87c-1.27,0-2.38,0.3-3.35,0.89    c-0.97,0.59-1.73,1.4-2.28,2.43c-0.55,1.03-0.82,2.2-0.82,3.52c0,1.35,0.27,2.54,0.82,3.57s1.31,1.83,2.3,2.43    C461.55,880.2,462.67,880.5,463.94,880.5z M469.97,883.66v-5.4l0.72-4.89l-0.72-4.85v-4.89h3.84v20.04H469.97z"/>
		<path class="st0" d="M479.34,883.66v-20.04h3.8v20.04H479.34z M493.51,883.66v-11.69c0-1.52-0.48-2.77-1.43-3.76    c-0.96-0.98-2.19-1.48-3.71-1.48c-1.01,0-1.91,0.23-2.7,0.68c-0.79,0.45-1.41,1.07-1.86,1.86c-0.45,0.79-0.68,1.69-0.68,2.7    l-1.56-0.89c0-1.52,0.34-2.87,1.01-4.05c0.68-1.18,1.62-2.12,2.83-2.81c1.21-0.69,2.57-1.03,4.09-1.03c1.52,0,2.86,0.38,4.03,1.14    c1.17,0.76,2.09,1.75,2.76,2.97c0.68,1.22,1.01,2.52,1.01,3.9v12.45H493.51z"/>
		<path class="st0" d="M510.98,884.08c-1.83,0-3.49-0.46-4.98-1.37c-1.49-0.91-2.67-2.16-3.52-3.73c-0.86-1.57-1.29-3.35-1.29-5.32    c0-1.97,0.43-3.74,1.29-5.32c0.86-1.57,2.02-2.83,3.5-3.75s3.14-1.39,5-1.39c1.52,0,2.88,0.32,4.07,0.95    c1.19,0.63,2.16,1.51,2.89,2.62c0.73,1.11,1.14,2.4,1.22,3.86v6.03c-0.08,1.43-0.49,2.71-1.2,3.84c-0.72,1.13-1.67,2-2.87,2.64    C513.89,883.77,512.52,884.08,510.98,884.08z M511.61,880.5c1.88,0,3.4-0.64,4.56-1.92c1.15-1.28,1.73-2.92,1.73-4.91    c0-1.38-0.26-2.58-0.78-3.61s-1.26-1.83-2.21-2.4s-2.07-0.87-3.33-0.87s-2.38,0.3-3.35,0.89c-0.97,0.59-1.73,1.4-2.28,2.43    c-0.55,1.03-0.82,2.2-0.82,3.52c0,1.35,0.27,2.54,0.82,3.57s1.31,1.83,2.3,2.43C509.22,880.2,510.34,880.5,511.61,880.5z     M517.64,883.66v-5.4l0.72-4.89l-0.72-4.85v-4.89h3.84v20.04H517.64z"/>
		<path class="st0" d="M535.32,883.32c-1.83,0-3.47-0.44-4.91-1.31c-1.45-0.87-2.59-2.07-3.44-3.61c-0.84-1.53-1.27-3.26-1.27-5.17    c0-1.91,0.42-3.62,1.27-5.13c0.84-1.5,1.99-2.7,3.44-3.59c1.45-0.89,3.09-1.33,4.91-1.33c1.58,0,2.97,0.31,4.18,0.93    c1.21,0.62,2.17,1.48,2.89,2.59c0.72,1.11,1.1,2.41,1.16,3.9v5.32c-0.09,1.46-0.49,2.75-1.2,3.86c-0.72,1.11-1.68,1.98-2.89,2.59    C538.24,883.01,536.86,883.32,535.32,883.32z M535.32,892.48c-2.05,0-3.87-0.38-5.46-1.14c-1.59-0.76-2.86-1.83-3.82-3.21    l2.45-2.49c0.81,1.04,1.79,1.83,2.91,2.38c1.12,0.55,2.46,0.82,4.01,0.82c2.05,0,3.68-0.54,4.87-1.62    c1.2-1.08,1.79-2.54,1.79-4.37v-4.98l0.67-4.51l-0.67-4.47v-5.27h3.8v19.24c0,1.91-0.44,3.59-1.33,5.02    c-0.89,1.43-2.12,2.56-3.71,3.37S537.4,892.48,535.32,892.48z M536.08,879.74c1.24,0,2.33-0.27,3.27-0.8    c0.94-0.53,1.67-1.29,2.17-2.26c0.51-0.97,0.76-2.1,0.76-3.4c0-1.29-0.26-2.43-0.78-3.4c-0.52-0.97-1.24-1.73-2.17-2.28    c-0.93-0.55-2.02-0.82-3.29-0.82c-1.27,0-2.38,0.27-3.33,0.82c-0.96,0.55-1.71,1.31-2.26,2.28c-0.55,0.97-0.82,2.09-0.82,3.35    c0,1.27,0.27,2.39,0.82,3.38c0.55,0.99,1.31,1.75,2.28,2.3C533.69,879.46,534.81,879.74,536.08,879.74z"/>
		<path class="st0" d="M560.71,884.08c-2,0-3.8-0.46-5.4-1.37c-1.6-0.91-2.87-2.16-3.8-3.73c-0.93-1.57-1.39-3.36-1.39-5.36    c0-1.97,0.46-3.74,1.37-5.32c0.91-1.58,2.15-2.82,3.71-3.73c1.56-0.91,3.31-1.37,5.25-1.37c1.86,0,3.49,0.42,4.91,1.27    c1.42,0.84,2.53,2.01,3.33,3.5c0.8,1.49,1.2,3.18,1.2,5.06c0,0.28-0.01,0.58-0.04,0.91c-0.03,0.32-0.08,0.7-0.17,1.12h-16.92    v-3.16h14.89l-1.39,1.22c0-1.35-0.24-2.5-0.72-3.44c-0.48-0.94-1.15-1.67-2.03-2.19c-0.87-0.52-1.93-0.78-3.16-0.78    c-1.29,0-2.43,0.28-3.42,0.84c-0.98,0.56-1.74,1.35-2.28,2.36c-0.53,1.01-0.8,2.21-0.8,3.59c0,1.41,0.28,2.64,0.84,3.69    c0.56,1.05,1.36,1.87,2.4,2.45c1.04,0.58,2.24,0.87,3.59,0.87c1.12,0,2.16-0.2,3.1-0.59c0.94-0.39,1.75-0.98,2.43-1.77l2.45,2.49    c-0.96,1.12-2.13,1.98-3.52,2.57S562.29,884.08,560.71,884.08z"/>
		<path class="st0" d="M574.05,883.66v-20.04h3.8v20.04H574.05z M587.59,883.66v-12.11c0-1.49-0.46-2.66-1.37-3.52    c-0.91-0.86-2.06-1.29-3.44-1.29c-0.93,0-1.76,0.2-2.49,0.59c-0.73,0.39-1.32,0.94-1.77,1.65c-0.45,0.7-0.68,1.55-0.68,2.53    l-1.56-0.76c0-1.52,0.33-2.84,0.99-3.97s1.57-2,2.72-2.64c1.15-0.63,2.45-0.95,3.88-0.95c1.41,0,2.68,0.31,3.82,0.93    c1.14,0.62,2.04,1.49,2.7,2.61c0.66,1.13,0.99,2.46,0.99,4.01v12.91H587.59z M601.13,883.66v-12.11c0-1.49-0.46-2.66-1.37-3.52    c-0.91-0.86-2.05-1.29-3.4-1.29c-0.93,0-1.77,0.2-2.51,0.59c-0.75,0.39-1.34,0.94-1.79,1.65c-0.45,0.7-0.68,1.55-0.68,2.53    l-2.15-0.76c0.08-1.55,0.5-2.88,1.24-3.99c0.75-1.11,1.71-1.98,2.89-2.62c1.18-0.63,2.47-0.95,3.88-0.95    c1.46,0,2.77,0.31,3.92,0.93c1.15,0.62,2.07,1.49,2.76,2.61c0.69,1.13,1.03,2.48,1.03,4.05v12.87H601.13z"/>
		<path class="st0" d="M619.4,884.08c-2,0-3.8-0.46-5.4-1.37c-1.6-0.91-2.87-2.16-3.8-3.73c-0.93-1.57-1.39-3.36-1.39-5.36    c0-1.97,0.46-3.74,1.37-5.32c0.91-1.58,2.15-2.82,3.71-3.73c1.56-0.91,3.31-1.37,5.25-1.37c1.86,0,3.49,0.42,4.91,1.27    c1.42,0.84,2.53,2.01,3.33,3.5c0.8,1.49,1.2,3.18,1.2,5.06c0,0.28-0.01,0.58-0.04,0.91c-0.03,0.32-0.08,0.7-0.17,1.12h-16.92    v-3.16h14.89l-1.39,1.22c0-1.35-0.24-2.5-0.72-3.44c-0.48-0.94-1.15-1.67-2.03-2.19c-0.87-0.52-1.93-0.78-3.16-0.78    c-1.29,0-2.43,0.28-3.42,0.84c-0.98,0.56-1.74,1.35-2.28,2.36c-0.53,1.01-0.8,2.21-0.8,3.59c0,1.41,0.28,2.64,0.84,3.69    c0.56,1.05,1.36,1.87,2.4,2.45c1.04,0.58,2.24,0.87,3.59,0.87c1.12,0,2.16-0.2,3.1-0.59c0.94-0.39,1.75-0.98,2.43-1.77l2.45,2.49    c-0.96,1.12-2.13,1.98-3.52,2.57S620.97,884.08,619.4,884.08z"/>
		<path class="st0" d="M632.73,883.66v-20.04h3.8v20.04H632.73z M646.9,883.66v-11.69c0-1.52-0.48-2.77-1.43-3.76    c-0.96-0.98-2.19-1.48-3.71-1.48c-1.01,0-1.91,0.23-2.7,0.68c-0.79,0.45-1.41,1.07-1.86,1.86c-0.45,0.79-0.68,1.69-0.68,2.7    l-1.56-0.89c0-1.52,0.34-2.87,1.01-4.05s1.62-2.12,2.83-2.81c1.21-0.69,2.57-1.03,4.09-1.03c1.52,0,2.86,0.38,4.03,1.14    c1.17,0.76,2.09,1.75,2.76,2.97c0.68,1.22,1.01,2.52,1.01,3.9v12.45H646.9z"/>
		<path class="st0" d="M653.74,867.08v-3.46h13.67v3.46H653.74z M658.67,883.66v-28.44h3.8v28.44H658.67z"/>
		<path class="st0" d="M680.57,883.66v-29.28h3.97v29.28H680.57z M683.27,858.01v-3.63h16.58v3.63H683.27z M683.27,870.41v-3.46    h15.4v3.46H683.27z M683.27,883.66v-3.63h16.79v3.63H683.27z"/>
		<path class="st0" d="M702.72,883.66l8.27-11.14l2.15,2.78l-5.95,8.35H702.72z M717.95,883.66l-6.24-8.77l-0.72-0.68l-7.89-10.59    h4.6l5.69,7.8l0.72,0.59l8.44,11.64H717.95z M714.4,874.17l-2.19-2.7l5.53-7.85h4.43L714.4,874.17z"/>
		<path class="st0" d="M734.7,884.08c-2,0-3.8-0.46-5.4-1.37c-1.6-0.91-2.87-2.16-3.8-3.73c-0.93-1.57-1.39-3.36-1.39-5.36    c0-1.97,0.46-3.74,1.37-5.32c0.91-1.58,2.15-2.82,3.71-3.73c1.56-0.91,3.31-1.37,5.25-1.37c1.86,0,3.49,0.42,4.91,1.27    c1.42,0.84,2.53,2.01,3.33,3.5c0.8,1.49,1.2,3.18,1.2,5.06c0,0.28-0.01,0.58-0.04,0.91c-0.03,0.32-0.08,0.7-0.17,1.12h-16.92    v-3.16h14.89l-1.39,1.22c0-1.35-0.24-2.5-0.72-3.44c-0.48-0.94-1.15-1.67-2.03-2.19c-0.87-0.52-1.93-0.78-3.16-0.78    c-1.29,0-2.43,0.28-3.42,0.84c-0.98,0.56-1.74,1.35-2.28,2.36c-0.53,1.01-0.8,2.21-0.8,3.59c0,1.41,0.28,2.64,0.84,3.69    c0.56,1.05,1.36,1.87,2.4,2.45c1.04,0.58,2.24,0.87,3.59,0.87c1.12,0,2.16-0.2,3.1-0.59c0.94-0.39,1.75-0.98,2.43-1.77l2.45,2.49    c-0.96,1.12-2.13,1.98-3.52,2.57S736.27,884.08,734.7,884.08z"/>
		<path class="st0" d="M757.18,884.08c-1.97,0-3.75-0.46-5.34-1.39c-1.59-0.93-2.84-2.19-3.76-3.78c-0.91-1.59-1.37-3.35-1.37-5.29    c0-1.97,0.46-3.74,1.37-5.32c0.91-1.58,2.17-2.82,3.76-3.73c1.59-0.91,3.37-1.37,5.34-1.37c1.55,0,2.98,0.29,4.3,0.86    c1.32,0.58,2.46,1.41,3.42,2.51l-2.53,2.53c-0.62-0.73-1.37-1.29-2.26-1.67c-0.89-0.38-1.86-0.57-2.93-0.57    c-1.27,0-2.39,0.29-3.37,0.87c-0.99,0.58-1.76,1.37-2.32,2.38c-0.56,1.01-0.84,2.18-0.84,3.5c0,1.32,0.28,2.49,0.84,3.5    c0.56,1.01,1.34,1.81,2.32,2.41c0.98,0.59,2.11,0.89,3.37,0.89c1.07,0,2.05-0.19,2.93-0.57c0.89-0.38,1.65-0.93,2.3-1.67    l2.49,2.53c-0.93,1.07-2.06,1.9-3.4,2.49C760.17,883.79,758.73,884.08,757.18,884.08z"/>
		<path class="st0" d="M776.76,884.08c-1.66,0-3.14-0.37-4.45-1.12c-1.31-0.75-2.33-1.78-3.06-3.1c-0.73-1.32-1.1-2.85-1.1-4.6    v-11.64h3.8v11.47c0,1.1,0.19,2.05,0.57,2.85c0.38,0.8,0.93,1.41,1.67,1.83c0.73,0.42,1.59,0.63,2.57,0.63    c1.49,0,2.66-0.47,3.5-1.41c0.84-0.94,1.27-2.24,1.27-3.9v-11.47h3.8v11.64c0,1.74-0.37,3.28-1.1,4.6    c-0.73,1.32-1.74,2.36-3.02,3.1C779.93,883.71,778.45,884.08,776.76,884.08z"/>
		<path class="st0" d="M788.57,867.08v-3.46h13.67v3.46H788.57z M793.51,883.66v-28.44h3.8v28.44H793.51z"/>
		<path class="st0" d="M807.89,859.61c-0.7,0-1.28-0.23-1.73-0.7c-0.45-0.46-0.68-1.05-0.68-1.75c0-0.68,0.22-1.24,0.68-1.71    c0.45-0.46,1.03-0.7,1.73-0.7c0.7,0,1.28,0.23,1.73,0.7c0.45,0.46,0.68,1.03,0.68,1.71c0,0.7-0.23,1.29-0.68,1.75    C809.17,859.38,808.59,859.61,807.89,859.61z M805.99,883.66v-20.04h3.8v20.04H805.99z"/>
		<path class="st0" d="M822.28,883.66l-9.2-20.04h4.22l7.38,16.92h-2.45l7.43-16.92h4.05l-9.2,20.04H822.28z"/>
		<path class="st0" d="M845.48,884.08c-2,0-3.8-0.46-5.4-1.37c-1.6-0.91-2.87-2.16-3.8-3.73c-0.93-1.57-1.39-3.36-1.39-5.36    c0-1.97,0.46-3.74,1.37-5.32c0.91-1.58,2.15-2.82,3.71-3.73c1.56-0.91,3.31-1.37,5.25-1.37c1.86,0,3.49,0.42,4.91,1.27    c1.42,0.84,2.53,2.01,3.33,3.5c0.8,1.49,1.2,3.18,1.2,5.06c0,0.28-0.01,0.58-0.04,0.91c-0.03,0.32-0.08,0.7-0.17,1.12h-16.92    v-3.16h14.89l-1.39,1.22c0-1.35-0.24-2.5-0.72-3.44c-0.48-0.94-1.15-1.67-2.03-2.19c-0.87-0.52-1.93-0.78-3.16-0.78    c-1.29,0-2.43,0.28-3.42,0.84c-0.98,0.56-1.74,1.35-2.28,2.36c-0.53,1.01-0.8,2.21-0.8,3.59c0,1.41,0.28,2.64,0.84,3.69    c0.56,1.05,1.36,1.87,2.4,2.45c1.04,0.58,2.24,0.87,3.59,0.87c1.12,0,2.16-0.2,3.1-0.59c0.94-0.39,1.75-0.98,2.43-1.77l2.45,2.49    c-0.96,1.12-2.13,1.98-3.52,2.57C848.54,883.79,847.06,884.08,845.48,884.08z"/>
		<path class="st0" d="M868.26,883.66v-29.28h3.97v29.28H868.26z M870.88,883.66v-3.63h8.14c2.17,0,4.06-0.47,5.69-1.41    c1.63-0.94,2.9-2.24,3.82-3.9c0.91-1.66,1.37-3.57,1.37-5.74c0-2.14-0.46-4.04-1.39-5.69c-0.93-1.66-2.21-2.95-3.84-3.88    c-1.63-0.93-3.52-1.39-5.65-1.39h-8.1v-3.63h8.18c2.14,0,4.11,0.37,5.93,1.1c1.81,0.73,3.39,1.76,4.73,3.08    c1.34,1.32,2.38,2.87,3.12,4.64c0.75,1.77,1.12,3.71,1.12,5.82c0,2.08-0.37,4.01-1.12,5.8c-0.75,1.79-1.78,3.34-3.1,4.66    c-1.32,1.32-2.89,2.35-4.7,3.08c-1.81,0.73-3.78,1.1-5.89,1.1H870.88z"/>
		<path class="st0" d="M908.09,884.08c-2,0-3.8-0.46-5.4-1.37c-1.6-0.91-2.87-2.16-3.8-3.73c-0.93-1.57-1.39-3.36-1.39-5.36    c0-1.97,0.46-3.74,1.37-5.32c0.91-1.58,2.15-2.82,3.71-3.73c1.56-0.91,3.31-1.37,5.25-1.37c1.86,0,3.49,0.42,4.91,1.27    c1.42,0.84,2.53,2.01,3.33,3.5c0.8,1.49,1.2,3.18,1.2,5.06c0,0.28-0.01,0.58-0.04,0.91c-0.03,0.32-0.08,0.7-0.17,1.12h-16.92    v-3.16h14.89l-1.39,1.22c0-1.35-0.24-2.5-0.72-3.44c-0.48-0.94-1.15-1.67-2.03-2.19c-0.87-0.52-1.93-0.78-3.16-0.78    c-1.29,0-2.43,0.28-3.42,0.84c-0.98,0.56-1.74,1.35-2.28,2.36c-0.53,1.01-0.8,2.21-0.8,3.59c0,1.41,0.28,2.64,0.84,3.69    c0.56,1.05,1.36,1.87,2.4,2.45c1.04,0.58,2.24,0.87,3.59,0.87c1.12,0,2.16-0.2,3.1-0.59c0.94-0.39,1.75-0.98,2.43-1.77l2.45,2.49    c-0.96,1.12-2.13,1.98-3.52,2.57S909.66,884.08,908.09,884.08z"/>
		<path class="st0" d="M921.42,883.66v-30.12h3.8v30.12H921.42z"/>
		<path class="st0" d="M940.07,884.08c-2,0-3.8-0.46-5.4-1.37c-1.6-0.91-2.87-2.16-3.8-3.73c-0.93-1.57-1.39-3.36-1.39-5.36    c0-1.97,0.46-3.74,1.37-5.32c0.91-1.58,2.15-2.82,3.71-3.73c1.56-0.91,3.31-1.37,5.25-1.37c1.86,0,3.49,0.42,4.91,1.27    c1.42,0.84,2.53,2.01,3.33,3.5c0.8,1.49,1.2,3.18,1.2,5.06c0,0.28-0.01,0.58-0.04,0.91c-0.03,0.32-0.08,0.7-0.17,1.12h-16.92    v-3.16h14.89l-1.39,1.22c0-1.35-0.24-2.5-0.72-3.44c-0.48-0.94-1.15-1.67-2.03-2.19c-0.87-0.52-1.93-0.78-3.16-0.78    c-1.29,0-2.43,0.28-3.42,0.84c-0.98,0.56-1.74,1.35-2.28,2.36c-0.53,1.01-0.8,2.21-0.8,3.59c0,1.41,0.28,2.64,0.84,3.69    c0.56,1.05,1.36,1.87,2.4,2.45c1.04,0.58,2.24,0.87,3.59,0.87c1.12,0,2.16-0.2,3.1-0.59c0.94-0.39,1.75-0.98,2.43-1.77l2.45,2.49    c-0.96,1.12-2.13,1.98-3.52,2.57S941.64,884.08,940.07,884.08z"/>
		<path class="st0" d="M961.71,883.32c-1.83,0-3.47-0.44-4.91-1.31s-2.59-2.07-3.44-3.61c-0.84-1.53-1.27-3.26-1.27-5.17    c0-1.91,0.42-3.62,1.27-5.13c0.84-1.5,1.99-2.7,3.44-3.59c1.45-0.89,3.09-1.33,4.91-1.33c1.58,0,2.97,0.31,4.18,0.93    c1.21,0.62,2.17,1.48,2.89,2.59c0.72,1.11,1.1,2.41,1.16,3.9v5.32c-0.08,1.46-0.49,2.75-1.2,3.86c-0.72,1.11-1.68,1.98-2.89,2.59    C964.63,883.01,963.25,883.32,961.71,883.32z M961.71,892.48c-2.05,0-3.87-0.38-5.46-1.14c-1.59-0.76-2.86-1.83-3.82-3.21    l2.45-2.49c0.82,1.04,1.79,1.83,2.91,2.38c1.12,0.55,2.46,0.82,4.01,0.82c2.05,0,3.68-0.54,4.87-1.62    c1.2-1.08,1.79-2.54,1.79-4.37v-4.98l0.67-4.51l-0.67-4.47v-5.27h3.8v19.24c0,1.91-0.44,3.59-1.33,5.02    c-0.89,1.43-2.12,2.56-3.71,3.37C965.62,892.07,963.79,892.48,961.71,892.48z M962.47,879.74c1.24,0,2.33-0.27,3.27-0.8    c0.94-0.53,1.67-1.29,2.17-2.26c0.51-0.97,0.76-2.1,0.76-3.4c0-1.29-0.26-2.43-0.78-3.4c-0.52-0.97-1.24-1.73-2.17-2.28    c-0.93-0.55-2.02-0.82-3.29-0.82c-1.27,0-2.38,0.27-3.33,0.82c-0.96,0.55-1.71,1.31-2.26,2.28c-0.55,0.97-0.82,2.09-0.82,3.35    c0,1.27,0.27,2.39,0.82,3.38c0.55,0.99,1.31,1.75,2.28,2.3C960.08,879.46,961.2,879.74,962.47,879.74z"/>
		<path class="st0" d="M986.34,884.08c-1.83,0-3.49-0.46-4.98-1.37c-1.49-0.91-2.67-2.16-3.52-3.73c-0.86-1.57-1.29-3.35-1.29-5.32    c0-1.97,0.43-3.74,1.29-5.32c0.86-1.57,2.02-2.83,3.5-3.75s3.14-1.39,5-1.39c1.52,0,2.88,0.32,4.07,0.95    c1.2,0.63,2.16,1.51,2.89,2.62c0.73,1.11,1.14,2.4,1.22,3.86v6.03c-0.08,1.43-0.49,2.71-1.2,3.84c-0.72,1.13-1.67,2-2.87,2.64    C989.26,883.77,987.89,884.08,986.34,884.08z M986.98,880.5c1.88,0,3.4-0.64,4.56-1.92c1.15-1.28,1.73-2.92,1.73-4.91    c0-1.38-0.26-2.58-0.78-3.61c-0.52-1.03-1.26-1.83-2.21-2.4c-0.96-0.58-2.07-0.87-3.33-0.87c-1.27,0-2.38,0.3-3.35,0.89    c-0.97,0.59-1.73,1.4-2.28,2.43c-0.55,1.03-0.82,2.2-0.82,3.52c0,1.35,0.27,2.54,0.82,3.57c0.55,1.03,1.31,1.83,2.3,2.43    C984.59,880.2,985.71,880.5,986.98,880.5z M993.01,883.66v-5.4l0.72-4.89l-0.72-4.85v-4.89h3.84v20.04H993.01z"/>
		<path class="st0" d="M1000.43,867.08v-3.46h13.67v3.46H1000.43z M1005.37,883.66v-28.44h3.8v28.44H1005.37z"/>
		<path class="st0" d="M1019.76,859.61c-0.7,0-1.28-0.23-1.73-0.7c-0.45-0.46-0.68-1.05-0.68-1.75c0-0.68,0.22-1.24,0.68-1.71    c0.45-0.46,1.03-0.7,1.73-0.7c0.7,0,1.28,0.23,1.73,0.7c0.45,0.46,0.68,1.03,0.68,1.71c0,0.7-0.23,1.29-0.68,1.75    C1021.04,859.38,1020.46,859.61,1019.76,859.61z M1017.86,883.66v-20.04h3.8v20.04H1017.86z"/>
		<path class="st0" d="M1036.42,884.08c-1.97,0-3.74-0.46-5.32-1.39c-1.58-0.93-2.83-2.19-3.76-3.78c-0.93-1.59-1.39-3.37-1.39-5.34    c0-1.94,0.46-3.69,1.39-5.25c0.93-1.56,2.18-2.8,3.76-3.73c1.57-0.93,3.35-1.39,5.32-1.39c1.94,0,3.71,0.46,5.29,1.37    c1.59,0.91,2.85,2.16,3.78,3.73c0.93,1.58,1.39,3.33,1.39,5.27c0,1.97-0.46,3.75-1.39,5.34c-0.93,1.59-2.19,2.85-3.78,3.78    C1040.13,883.62,1038.36,884.08,1036.42,884.08z M1036.42,880.41c1.27,0,2.39-0.3,3.38-0.89c0.98-0.59,1.76-1.4,2.32-2.43    c0.56-1.03,0.84-2.2,0.84-3.52c0-1.29-0.29-2.45-0.87-3.46c-0.58-1.01-1.35-1.81-2.32-2.38c-0.97-0.58-2.09-0.87-3.35-0.87    c-1.27,0-2.39,0.29-3.37,0.87c-0.99,0.58-1.76,1.37-2.32,2.38c-0.56,1.01-0.84,2.17-0.84,3.46c0,1.32,0.28,2.5,0.84,3.52    c0.56,1.03,1.34,1.84,2.32,2.43C1034.03,880.12,1035.16,880.41,1036.42,880.41z"/>
		<path class="st0" d="M1051.14,883.66v-20.04h3.8v20.04H1051.14z M1065.32,883.66v-11.69c0-1.52-0.48-2.77-1.43-3.76    c-0.96-0.98-2.19-1.48-3.71-1.48c-1.01,0-1.91,0.23-2.7,0.68c-0.79,0.45-1.41,1.07-1.86,1.86c-0.45,0.79-0.68,1.69-0.68,2.7    l-1.56-0.89c0-1.52,0.34-2.87,1.01-4.05c0.68-1.18,1.62-2.12,2.83-2.81c1.21-0.69,2.57-1.03,4.09-1.03c1.52,0,2.86,0.38,4.03,1.14    c1.17,0.76,2.09,1.75,2.76,2.97c0.68,1.22,1.01,2.52,1.01,3.9v12.45H1065.32z"/>
	</g>
	<g>
		<path class="st1" d="M288.18,823.35c0.4,1.21,1.31,2.52,2.72,3.93c1.41,1.41,3.52,2.12,6.35,2.12h31.73    c1.81,0,3.37-0.65,4.68-1.96c1.31-1.31,1.96-2.77,1.96-4.38c0-1-0.2-1.91-0.6-2.72l-71.61-194.28c-0.81-2.22-2.12-4.13-3.93-5.74    c-1.81-1.61-4.33-2.42-7.55-2.42h-38.68c-3.22,0-5.74,0.81-7.55,2.42c-1.81,1.62-3.02,3.53-3.63,5.74l-71.91,194.28    c-0.2,0.81-0.3,1.71-0.3,2.72c0,1.61,0.6,3.07,1.81,4.38c1.21,1.31,2.72,1.96,4.53,1.96h31.73c3.02,0,5.18-0.7,6.5-2.12    c1.31-1.4,2.27-2.72,2.87-3.93l55.29-159.54L288.18,823.35z"/>
		<path class="st1" d="M368.55,829.39c-2.02,0-3.73-0.7-5.14-2.12c-1.41-1.4-2.11-3.22-2.11-5.44v-196.4c0-2.21,0.7-4.03,2.11-5.44    c1.41-1.41,3.12-2.11,5.14-2.11h34.75c2.01,0,3.73,0.71,5.14,2.11c1.41,1.41,2.11,3.23,2.11,5.44v196.4    c0,2.22-0.71,4.03-2.11,5.44c-1.41,1.41-3.13,2.12-5.14,2.12H368.55z"/>
		<path class="st1" d="M462.82,829.39c-2.22,0-4.03-0.7-5.44-2.12c-1.41-1.4-2.11-3.22-2.11-5.44v-196.4c0-2.21,0.7-4.03,2.11-5.44    c1.41-1.41,3.22-2.11,5.44-2.11h28.4c3.02,0,5.29,0.81,6.8,2.42c1.51,1.62,2.46,2.82,2.87,3.63l55.9,102.13l55.9-102.13    c0.4-0.8,1.36-2.01,2.87-3.63c1.51-1.61,3.78-2.42,6.8-2.42h28.1c2.21,0,4.03,0.71,5.44,2.11c1.41,1.41,2.11,3.23,2.11,5.44v196.4    c0,2.22-0.71,4.03-2.11,5.44c-1.41,1.41-3.22,2.12-5.44,2.12h-30.82c-2.02,0-3.73-0.7-5.14-2.12c-1.41-1.4-2.11-3.22-2.11-5.44    V700.07l-38.37,71.61c-0.81,1.81-2.02,3.43-3.63,4.83c-1.62,1.41-3.83,2.12-6.65,2.12h-14.2c-2.62,0-4.73-0.71-6.35-2.12    c-1.61-1.41-2.92-3.02-3.93-4.83l-38.07-71.61v121.77c0,2.22-0.71,4.03-2.12,5.44c-1.41,1.41-3.22,2.12-5.44,2.12H462.82z"/>
		<path class="st1" d="M709.98,829.39c-2.02,0-3.73-0.7-5.14-2.12c-1.41-1.4-2.11-3.22-2.11-5.44v-196.4c0-2.21,0.7-4.03,2.11-5.44    c1.41-1.41,3.12-2.11,5.14-2.11h137.18c2.21,0,4.03,0.71,5.44,2.11c1.41,1.41,2.12,3.23,2.12,5.44v24.17    c0,2.22-0.71,4.03-2.12,5.44c-1.41,1.41-3.22,2.11-5.44,2.11h-97.9v47.14h91.25c2.22,0,4.03,0.71,5.44,2.12    c1.41,1.41,2.12,3.22,2.12,5.44v22.36c0,2.02-0.71,3.78-2.12,5.29c-1.41,1.51-3.22,2.26-5.44,2.26h-91.25v48.34h100.31    c2.21,0,4.03,0.71,5.44,2.12c1.41,1.41,2.12,3.22,2.12,5.44v24.17c0,2.22-0.71,4.03-2.12,5.44c-1.41,1.41-3.22,2.12-5.44,2.12    H709.98z"/>
		<path class="st1" d="M900.64,829.39c-2.01,0-3.73-0.7-5.14-2.12c-1.41-1.4-2.11-3.22-2.11-5.44v-196.4c0-2.21,0.7-4.03,2.11-5.44    c1.41-1.41,3.12-2.11,5.14-2.11h76.14c20.14,0,36.96,3.17,50.46,9.52c13.49,6.34,23.82,15.61,30.97,27.8    c7.15,12.19,10.93,27.24,11.33,45.17c0.4,8.87,0.6,16.62,0.6,23.27s-0.2,14.31-0.6,22.96c-0.61,18.73-4.33,34.25-11.18,46.53    c-6.85,12.29-16.87,21.4-30.06,27.34c-13.2,5.95-29.87,8.91-50.01,8.91H900.64z M941.43,790.11h35.35    c10.07,0,18.28-1.46,24.62-4.38c6.35-2.92,11.13-7.65,14.35-14.2c3.22-6.54,4.93-15.06,5.14-25.53c0.2-5.84,0.35-11.08,0.45-15.71    c0.1-4.63,0.1-9.26,0-13.9c-0.1-4.63-0.25-9.77-0.45-15.41c-0.41-15.11-4.28-26.18-11.63-33.24    c-7.36-7.05-18.69-10.58-33.99-10.58h-33.84V790.11z"/>
	</g>
	<g>
		<g>
			<g>
				<polygon class="st1" points="486.36,363.37 467.28,363.37 467.28,307.52 523.12,307.52 523.12,326.6 486.36,326.6     "/>
			</g>
			<g>
				<polygon class="st1" points="732.72,363.37 713.64,363.37 713.64,326.6 676.88,326.6 676.88,307.52 732.72,307.52     "/>
			</g>
			<g>
				<polygon class="st1" points="523.12,572.96 467.28,572.96 467.28,517.12 486.36,517.12 486.36,553.88 523.12,553.88     "/>
			</g>
			<g>
				<polygon class="st1" points="732.72,572.96 676.88,572.96 676.88,553.88 713.64,553.88 713.64,517.12 732.72,517.12     "/>
			</g>
		</g>
		<g>
			<polygon class="st0" points="641,340.46 600,382.22 559.01,340.46 542.92,356.26 600,414.4 657.08,356.26    "/>
			
				<ellipse transform="matrix(0.9774 -0.2114 0.2114 0.9774 -55.6165 134.2099)" class="st0" cx="600" cy="327.27" rx="19.75" ry="19.75"/>
		</g>
		<g>
			<polygon class="st2" points="641,540.02 600,498.26 559.01,540.02 542.92,524.23 600,466.08 657.08,524.23    "/>
			
				<ellipse transform="matrix(0.6805 -0.7328 0.7328 0.6805 -213.6657 616.4515)" class="st2" cx="600" cy="553.22" rx="19.75" ry="19.75"/>
		</g>
		<polygon class="st3" points="699.78,481.24 658.02,440.24 699.78,399.25 683.99,383.16 625.84,440.24 683.99,497.32   "/>
		
			<ellipse transform="matrix(0.7071 -0.7071 0.7071 0.7071 -102.4733 633.0945)" class="st3" cx="712.98" cy="440.24" rx="19.75" ry="19.75"/>
		
			<ellipse transform="matrix(0.7071 -0.7071 0.7071 0.7071 -135.563 553.2084)" class="st1" cx="600" cy="440.24" rx="17.27" ry="17.27"/>
		<g>
			<polygon class="st4" points="500.22,481.24 541.98,440.24 500.22,399.25 516.01,383.16 574.16,440.24 516.01,497.32    "/>
			
				<ellipse transform="matrix(0.7071 -0.7071 0.7071 0.7071 -168.6531 473.3223)" class="st4" cx="487.02" cy="440.24" rx="19.75" ry="19.75"/>
		</g>
	</g>
</g>
</svg>