<svg width="924" height="244" viewBox="0 0 924 244" fill="none" xmlns="http://www.w3.org/2000/svg">
<path fill-rule="evenodd" clip-rule="evenodd" d="M150.323 11.3125C155.224 11.3125 159.76 13.8125 162.059 17.8764C164.261 21.7691 164.167 26.3563 161.814 30.1638L161.734 30.2918L141.113 62.8108C138.781 66.488 134.572 68.7831 130.072 68.8321L129.925 68.8329L106.378 68.8327L116.165 89.9555L116.204 90.0175L116.264 90.1172C118.569 94.0445 118.513 98.7137 116.123 102.582L116.042 102.711L95.4212 135.23C93.0893 138.907 88.8796 141.202 84.3804 141.251L84.2336 141.252L55.3317 141.252L34.5547 161.911L34.5154 161.949C32.5603 163.823 29.9186 164.868 27.1644 164.868C26.4758 164.868 25.7869 164.802 25.1053 164.671C21.7456 164.025 18.9543 161.851 17.6106 158.854L17.5727 158.768L6.63877 135.107L6.58125 135.016L6.52151 134.918C6.51159 134.902 6.5015 134.885 6.49095 134.867C4.18604 130.94 4.24187 126.27 6.63188 122.402L6.71241 122.273L26.7125 90.7328L11.9755 58.9272L12.2455 58.7975L12.2414 58.7784C11.6178 55.8528 12.1198 52.8018 13.7212 50.1296L13.8097 49.9842L13.8914 49.8536L34.5124 17.3344C36.8446 13.6574 41.0545 11.3622 45.5535 11.3125H45.7003H150.323ZM42.0469 141.005L20.137 141.005L26.5721 155.038L26.5879 155.075C26.6946 155.326 26.8672 155.464 27.124 155.514C27.3531 155.558 27.5384 155.512 27.7137 155.362L27.7444 155.334L42.0469 141.005ZM104.68 92.7591H38.452C38.3789 92.7591 38.3057 92.7615 38.2327 92.7662L38.2127 92.7676L56.372 131.926H84.2303C85.3754 131.926 86.4785 131.348 87.1058 130.42L87.1556 130.344L107.806 97.8049C108.422 96.8343 108.491 95.7081 108.002 94.6947C107.44 93.5261 106.133 92.7591 104.68 92.7591ZM31.5675 100.8L15.1776 126.842C14.5255 127.879 14.4877 129.093 15.0717 130.161L15.1336 130.27L15.1666 130.323L15.2328 130.425L15.3638 130.609L15.5102 130.788L15.6502 130.939L15.6745 130.963L15.7691 131.054L15.8514 131.128C16.3669 131.569 17.0043 131.838 17.7072 131.907L17.8651 131.92L17.9566 131.924L18.0724 131.926H45.8811L31.5675 100.8ZM27.2577 68.8958L34.456 84.4588L34.5962 84.4137C35.8393 84.0216 37.139 83.809 38.4529 83.7897L38.6501 83.7882L102.847 83.788L95.9591 68.896L27.2577 68.8958ZM150.14 20.3909H83.6757L101.84 59.5579H129.689C130.836 59.5579 131.94 58.9796 132.568 58.0508L132.617 57.9748L153.27 25.4364C153.885 24.466 153.953 23.3407 153.466 22.3282C152.914 21.1835 151.65 20.4238 150.233 20.392L150.14 20.3909ZM73.5011 20.3909H45.8068C44.6679 20.3909 43.5695 20.9679 42.9446 21.8952L42.895 21.9712L22.2972 54.5101C21.6823 55.4814 21.6143 56.6093 22.1019 57.624C22.6512 58.7676 23.9086 59.5252 25.3173 59.5569L25.4094 59.5579H91.6181L73.5011 20.3909Z" fill="#4B39EF"/>
<path fill-rule="evenodd" clip-rule="evenodd" d="M259.582 60.0885L259.662 40.1495H201.561V130.782H223.435V97.5066H252.063L252.143 77.5676H223.435V60.0885H259.582ZM271.966 130.782H292.472V36.2653H271.966V130.782ZM351.666 66.0444V101.391C351.666 110.584 346.471 114.727 338.952 114.727C332.39 114.727 327.059 110.972 327.059 102.945V66.0444H306.552V105.793C306.552 123.272 318.309 132.594 332.117 132.594C341.139 132.594 347.975 129.487 351.666 124.696V130.782H372.172V66.0444H351.666ZM427.265 84.6887V66.0444H413.184V47.918L392.678 53.7443V66.0444H381.741V84.6887H392.678V107.606C392.678 125.732 400.47 133.371 427.265 130.782V113.173C418.242 113.691 413.184 113.173 413.184 107.606V84.6887H427.265ZM480.307 84.6887V66.0444H466.226V47.918L445.72 53.7443V66.0444H434.784V84.6887H445.72V107.606C445.72 125.732 453.513 133.371 480.307 130.782V113.173C471.285 113.691 466.226 113.173 466.226 107.606V84.6887H480.307ZM511.613 106.181H560.144C560.691 103.721 560.964 101.132 560.964 98.4129C560.964 78.8623 546.2 64.2317 526.241 64.2317C504.641 64.2317 489.877 79.1213 489.877 98.4129C489.877 117.705 504.368 132.594 527.745 132.594C540.732 132.594 550.848 128.063 557.547 119.258L541.142 110.325C538.408 113.173 533.623 115.245 528.018 115.245C520.499 115.245 514.211 112.914 511.613 106.181ZM511.203 91.6803C513.117 85.0771 518.312 81.4518 526.104 81.4518C532.256 81.4518 538.408 84.1708 540.595 91.6803H511.203ZM593.091 77.5676V66.0444H572.584V130.782H593.091V101.52C593.091 88.7024 605.121 85.4655 613.597 86.7603V64.7496C604.984 64.7496 595.825 68.8928 593.091 77.5676ZM681.87 60.0885L681.95 40.1495H623.85V130.782H645.723V97.5066H674.351L674.431 77.5676H645.723V60.0885H681.87ZM694.254 130.782H714.76V36.2653H694.254V130.782ZM762.607 132.594C782.703 132.594 798.835 117.705 798.835 98.4129C798.835 79.1213 782.703 64.2317 762.607 64.2317C742.511 64.2317 726.38 79.1213 726.38 98.4129C726.38 117.705 742.511 132.594 762.607 132.594ZM762.607 113.691C753.721 113.691 746.886 107.606 746.886 98.4129C746.886 89.2203 753.721 83.135 762.607 83.135C771.493 83.135 778.329 89.2203 778.329 98.4129C778.329 107.606 771.493 113.691 762.607 113.691ZM885.644 66.0444L875.801 100.743L865.138 66.0444H845.999L835.336 100.743L825.493 66.0444H803.619L825.493 130.782H844.632L855.568 96.2119L866.505 130.782H885.644L907.517 66.0444H885.644Z" fill="black"/>
<path d="M238.724 231V193.768H250.112C255.798 193.768 260.356 195.484 263.788 198.916C267.255 202.348 268.988 206.837 268.988 212.384C268.988 217.965 267.255 222.472 263.788 225.904C260.356 229.301 255.798 231 250.112 231H238.724ZM243.508 198.344V226.424H250.112C254.446 226.424 257.86 225.193 260.356 222.732C262.852 220.236 264.1 216.787 264.1 212.384C264.1 208.016 262.852 204.584 260.356 202.088C257.86 199.592 254.446 198.344 250.112 198.344H243.508ZM284.524 231.832C280.78 231.832 277.695 230.549 275.268 227.984C272.841 225.419 271.628 222.177 271.628 218.26C271.628 214.377 272.807 211.153 275.164 208.588C277.521 205.988 280.537 204.688 284.212 204.688C287.991 204.688 290.989 205.919 293.208 208.38C295.461 210.807 296.588 214.221 296.588 218.624L296.536 219.144H276.516C276.585 221.64 277.417 223.651 279.012 225.176C280.607 226.701 282.513 227.464 284.732 227.464C287.783 227.464 290.175 225.939 291.908 222.888L296.172 224.968C295.028 227.117 293.433 228.799 291.388 230.012C289.377 231.225 287.089 231.832 284.524 231.832ZM276.88 215.192H291.492C291.353 213.424 290.625 211.968 289.308 210.824C288.025 209.645 286.292 209.056 284.108 209.056C282.305 209.056 280.745 209.611 279.428 210.72C278.145 211.829 277.296 213.32 276.88 215.192ZM312.831 231H308.047L297.751 205.52H302.951L310.439 225.28H310.543L318.135 205.52H323.231L312.831 231ZM337.032 231.832C333.288 231.832 330.202 230.549 327.776 227.984C325.349 225.419 324.136 222.177 324.136 218.26C324.136 214.377 325.314 211.153 327.672 208.588C330.029 205.988 333.045 204.688 336.72 204.688C340.498 204.688 343.497 205.919 345.716 208.38C347.969 210.807 349.096 214.221 349.096 218.624L349.044 219.144H329.024C329.093 221.64 329.925 223.651 331.52 225.176C333.114 226.701 335.021 227.464 337.24 227.464C340.29 227.464 342.682 225.939 344.416 222.888L348.68 224.968C347.536 227.117 345.941 228.799 343.896 230.012C341.885 231.225 339.597 231.832 337.032 231.832ZM329.388 215.192H344C343.861 213.424 343.133 211.968 341.816 210.824C340.533 209.645 338.8 209.056 336.616 209.056C334.813 209.056 333.253 209.611 331.936 210.72C330.653 211.829 329.804 213.32 329.388 215.192ZM358.255 193.768V231H353.471V193.768H358.255ZM362.374 218.26C362.374 214.343 363.605 211.101 366.066 208.536C368.562 205.971 371.699 204.688 375.478 204.688C379.257 204.688 382.377 205.971 384.838 208.536C387.334 211.101 388.582 214.343 388.582 218.26C388.582 222.212 387.334 225.453 384.838 227.984C382.377 230.549 379.257 231.832 375.478 231.832C371.699 231.832 368.562 230.549 366.066 227.984C363.605 225.419 362.374 222.177 362.374 218.26ZM367.158 218.26C367.158 220.999 367.955 223.217 369.55 224.916C371.145 226.615 373.121 227.464 375.478 227.464C377.835 227.464 379.811 226.615 381.406 224.916C383.001 223.217 383.798 220.999 383.798 218.26C383.798 215.556 383.001 213.355 381.406 211.656C379.777 209.923 377.801 209.056 375.478 209.056C373.155 209.056 371.179 209.923 369.55 211.656C367.955 213.355 367.158 215.556 367.158 218.26ZM405.154 227.464C407.442 227.464 409.366 226.597 410.926 224.864C412.486 223.165 413.266 220.964 413.266 218.26C413.266 215.591 412.486 213.389 410.926 211.656C409.366 209.923 407.442 209.056 405.154 209.056C402.831 209.056 400.89 209.923 399.33 211.656C397.804 213.389 397.042 215.591 397.042 218.26C397.042 220.964 397.804 223.183 399.33 224.916C400.89 226.615 402.831 227.464 405.154 227.464ZM405.934 231.832C404.062 231.832 402.346 231.433 400.786 230.636C399.26 229.839 398.082 228.781 397.25 227.464H397.042L397.25 231V242.232H392.466V205.52H397.042V209.056H397.25C398.082 207.739 399.26 206.681 400.786 205.884C402.346 205.087 404.062 204.688 405.934 204.688C409.296 204.688 412.139 206.005 414.462 208.64C416.854 211.309 418.05 214.516 418.05 218.26C418.05 222.039 416.854 225.245 414.462 227.88C412.139 230.515 409.296 231.832 405.934 231.832ZM433.872 231.832C430.128 231.832 427.042 230.549 424.616 227.984C422.189 225.419 420.976 222.177 420.976 218.26C420.976 214.377 422.154 211.153 424.512 208.588C426.869 205.988 429.885 204.688 433.56 204.688C437.338 204.688 440.337 205.919 442.556 208.38C444.809 210.807 445.936 214.221 445.936 218.624L445.884 219.144H425.864C425.933 221.64 426.765 223.651 428.36 225.176C429.954 226.701 431.861 227.464 434.08 227.464C437.13 227.464 439.522 225.939 441.256 222.888L445.52 224.968C444.376 227.117 442.781 228.799 440.736 230.012C438.725 231.225 436.437 231.832 433.872 231.832ZM426.228 215.192H440.84C440.701 213.424 439.973 211.968 438.656 210.824C437.373 209.645 435.64 209.056 433.456 209.056C431.653 209.056 430.093 209.611 428.776 210.72C427.493 211.829 426.644 213.32 426.228 215.192ZM455.094 231H450.31V205.52H454.886V209.68H455.094C455.58 208.328 456.568 207.184 458.058 206.248C459.584 205.277 461.074 204.792 462.53 204.792C463.917 204.792 465.096 205 466.066 205.416L464.61 210.044C464.021 209.801 463.085 209.68 461.802 209.68C460 209.68 458.422 210.408 457.07 211.864C455.753 213.32 455.094 215.019 455.094 216.96V231ZM516.271 213.892C516.271 219.092 514.729 223.235 511.643 226.32C508.177 229.995 503.618 231.832 497.967 231.832C492.559 231.832 487.983 229.96 484.239 226.216C480.495 222.472 478.623 217.861 478.623 212.384C478.623 206.907 480.495 202.296 484.239 198.552C487.983 194.808 492.559 192.936 497.967 192.936C500.706 192.936 503.289 193.421 505.715 194.392C508.142 195.363 510.135 196.732 511.695 198.5L508.263 201.932C507.119 200.545 505.629 199.471 503.791 198.708C501.989 197.911 500.047 197.512 497.967 197.512C493.911 197.512 490.479 198.916 487.671 201.724C484.898 204.567 483.511 208.12 483.511 212.384C483.511 216.648 484.898 220.201 487.671 223.044C490.479 225.852 493.911 227.256 497.967 227.256C501.677 227.256 504.762 226.216 507.223 224.136C509.685 222.056 511.106 219.196 511.487 215.556H497.967V211.084H516.011C516.185 212.055 516.271 212.991 516.271 213.892ZM525.02 231H520.236V205.52H524.812V209.68H525.02C525.506 208.328 526.494 207.184 527.984 206.248C529.51 205.277 531 204.792 532.456 204.792C533.843 204.792 535.022 205 535.992 205.416L534.536 210.044C533.947 209.801 533.011 209.68 531.728 209.68C529.926 209.68 528.348 210.408 526.996 211.864C525.679 213.32 525.02 215.019 525.02 216.96V231ZM536.097 218.26C536.097 214.343 537.327 211.101 539.789 208.536C542.285 205.971 545.422 204.688 549.201 204.688C552.979 204.688 556.099 205.971 558.561 208.536C561.057 211.101 562.305 214.343 562.305 218.26C562.305 222.212 561.057 225.453 558.561 227.984C556.099 230.549 552.979 231.832 549.201 231.832C545.422 231.832 542.285 230.549 539.789 227.984C537.327 225.419 536.097 222.177 536.097 218.26ZM540.881 218.26C540.881 220.999 541.678 223.217 543.273 224.916C544.867 226.615 546.843 227.464 549.201 227.464C551.558 227.464 553.534 226.615 555.129 224.916C556.723 223.217 557.521 220.999 557.521 218.26C557.521 215.556 556.723 213.355 555.129 211.656C553.499 209.923 551.523 209.056 549.201 209.056C546.878 209.056 544.902 209.923 543.273 211.656C541.678 213.355 540.881 215.556 540.881 218.26ZM588.756 231H584.18V227.464H583.972C583.244 228.712 582.118 229.752 580.592 230.584C579.102 231.416 577.542 231.832 575.912 231.832C572.792 231.832 570.383 230.948 568.684 229.18C567.02 227.377 566.188 224.829 566.188 221.536V205.52H570.972V221.224C571.076 225.384 573.174 227.464 577.264 227.464C579.171 227.464 580.766 226.701 582.048 225.176C583.331 223.616 583.972 221.761 583.972 219.612V205.52H588.756V231ZM607.06 227.464C609.348 227.464 611.272 226.597 612.832 224.864C614.392 223.165 615.172 220.964 615.172 218.26C615.172 215.591 614.392 213.389 612.832 211.656C611.272 209.923 609.348 209.056 607.06 209.056C604.737 209.056 602.796 209.923 601.236 211.656C599.711 213.389 598.948 215.591 598.948 218.26C598.948 220.964 599.711 223.183 601.236 224.916C602.796 226.615 604.737 227.464 607.06 227.464ZM607.84 231.832C605.968 231.832 604.252 231.433 602.692 230.636C601.167 229.839 599.988 228.781 599.156 227.464H598.948L599.156 231V242.232H594.372V205.52H598.948V209.056H599.156C599.988 207.739 601.167 206.681 602.692 205.884C604.252 205.087 605.968 204.688 607.84 204.688C611.203 204.688 614.045 206.005 616.368 208.64C618.76 211.309 619.956 214.516 619.956 218.26C619.956 222.039 618.76 225.245 616.368 227.88C614.045 230.515 611.203 231.832 607.84 231.832ZM648.541 199.644L642.457 216.44H654.833L648.749 199.644H648.541ZM637.205 231H631.901L645.941 193.768H651.349L665.389 231H660.085L656.497 220.912H640.845L637.205 231ZM668.924 193.768H673.708V205.52L673.5 209.056H673.708C674.436 207.808 675.545 206.768 677.036 205.936C678.561 205.104 680.138 204.688 681.768 204.688C684.888 204.688 687.28 205.589 688.944 207.392C690.642 209.16 691.492 211.691 691.492 214.984V231H686.708V215.92C686.708 211.344 684.68 209.056 680.624 209.056C678.682 209.056 677.036 209.871 675.684 211.5C674.366 213.095 673.708 214.967 673.708 217.116V231H668.924V193.768ZM701.891 231H697.107V205.52H701.683V209.056H701.891C702.619 207.808 703.729 206.768 705.219 205.936C706.745 205.104 708.253 204.688 709.743 204.688C711.615 204.688 713.262 205.121 714.683 205.988C716.105 206.855 717.145 208.051 717.803 209.576C719.918 206.317 722.847 204.688 726.591 204.688C729.538 204.688 731.809 205.589 733.403 207.392C734.998 209.195 735.795 211.76 735.795 215.088V231H731.011V215.816C731.011 213.424 730.578 211.708 729.711 210.668C728.845 209.593 727.389 209.056 725.343 209.056C723.506 209.056 721.963 209.836 720.715 211.396C719.467 212.956 718.843 214.793 718.843 216.908V231H714.059V215.816C714.059 213.424 713.626 211.708 712.759 210.668C711.893 209.593 710.437 209.056 708.391 209.056C706.554 209.056 705.011 209.836 703.763 211.396C702.515 212.956 701.891 214.793 701.891 216.908V231ZM752.829 231.832C749.085 231.832 745.999 230.549 743.573 227.984C741.146 225.419 739.933 222.177 739.933 218.26C739.933 214.377 741.111 211.153 743.469 208.588C745.826 205.988 748.842 204.688 752.517 204.688C756.295 204.688 759.294 205.919 761.513 208.38C763.766 210.807 764.893 214.221 764.893 218.624L764.841 219.144H744.821C744.89 221.64 745.722 223.651 747.317 225.176C748.911 226.701 750.818 227.464 753.037 227.464C756.087 227.464 758.479 225.939 760.213 222.888L764.477 224.968C763.333 227.117 761.738 228.799 759.693 230.012C757.682 231.225 755.394 231.832 752.829 231.832ZM745.185 215.192H759.797C759.658 213.424 758.93 211.968 757.613 210.824C756.33 209.645 754.597 209.056 752.413 209.056C750.61 209.056 749.05 209.611 747.733 210.72C746.45 211.829 745.601 213.32 745.185 215.192ZM780.961 227.464C783.319 227.464 785.243 226.615 786.733 224.916C788.293 223.217 789.073 220.999 789.073 218.26C789.073 215.591 788.293 213.389 786.733 211.656C785.208 209.923 783.284 209.056 780.961 209.056C778.673 209.056 776.749 209.923 775.189 211.656C773.629 213.389 772.849 215.591 772.849 218.26C772.849 220.964 773.629 223.165 775.189 224.864C776.749 226.597 778.673 227.464 780.961 227.464ZM780.181 231.832C776.853 231.832 773.993 230.515 771.601 227.88C769.244 225.211 768.065 222.004 768.065 218.26C768.065 214.516 769.244 211.309 771.601 208.64C773.993 206.005 776.853 204.688 780.181 204.688C782.053 204.688 783.752 205.087 785.277 205.884C786.837 206.681 788.033 207.739 788.865 209.056H789.073L788.865 205.52V193.768H793.649V231H789.073V227.464H788.865C788.033 228.781 786.837 229.839 785.277 230.636C783.752 231.433 782.053 231.832 780.181 231.832ZM802.712 223.2C802.712 224.448 803.232 225.488 804.272 226.32C805.347 227.152 806.595 227.568 808.016 227.568C810.027 227.568 811.812 226.823 813.372 225.332C814.967 223.841 815.764 222.091 815.764 220.08C814.274 218.901 812.194 218.312 809.524 218.312C807.583 218.312 805.954 218.78 804.636 219.716C803.354 220.652 802.712 221.813 802.712 223.2ZM808.9 204.688C812.436 204.688 815.227 205.641 817.272 207.548C819.318 209.42 820.34 212.003 820.34 215.296V231H815.764V227.464H815.556C813.58 230.376 810.946 231.832 807.652 231.832C804.844 231.832 802.487 231 800.58 229.336C798.708 227.672 797.772 225.592 797.772 223.096C797.772 220.461 798.76 218.364 800.736 216.804C802.747 215.244 805.416 214.464 808.744 214.464C811.587 214.464 813.927 214.984 815.764 216.024V214.932C815.764 213.268 815.106 211.864 813.788 210.72C812.471 209.541 810.928 208.952 809.16 208.952C806.491 208.952 804.376 210.079 802.816 212.332L798.604 209.68C800.927 206.352 804.359 204.688 808.9 204.688ZM839.204 231.832C837.332 231.832 835.616 231.433 834.056 230.636C832.531 229.839 831.352 228.781 830.52 227.464H830.312V231H825.736V193.768H830.52V205.52L830.312 209.056H830.52C831.352 207.739 832.531 206.681 834.056 205.884C835.616 205.087 837.332 204.688 839.204 204.688C842.567 204.688 845.41 206.005 847.732 208.64C850.124 211.309 851.32 214.516 851.32 218.26C851.32 222.039 850.124 225.245 847.732 227.88C845.41 230.515 842.567 231.832 839.204 231.832ZM838.424 227.464C840.712 227.464 842.636 226.597 844.196 224.864C845.756 223.165 846.536 220.964 846.536 218.26C846.536 215.591 845.756 213.389 844.196 211.656C842.636 209.923 840.712 209.056 838.424 209.056C836.102 209.056 834.16 209.923 832.6 211.656C831.075 213.389 830.312 215.591 830.312 218.26C830.312 220.964 831.075 223.183 832.6 224.916C834.16 226.615 836.102 227.464 838.424 227.464ZM859.181 223.2C859.181 224.448 859.701 225.488 860.741 226.32C861.816 227.152 863.064 227.568 864.485 227.568C866.496 227.568 868.281 226.823 869.841 225.332C871.436 223.841 872.233 222.091 872.233 220.08C870.742 218.901 868.662 218.312 865.993 218.312C864.052 218.312 862.422 218.78 861.105 219.716C859.822 220.652 859.181 221.813 859.181 223.2ZM865.369 204.688C868.905 204.688 871.696 205.641 873.741 207.548C875.786 209.42 876.809 212.003 876.809 215.296V231H872.233V227.464H872.025C870.049 230.376 867.414 231.832 864.121 231.832C861.313 231.832 858.956 231 857.049 229.336C855.177 227.672 854.241 225.592 854.241 223.096C854.241 220.461 855.229 218.364 857.205 216.804C859.216 215.244 861.885 214.464 865.213 214.464C868.056 214.464 870.396 214.984 872.233 216.024V214.932C872.233 213.268 871.574 211.864 870.257 210.72C868.94 209.541 867.397 208.952 865.629 208.952C862.96 208.952 860.845 210.079 859.285 212.332L855.073 209.68C857.396 206.352 860.828 204.688 865.369 204.688ZM893.391 227.464C895.748 227.464 897.672 226.615 899.163 224.916C900.723 223.217 901.503 220.999 901.503 218.26C901.503 215.591 900.723 213.389 899.163 211.656C897.638 209.923 895.714 209.056 893.391 209.056C891.103 209.056 889.179 209.923 887.619 211.656C886.059 213.389 885.279 215.591 885.279 218.26C885.279 220.964 886.059 223.165 887.619 224.864C889.179 226.597 891.103 227.464 893.391 227.464ZM892.611 231.832C889.283 231.832 886.423 230.515 884.031 227.88C881.674 225.211 880.495 222.004 880.495 218.26C880.495 214.516 881.674 211.309 884.031 208.64C886.423 206.005 889.283 204.688 892.611 204.688C894.483 204.688 896.182 205.087 897.707 205.884C899.267 206.681 900.463 207.739 901.295 209.056H901.503L901.295 205.52V193.768H906.079V231H901.503V227.464H901.295C900.463 228.781 899.267 229.839 897.707 230.636C896.182 231.433 894.483 231.832 892.611 231.832Z" fill="black"/>
</svg>
