<svg width="2073" height="353" viewBox="0 0 2073 353" fill="none" xmlns="http://www.w3.org/2000/svg">
<path d="M392.815 119.223C384.316 114.007 377.778 107.487 372.548 99.0108C367.318 90.5347 365.357 80.7546 365.357 70.3227C365.357 59.8907 367.972 50.1106 372.548 41.6345C377.778 33.1583 384.316 25.9861 392.815 21.4221C401.314 16.2061 410.467 14.2501 420.927 14.2501C428.774 14.2501 436.619 15.554 443.155 18.1621C450.345 20.7701 455.576 24.6822 460.153 29.8982L450.999 39.0264C447.731 35.1142 443.155 31.8542 437.924 29.2462C432.697 27.2901 426.811 25.9861 420.927 25.9861C413.082 25.9861 406.544 27.9422 400.007 31.2022C393.469 35.1143 388.238 40.3305 384.316 46.8503C380.394 53.3705 378.432 61.1948 378.432 69.6709C378.432 78.1469 380.394 85.9708 384.316 92.491C388.238 99.0108 393.469 104.227 400.007 108.139C406.544 112.051 413.735 113.355 420.927 113.355C428.12 113.355 434.001 112.051 439.232 110.095C443.809 108.139 448.386 104.879 451.654 100.967C454.267 98.359 456.23 94.4468 458.194 90.5347C459.498 86.6226 460.807 82.0586 460.807 77.4947H420.927V65.7587H472.574C473.228 68.3664 473.228 70.9749 473.228 73.5826C473.228 80.1028 471.919 86.623 469.96 93.1428C467.997 99.663 464.729 104.879 460.153 109.443C449.695 119.875 436.619 125.743 420.273 125.743C410.467 126.395 401.314 124.439 392.815 119.223Z" fill="black"/>
<path d="M501.996 121.178C496.115 117.919 491.538 112.702 488.27 106.834C484.998 100.966 483.693 93.7944 483.693 86.6223C483.693 79.4503 484.998 72.2778 488.27 66.4098C491.538 60.5419 496.115 55.3257 501.996 52.0658C507.881 48.8059 514.417 46.8496 521.612 46.8496C528.802 46.8496 535.337 48.8059 541.223 52.0658C547.109 55.3257 551.685 60.5419 554.953 66.4098C558.221 72.2778 559.53 79.4503 559.53 86.6223C559.53 93.7944 558.221 100.966 554.953 106.834C551.685 112.702 547.109 117.919 541.223 121.178C535.337 124.438 528.802 126.395 521.612 126.395C514.417 126.395 507.227 125.091 501.996 121.178ZM534.033 111.398C537.955 108.79 541.223 105.53 543.186 101.618C545.8 97.0543 546.454 92.4903 546.454 86.6223C546.454 80.7543 545.145 76.19 543.186 71.626C540.569 67.0621 537.955 63.8018 534.033 61.8459C530.111 59.2378 526.188 58.586 521.612 58.586C517.035 58.586 513.113 59.89 509.19 61.8459C505.268 64.454 501.996 67.7139 500.037 71.626C497.419 76.19 496.769 80.7543 496.769 86.6223C496.769 92.4903 498.074 97.0543 500.037 101.618C502.65 106.182 505.268 109.442 509.19 111.398C513.113 114.006 517.035 114.658 521.612 114.658C526.188 115.31 530.111 114.006 534.033 111.398Z" fill="black"/>
<path d="M586.988 121.178C581.107 117.919 576.53 112.702 573.262 106.834C569.99 100.966 568.686 93.7944 568.686 86.6223C568.686 79.4503 569.99 72.2778 573.262 66.4098C576.53 60.5419 581.107 55.3257 586.988 52.0658C592.874 48.8059 599.409 46.8496 606.604 46.8496C613.794 46.8496 620.33 48.8059 626.215 52.0658C632.101 55.3257 636.677 60.5419 639.945 66.4098C643.213 72.2778 644.522 79.4503 644.522 86.6223C644.522 93.7944 643.213 100.966 639.945 106.834C636.677 112.702 632.101 117.919 626.215 121.178C620.33 124.438 613.794 126.395 606.604 126.395C599.409 126.395 592.874 125.091 586.988 121.178ZM619.679 111.398C623.602 108.79 626.87 105.53 628.829 101.618C631.446 97.0543 632.101 92.4903 632.101 86.6223C632.101 80.7543 630.792 76.19 628.829 71.626C626.215 67.0621 623.602 63.8018 619.679 61.8459C615.757 59.2378 611.831 58.586 607.258 58.586C602.681 58.586 598.759 59.89 594.833 61.8459C590.91 64.454 587.643 67.7139 585.684 71.626C583.066 76.19 582.411 80.7543 582.411 86.6223C582.411 92.4903 583.72 97.0543 585.684 101.618C588.297 106.182 590.91 109.442 594.833 111.398C598.759 114.006 602.681 114.658 607.258 114.658C611.18 115.31 615.757 114.006 619.679 111.398Z" fill="black"/>
<path d="M668.706 152.475C662.82 147.911 658.898 143.347 656.939 137.478L668.706 132.262C670.015 136.826 672.628 140.086 676.55 142.694C680.473 145.303 685.049 146.607 690.281 146.607C698.125 146.607 704.011 143.999 708.587 139.435C713.164 134.87 715.123 128.35 715.123 119.874V112.05H714.469C711.855 115.962 708.587 119.222 704.011 121.83C699.434 124.438 694.203 125.742 688.972 125.742C682.436 125.742 676.55 123.786 671.319 120.526C666.092 117.266 661.516 112.702 658.248 106.182C654.976 100.314 653.671 93.142 653.671 85.97C653.671 78.1457 654.976 71.6259 658.248 65.7579C661.516 59.8895 666.092 54.6737 671.319 51.4134C676.55 48.1535 682.436 46.1977 688.972 46.1977C694.857 46.1977 700.088 47.5017 704.011 50.1098C708.587 52.7175 711.855 55.9778 714.469 59.8899H715.123V48.8058H727.544V120.526C727.544 129.002 726.24 135.522 722.968 141.39C719.7 147.258 715.123 151.171 709.892 154.43C704.011 157.039 698.125 158.343 690.935 158.343C681.781 158.995 674.591 157.039 668.706 152.475ZM703.356 111.398C707.278 109.442 709.892 106.182 712.51 101.618C714.469 97.706 715.777 92.4902 715.777 86.6222C715.777 80.7538 714.469 76.1898 712.51 71.6259C710.546 67.0615 707.278 63.8016 703.356 61.8458C699.434 59.8895 695.512 58.5855 690.935 58.5855C686.358 58.5855 682.436 59.8895 678.514 61.8458C674.591 63.8016 671.974 67.0615 669.36 71.6259C667.397 75.5376 666.092 80.7538 666.092 86.6222C666.092 92.4902 667.397 97.0541 669.36 101.618C671.323 105.53 674.591 108.79 678.514 111.398C682.436 113.354 686.358 114.658 690.935 114.658C695.512 115.31 699.434 114.006 703.356 111.398Z" fill="black"/>
<path d="M756.315 16.8578H743.239V124.439H756.315V16.8578Z" fill="black"/>
<path d="M785.732 121.178C779.85 117.919 775.928 113.354 772.656 106.834C769.388 100.966 768.079 93.7944 768.079 86.6223C768.079 79.4503 769.388 72.9301 772.656 66.4098C775.928 60.5419 779.85 55.3257 785.732 52.0658C791.617 48.8059 797.503 46.8496 804.693 46.8496C811.883 46.8496 818.423 48.1536 823.65 51.4135C828.881 54.6739 833.458 59.2378 836.075 65.1058C838.689 70.9738 840.648 77.494 840.648 85.3183C840.648 86.6223 840.648 87.9259 840.648 88.5782H781.155C781.155 94.4462 782.464 99.0105 785.077 102.922C787.695 106.834 790.963 109.442 794.231 111.398C798.153 113.354 802.075 114.006 806.002 114.006C815.151 114.006 823 109.442 827.572 100.314L838.689 105.53C835.421 111.398 830.844 116.615 825.613 119.874C819.727 123.787 813.192 125.091 805.347 125.091C798.153 126.395 791.617 125.091 785.732 121.178ZM826.922 78.798C826.922 75.5382 825.613 72.9301 824.304 69.6702C823 66.4098 820.382 63.8018 817.114 61.8459C813.846 59.89 809.269 58.586 804.038 58.586C798.153 58.586 793.576 60.5418 789.654 63.8022C785.732 67.7139 783.118 72.2778 781.809 78.1458H826.922V78.798Z" fill="black"/>
<path d="M889.024 16.8578H921.715C932.828 16.8578 942.635 19.4659 950.48 23.3779C958.979 27.9419 964.865 34.462 969.437 42.286C974.014 50.1103 975.977 59.8904 975.977 70.3223C975.977 80.7547 974.014 89.8826 969.437 98.3587C964.865 106.183 958.979 112.703 950.48 117.267C941.981 121.831 932.828 123.787 921.715 123.787H889.024V16.8578ZM921.715 112.051C934.136 112.051 944.594 108.139 951.789 100.967C958.979 93.7943 962.901 83.3624 962.901 70.3223C962.901 57.2823 958.979 46.85 951.789 39.6779C944.594 32.506 934.136 28.594 921.715 28.594H902.1V112.051H921.715Z" fill="black"/>
<path d="M1005.4 121.178C999.517 117.919 995.595 113.354 992.327 106.834C989.059 100.966 987.75 93.7944 987.75 86.6223C987.75 79.4503 989.059 72.9301 992.327 66.4098C995.595 60.5419 999.517 55.3257 1005.4 52.0658C1011.28 48.8059 1017.17 46.8496 1024.36 46.8496C1031.55 46.8496 1038.09 48.1536 1043.32 51.4135C1048.55 54.6739 1053.12 59.2378 1055.74 65.1058C1058.36 70.9738 1060.32 77.494 1060.32 85.3183C1060.32 86.6223 1060.32 87.9259 1060.32 88.5782H1000.83C1000.83 94.4462 1002.13 99.0105 1004.75 102.922C1007.36 106.834 1010.63 109.442 1013.9 111.398C1017.82 113.354 1021.75 114.006 1025.67 114.006C1034.82 114.006 1042.67 109.442 1047.24 100.314L1058.36 105.53C1055.09 111.398 1050.51 116.615 1045.28 119.874C1039.4 123.787 1032.86 125.091 1025.01 125.091C1017.82 126.395 1011.28 125.091 1005.4 121.178ZM1046.59 78.798C1046.59 75.5382 1045.28 72.9301 1043.98 69.6702C1042.67 66.4098 1040.05 63.8018 1036.78 61.8459C1033.51 59.89 1028.94 58.586 1023.7 58.586C1017.82 58.586 1013.25 60.5418 1009.32 63.8022C1005.4 67.7139 1002.78 72.2778 1001.48 78.1458H1046.59V78.798Z" fill="black"/>
<path d="M1062.93 49.4573H1076.66L1099.54 109.442H1100.19L1123.08 49.4573H1136.81L1106.08 124.438H1093L1062.93 49.4573Z" fill="black"/>
<path d="M1160.34 121.178C1154.45 117.919 1150.53 113.354 1147.26 106.834C1143.99 100.966 1142.69 93.7944 1142.69 86.6223C1142.69 79.4503 1143.99 72.9301 1147.26 66.4098C1150.53 60.5419 1154.45 55.3257 1160.34 52.0658C1166.22 48.8059 1172.11 46.8496 1179.3 46.8496C1186.49 46.8496 1193.03 48.1536 1198.26 51.4135C1203.48 54.6739 1208.06 59.2378 1210.68 65.1058C1213.29 70.9738 1215.25 77.494 1215.25 85.3183C1215.25 86.6223 1215.25 87.9259 1215.25 88.5782H1155.11C1155.11 94.4462 1156.42 99.0105 1159.03 102.922C1161.64 106.834 1164.92 109.442 1168.18 111.398C1172.11 113.354 1176.03 114.006 1179.95 114.006C1189.1 114.006 1196.95 109.442 1201.52 100.314L1212.64 105.53C1209.37 111.398 1204.79 116.615 1199.56 119.874C1193.68 123.787 1187.14 125.091 1179.3 125.091C1172.11 126.395 1165.57 125.091 1160.34 121.178ZM1200.87 78.798C1200.87 75.5382 1199.56 72.9301 1198.26 69.6702C1196.95 66.4098 1194.33 63.8018 1191.06 61.8459C1187.79 59.89 1183.22 58.586 1177.99 58.586C1172.11 58.586 1167.53 60.5418 1163.61 63.8022C1159.68 67.7139 1157.07 72.2778 1155.76 78.1458H1200.87V78.798Z" fill="black"/>
<path d="M1240.75 16.8578H1227.68V124.439H1240.75V16.8578Z" fill="black"/>
<path d="M1270.83 121.178C1264.94 117.919 1260.37 112.702 1257.1 106.834C1253.83 100.966 1252.52 93.7944 1252.52 86.6223C1252.52 79.4503 1253.83 72.2778 1257.1 66.4098C1260.37 60.5419 1264.94 55.3257 1270.83 52.0658C1276.71 48.8059 1283.25 46.8496 1290.44 46.8496C1297.63 46.8496 1304.17 48.8059 1310.05 52.0658C1315.94 55.3257 1320.51 60.5419 1323.78 66.4098C1327.05 72.2778 1328.36 79.4503 1328.36 86.6223C1328.36 93.7944 1327.05 100.966 1323.78 106.834C1320.51 112.702 1315.94 117.919 1310.05 121.178C1304.17 124.438 1297.63 126.395 1290.44 126.395C1283.25 126.395 1276.71 125.091 1270.83 121.178ZM1303.51 111.398C1307.44 108.79 1310.71 105.53 1312.67 101.618C1315.28 97.0543 1315.94 92.4903 1315.94 86.6223C1315.94 80.7543 1314.63 76.19 1312.67 71.626C1310.05 67.0621 1307.44 63.8018 1303.51 61.8459C1299.59 59.2378 1295.67 58.586 1291.09 58.586C1286.51 58.586 1282.59 59.89 1278.67 61.8459C1274.75 64.454 1271.48 67.7139 1269.52 71.626C1266.9 76.19 1266.25 80.7543 1266.25 86.6223C1266.25 92.4903 1267.56 97.0543 1269.52 101.618C1272.13 106.182 1274.75 109.442 1278.67 111.398C1282.59 114.006 1286.51 114.658 1291.09 114.658C1295.01 115.31 1299.59 114.006 1303.51 111.398Z" fill="black"/>
<path d="M1340.78 49.4577H1353.2V60.5418H1353.85C1356.47 56.6297 1359.74 53.3698 1364.31 50.7617C1368.89 48.1536 1374.12 46.8496 1380.01 46.8496C1386.54 46.8496 1392.43 48.8059 1397.66 52.0658C1402.89 55.3257 1407.46 60.5419 1410.73 66.4098C1414 72.2778 1415.31 79.4503 1415.31 86.6223C1415.31 94.4462 1414 100.966 1410.73 106.834C1407.46 112.702 1402.89 117.266 1397.66 121.178C1392.43 124.438 1386.54 126.394 1380.01 126.394C1374.12 126.394 1368.89 125.091 1364.31 122.483C1359.74 119.874 1356.47 116.615 1353.85 112.702H1353.2L1353.85 123.134V156.387H1340.78V49.4577ZM1389.81 111.398C1393.74 108.79 1396.35 105.53 1398.96 101.618C1400.93 97.0543 1402.23 92.4903 1402.23 86.6223C1402.23 80.7543 1400.93 76.19 1398.96 71.626C1397 67.0621 1393.74 63.8018 1389.81 61.8459C1385.89 59.2378 1381.97 58.586 1377.39 58.586C1372.81 58.586 1368.89 59.89 1364.97 61.8459C1361.04 63.8018 1358.43 67.0621 1355.81 71.626C1353.85 76.19 1352.55 80.7543 1352.55 86.6223C1352.55 92.4903 1353.85 97.0543 1355.81 101.618C1357.78 106.182 1361.04 109.442 1364.97 111.398C1368.89 113.354 1372.81 114.658 1377.39 114.658C1381.97 115.31 1385.89 114.006 1389.81 111.398Z" fill="black"/>
<path d="M1444.73 121.178C1438.85 117.919 1434.92 113.354 1431.66 106.834C1428.38 100.966 1427.08 93.7944 1427.08 86.6223C1427.08 79.4503 1428.38 72.9301 1431.66 66.4098C1434.92 60.5419 1438.85 55.3257 1444.73 52.0658C1450.61 48.8059 1456.5 46.8496 1463.69 46.8496C1470.88 46.8496 1477.42 48.1536 1482.65 51.4135C1487.88 54.6739 1492.45 59.2378 1495.07 65.1058C1497.68 70.9738 1499.65 77.494 1499.65 85.3183C1499.65 86.6223 1499.65 87.9259 1499.65 88.5782H1440.15C1440.15 94.4462 1441.46 99.0105 1444.08 102.922C1446.69 106.834 1449.96 109.442 1453.23 111.398C1457.15 113.354 1461.07 114.006 1465 114.006C1474.15 114.006 1481.99 109.442 1486.57 100.314L1497.68 105.53C1494.42 111.398 1489.84 116.615 1484.61 119.874C1478.73 123.787 1472.19 125.091 1464.34 125.091C1457.15 126.395 1450.61 125.091 1444.73 121.178ZM1485.92 78.798C1485.92 75.5382 1484.61 72.9301 1483.3 69.6702C1481.99 66.4098 1479.38 63.8018 1476.11 61.8459C1472.84 59.89 1468.26 58.586 1463.03 58.586C1457.15 58.586 1452.58 60.5418 1448.65 63.8022C1444.73 67.7139 1442.11 72.2778 1440.8 78.1458H1485.92V78.798Z" fill="black"/>
<path d="M1512.07 49.4574H1524.49V61.8456H1525.15C1526.45 57.9334 1529.72 54.0213 1533.65 51.4136C1538.22 48.8056 1542.14 47.5015 1546.72 47.5015C1549.99 47.5015 1552.6 48.1533 1555.22 48.8056V62.4978C1552.6 61.1938 1548.68 60.5415 1544.76 60.5415C1541.49 60.5415 1538.22 61.8456 1534.95 63.8019C1531.68 65.7577 1529.72 68.3658 1527.76 72.2779C1525.8 75.5378 1525.15 79.45 1525.15 83.3621V125.09H1512.07V49.4574Z" fill="black"/>
<path d="M1621.24 119.223C1612.75 114.007 1606.21 107.487 1600.98 99.0108C1595.75 90.5347 1593.79 80.7546 1593.79 70.3227C1593.79 59.8907 1596.4 50.1106 1600.98 41.6345C1606.21 33.1583 1612.75 25.9861 1621.24 21.4221C1629.74 16.2061 1638.9 14.2501 1649.36 14.2501C1657.2 14.2501 1665.05 15.554 1671.58 18.1621C1678.78 20.7701 1684 24.6822 1688.58 29.8982L1679.43 39.0264C1676.16 35.1142 1671.58 31.8542 1666.36 29.2462C1661.13 27.2901 1655.24 25.9861 1649.36 25.9861C1641.51 25.9861 1634.97 27.9422 1628.44 31.2022C1621.9 35.1143 1616.67 40.3305 1612.75 46.8503C1608.82 53.3705 1606.86 61.1948 1606.86 69.6709C1606.86 78.1469 1608.82 85.9708 1612.75 92.491C1616.67 99.0108 1621.9 104.227 1628.44 108.139C1634.97 112.051 1642.16 113.355 1649.36 113.355C1656.55 113.355 1662.43 112.051 1667.66 110.095C1672.24 108.139 1676.81 104.879 1680.08 100.967C1682.7 98.359 1684.66 94.4468 1686.62 90.5347C1687.93 86.6226 1689.24 82.0586 1689.24 77.4947H1649.36V65.7587H1701C1701.66 68.3664 1701.66 70.9749 1701.66 73.5826C1701.66 80.1028 1700.35 86.623 1698.39 93.1428C1696.43 99.663 1693.16 104.879 1688.58 109.443C1678.12 119.875 1665.05 125.743 1648.7 125.743C1639.55 126.395 1629.74 124.439 1621.24 119.223Z" fill="black"/>
<path d="M1716.69 49.4574H1729.12V61.8456H1729.77C1731.08 57.9334 1734.35 54.0213 1738.27 51.4136C1742.85 48.8056 1746.77 47.5015 1751.34 47.5015C1754.61 47.5015 1757.23 48.1533 1759.84 48.8056V62.4978C1757.23 61.1938 1753.31 60.5415 1749.39 60.5415C1746.12 60.5415 1742.85 61.8456 1739.58 63.8019C1736.31 65.7577 1734.35 68.3658 1732.39 72.2779C1730.42 75.5378 1729.77 79.45 1729.77 83.3621V125.09H1716.69V49.4574Z" fill="black"/>
<path d="M1780.11 121.178C1774.23 117.919 1769.65 112.702 1766.38 106.834C1763.11 100.966 1761.8 93.7944 1761.8 86.6223C1761.8 79.4503 1763.11 72.2778 1766.38 66.4098C1769.65 60.5419 1774.23 55.3257 1780.11 52.0658C1785.99 48.8059 1792.53 46.8496 1799.72 46.8496C1806.91 46.8496 1813.45 48.8059 1819.33 52.0658C1825.22 55.3257 1829.8 60.5419 1833.06 66.4098C1836.33 72.2778 1837.64 79.4503 1837.64 86.6223C1837.64 93.7944 1836.33 100.966 1833.06 106.834C1829.8 112.702 1825.22 117.919 1819.33 121.178C1813.45 124.438 1806.91 126.395 1799.72 126.395C1792.53 126.395 1785.99 125.091 1780.11 121.178ZM1812.8 111.398C1816.72 108.79 1819.99 105.53 1821.95 101.618C1824.57 97.0543 1825.22 92.4903 1825.22 86.6223C1825.22 80.7543 1823.91 76.19 1821.95 71.626C1819.33 67.0621 1816.72 63.8018 1812.8 61.8459C1808.88 59.2378 1804.95 58.586 1800.38 58.586C1795.8 58.586 1791.88 59.89 1787.95 61.8459C1784.03 64.454 1780.76 67.7139 1778.8 71.626C1776.19 76.19 1775.53 80.7543 1775.53 86.6223C1775.53 92.4903 1776.84 97.0543 1778.8 101.618C1781.42 106.182 1784.03 109.442 1787.95 111.398C1791.88 114.006 1795.8 114.658 1800.38 114.658C1804.3 115.31 1808.88 114.006 1812.8 111.398Z" fill="black"/>
<path d="M1857.26 118.57C1852.68 113.354 1850.07 106.182 1850.07 96.4021V49.4573H1863.14V94.4458C1863.14 108.138 1869.03 115.31 1881.45 115.31C1885.37 115.31 1889.29 114.006 1892.56 112.05C1895.83 109.442 1898.45 106.834 1900.4 102.922C1902.37 99.0101 1903.02 95.098 1903.02 91.1859V50.1095H1915.44V124.438H1903.68V113.354H1903.02C1901.06 117.266 1897.79 120.526 1893.21 123.134C1888.64 125.742 1884.06 127.046 1878.83 127.046C1869.03 126.394 1861.83 123.786 1857.26 118.57Z" fill="black"/>
<path d="M1931.78 49.4577H1944.2V60.5418H1944.86C1947.47 56.6297 1950.74 53.3698 1955.32 50.7617C1959.89 48.1536 1965.12 46.8496 1971.01 46.8496C1977.55 46.8496 1983.43 48.8059 1988.66 52.0658C1993.89 55.3257 1998.47 60.5419 2001.73 66.4098C2005 72.2778 2006.31 79.4503 2006.31 86.6223C2006.31 94.4462 2005 100.966 2001.73 106.834C1998.47 112.702 1993.89 117.266 1988.66 121.178C1983.43 124.438 1977.55 126.394 1971.01 126.394C1965.12 126.394 1959.89 125.091 1955.32 122.483C1950.74 119.874 1947.47 116.615 1944.86 112.702H1944.2L1944.86 123.134V156.387H1931.78V49.4577ZM1980.81 111.398C1984.74 108.79 1987.35 105.53 1989.97 101.618C1991.93 97.0543 1993.23 92.4903 1993.23 86.6223C1993.23 80.7543 1991.93 76.19 1989.97 71.626C1988 67.0621 1984.74 63.8018 1980.81 61.8459C1976.89 59.2378 1972.97 58.586 1968.39 58.586C1963.82 58.586 1959.89 59.89 1955.97 61.8459C1952.05 63.8018 1949.43 67.0621 1946.82 71.626C1944.86 76.19 1943.55 80.7543 1943.55 86.6223C1943.55 92.4903 1944.86 97.0543 1946.82 101.618C1948.78 106.182 1952.05 109.442 1955.97 111.398C1959.89 113.354 1963.82 114.658 1968.39 114.658C1972.97 115.31 1977.55 114.006 1980.81 111.398Z" fill="black"/>
<path d="M2024.62 120.526C2019.39 116.614 2015.47 111.398 2012.85 105.53L2023.96 100.314C2025.93 104.878 2028.54 108.79 2032.46 111.398C2036.39 114.006 2040.31 115.31 2044.23 115.31C2048.81 115.31 2052.73 114.006 2056 112.05C2059.27 110.094 2060.58 107.486 2060.58 104.226C2060.58 101.618 2059.27 99.01 2057.31 97.0541C2054.69 95.0979 2050.77 93.7938 2044.89 91.838L2034.43 89.2299C2028.54 87.9258 2023.96 85.3177 2020.04 82.0578C2016.12 78.7979 2014.16 74.234 2014.16 68.3656C2014.16 63.8016 2015.47 59.8899 2018.08 56.6296C2020.7 53.3697 2023.96 50.7616 2028.54 48.8058C2033.12 46.8495 2037.69 46.1977 2042.93 46.1977C2049.46 46.1977 2055.35 47.5017 2060.58 50.7616C2065.81 54.0219 2069.73 57.9336 2071.69 63.1498L2060.58 67.7138C2059.27 63.8016 2056.66 61.1935 2053.38 59.8899C2050.12 57.9336 2046.19 57.2818 2042.27 57.2818C2038.35 57.2818 2035.08 57.9336 2031.81 59.8899C2028.54 61.8458 2027.23 64.4539 2027.23 67.062C2027.23 69.6701 2028.54 71.6259 2030.51 72.9299C2032.46 74.234 2035.73 75.538 2040.31 76.8421L2051.43 79.4497C2058.62 81.406 2064.5 84.0137 2067.77 87.9258C2071.69 91.838 2073 96.4019 2073 101.618C2073 106.182 2071.69 110.094 2069.08 113.354C2066.46 116.614 2063.19 119.874 2058.62 121.83C2054.04 123.786 2048.81 125.09 2043.58 125.09C2037.04 126.395 2029.85 124.438 2024.62 120.526Z" fill="black"/>
<path d="M71.8201 72.2767L120.199 44.2404C131.313 37.7202 135.236 23.3761 128.698 11.64C122.16 0.55587 107.778 -3.3562 96.0099 3.16383L12.3276 51.4124L71.8201 72.2767Z" fill="#EA4335"/>
<path d="M107.775 143.343C116.274 143.343 124.12 138.779 128.042 131.606C134.58 120.522 130.657 105.526 119.543 99.0059L35.8607 50.7575C24.7467 44.2377 9.71005 48.1494 3.17239 59.2335C-3.3653 70.3177 0.55742 85.314 11.6714 91.8338L95.3535 140.082C99.9298 142.69 103.852 143.343 107.775 143.343Z" fill="#4285F4"/>
<path d="M190.802 143.347C194.725 143.347 198.648 142.043 202.57 140.087L286.252 91.8382L228.067 70.3221L179.034 98.3585C167.92 104.879 163.998 119.223 170.535 130.959C175.112 139.435 182.957 143.347 190.802 143.347Z" fill="#FBBC04"/>
<path d="M274.485 95.7487C282.984 95.7487 290.829 91.1847 294.751 84.0127C301.289 72.9285 297.366 57.9322 286.252 51.4124L202.57 3.16386C191.456 -3.35622 176.419 0.555859 169.882 11.6399C163.344 22.724 167.267 37.7202 178.381 44.2404L262.063 92.4888C265.986 94.4446 270.562 95.7487 274.485 95.7487Z" fill="#0F9D58"/>
<path d="M537.482 310.962C533.19 316.131 528.128 320.088 522.297 322.834C516.466 325.5 509.947 326.832 502.74 326.832C496.261 326.832 490.228 325.661 484.64 323.319C479.133 320.977 474.355 317.787 470.306 313.748C466.257 309.71 463.058 304.945 460.71 299.453C458.361 293.88 457.187 287.904 457.187 281.523C457.187 275.143 458.361 269.206 460.71 263.714C463.058 258.142 466.257 253.336 470.306 249.298C474.355 245.26 479.133 242.069 484.64 239.727C490.228 237.385 496.261 236.214 502.74 236.214C509.704 236.214 515.819 237.425 521.083 239.848C526.427 242.271 531.165 245.785 535.295 250.388L523.755 261.534C521.164 258.545 518.167 256.163 514.766 254.386C511.446 252.609 507.477 251.721 502.861 251.721C498.812 251.721 495.006 252.448 491.443 253.902C487.88 255.275 484.762 257.253 482.089 259.838C479.498 262.422 477.433 265.572 475.894 269.287C474.355 272.922 473.586 277 473.586 281.523C473.586 286.046 474.355 290.165 475.894 293.88C477.433 297.515 479.498 300.624 482.089 303.208C484.762 305.793 487.88 307.812 491.443 309.266C495.006 310.639 498.812 311.325 502.861 311.325C507.72 311.325 512.012 310.356 515.738 308.418C519.544 306.399 522.905 303.572 525.82 299.938L537.482 310.962Z" fill="#0F9D58"/>
<path d="M547.517 324.894V238.152H563.43V324.894H547.517Z" fill="#0F9D58"/>
<path d="M604.644 263.593C609.26 263.593 613.471 264.401 617.277 266.016C621.164 267.551 624.485 269.731 627.238 272.558C630.072 275.304 632.259 278.616 633.798 282.492C635.417 286.369 636.227 290.609 636.227 295.213C636.227 299.816 635.417 304.056 633.798 307.933C632.259 311.81 630.072 315.162 627.238 317.988C624.485 320.734 621.164 322.915 617.277 324.53C613.471 326.065 609.26 326.832 604.644 326.832C600.028 326.832 595.776 326.065 591.889 324.53C588.083 322.915 584.762 320.734 581.928 317.988C579.175 315.162 576.988 311.81 575.368 307.933C573.83 304.056 573.06 299.816 573.06 295.213C573.06 290.609 573.83 286.369 575.368 282.492C576.988 278.616 579.175 275.304 581.928 272.558C584.762 269.731 588.083 267.551 591.889 266.016C595.776 264.401 600.028 263.593 604.644 263.593ZM604.644 312.173C606.668 312.173 608.612 311.81 610.474 311.083C612.418 310.275 614.119 309.145 615.576 307.691C617.034 306.237 618.168 304.46 618.978 302.36C619.869 300.261 620.314 297.878 620.314 295.213C620.314 292.548 619.869 290.165 618.978 288.065C618.168 285.965 617.034 284.188 615.576 282.735C614.119 281.281 612.418 280.19 610.474 279.464C608.612 278.656 606.668 278.252 604.644 278.252C602.538 278.252 600.554 278.656 598.691 279.464C596.829 280.19 595.169 281.281 593.711 282.735C592.253 284.188 591.079 285.965 590.188 288.065C589.378 290.165 588.974 292.548 588.974 295.213C588.974 297.878 589.378 300.261 590.188 302.36C591.079 304.46 592.253 306.237 593.711 307.691C595.169 309.145 596.829 310.275 598.691 311.083C600.554 311.81 602.538 312.173 604.644 312.173Z" fill="#0F9D58"/>
<path d="M687.039 317.14H686.067C684.204 320.129 681.694 322.511 678.535 324.288C675.377 325.984 671.773 326.832 667.724 326.832C660.193 326.832 654.564 324.53 650.839 319.927C647.195 315.323 645.373 309.185 645.373 301.512V265.532H661.286V299.574C661.286 303.855 662.217 307.045 664.08 309.145C666.023 311.164 668.817 312.173 672.462 312.173C674.648 312.173 676.551 311.729 678.171 310.841C679.872 309.872 681.289 308.62 682.423 307.085C683.637 305.47 684.528 303.612 685.095 301.512C685.743 299.332 686.067 297.03 686.067 294.607V265.532H701.98V324.894H687.039V317.14Z" fill="#0F9D58"/>
<path d="M759.357 317.746H758.385C756.927 320.25 754.66 322.39 751.582 324.167C748.505 325.944 744.699 326.832 740.164 326.832C736.358 326.832 732.713 326.065 729.231 324.53C725.83 322.915 722.793 320.734 720.121 317.988C717.529 315.162 715.464 311.81 713.925 307.933C712.387 304.056 711.617 299.816 711.617 295.213C711.617 290.609 712.387 286.369 713.925 282.492C715.464 278.616 717.529 275.304 720.121 272.558C722.793 269.731 725.83 267.551 729.231 266.016C732.713 264.401 736.358 263.593 740.164 263.593C744.699 263.593 748.505 264.482 751.582 266.259C754.66 268.035 756.927 270.176 758.385 272.679H759.357L758.385 264.199V238.152H774.298V324.894H759.357V317.746ZM743.444 312.173C745.549 312.173 747.533 311.81 749.396 311.083C751.339 310.275 753.04 309.145 754.498 307.691C755.955 306.237 757.13 304.46 758.021 302.36C758.911 300.261 759.357 297.878 759.357 295.213C759.357 292.548 758.911 290.165 758.021 288.065C757.13 285.965 755.955 284.188 754.498 282.735C753.04 281.281 751.339 280.19 749.396 279.464C747.533 278.656 745.549 278.252 743.444 278.252C741.338 278.252 739.313 278.656 737.37 279.464C735.507 280.271 733.847 281.402 732.389 282.856C730.932 284.309 729.758 286.086 728.867 288.186C727.976 290.286 727.53 292.628 727.53 295.213C727.53 297.797 727.976 300.139 728.867 302.239C729.758 304.339 730.932 306.116 732.389 307.57C733.847 309.024 735.507 310.154 737.37 310.962C739.313 311.77 741.338 312.173 743.444 312.173Z" fill="#0F9D58"/>
<path d="M874.917 280.513C874.917 290.579 866.735 298.738 856.642 298.738C846.549 298.738 838.367 290.579 838.367 280.513C838.367 270.447 846.549 262.287 856.642 262.287C866.735 262.287 874.917 270.447 874.917 280.513Z" fill="#2F2E41"/>
<path d="M1022.99 285.036C1022.99 297.151 1019.38 306.802 1012.17 313.991C1004.08 322.552 993.426 326.832 980.226 326.832C967.593 326.832 956.903 322.471 948.157 313.748C939.411 305.026 935.038 294.284 935.038 281.523C935.038 268.762 939.411 258.02 948.157 249.298C956.903 240.575 967.593 236.214 980.226 236.214C986.624 236.214 992.657 237.345 998.326 239.606C1003.99 241.868 1008.65 245.058 1012.3 249.177L1004.28 257.172C1001.61 253.942 998.123 251.438 993.831 249.661C989.62 247.804 985.085 246.875 980.226 246.875C970.751 246.875 962.734 250.146 956.174 256.688C949.696 263.311 946.456 271.589 946.456 281.523C946.456 291.457 949.696 299.736 956.174 306.358C962.734 312.9 970.751 316.171 980.226 316.171C988.891 316.171 996.099 313.748 1001.85 308.902C1007.6 304.056 1010.92 297.393 1011.81 288.913H980.226V278.494H1022.38C1022.78 280.756 1022.99 282.936 1022.99 285.036Z" fill="black"/>
<path d="M1040.98 306.722C1040.98 309.629 1042.19 312.052 1044.62 313.991C1047.13 315.929 1050.05 316.898 1053.37 316.898C1058.07 316.898 1062.24 315.162 1065.88 311.689C1069.61 308.216 1071.47 304.137 1071.47 299.453C1067.99 296.707 1063.13 295.334 1056.89 295.334C1052.36 295.334 1048.55 296.424 1045.47 298.605C1042.48 300.786 1040.98 303.491 1040.98 306.722ZM1055.44 263.593C1063.7 263.593 1070.21 265.814 1074.99 270.256C1079.77 274.618 1082.16 280.635 1082.16 288.307V324.894H1071.47V316.656H1070.98C1066.37 323.44 1060.21 326.832 1052.52 326.832C1045.96 326.832 1040.45 324.894 1036 321.017C1031.63 317.14 1029.44 312.295 1029.44 306.479C1029.44 300.341 1031.75 295.455 1036.36 291.821C1041.06 288.186 1047.3 286.369 1055.07 286.369C1061.71 286.369 1067.18 287.58 1071.47 290.003V287.459C1071.47 283.583 1069.93 280.312 1066.85 277.646C1063.78 274.9 1060.17 273.527 1056.04 273.527C1049.81 273.527 1044.87 276.152 1041.22 281.402L1031.38 275.223C1036.81 267.47 1044.83 263.593 1055.44 263.593Z" fill="black"/>
<path d="M1094.76 265.532H1105.45V273.77H1105.94C1107.64 270.862 1110.23 268.439 1113.71 266.501C1117.28 264.562 1120.96 263.593 1124.77 263.593C1132.06 263.593 1137.64 265.693 1141.53 269.893C1145.5 274.012 1147.48 279.908 1147.48 287.58V324.894H1136.31V288.307C1136.07 278.616 1131.17 273.77 1121.61 273.77C1117.16 273.77 1113.43 275.587 1110.43 279.221C1107.44 282.775 1105.94 287.055 1105.94 292.063V324.894H1094.76V265.532Z" fill="black"/>
<path d="M1187.33 316.656C1192.83 316.656 1197.33 314.677 1200.81 310.72C1204.46 306.762 1206.28 301.593 1206.28 295.213C1206.28 288.994 1204.46 283.865 1200.81 279.827C1197.25 275.789 1192.75 273.77 1187.33 273.77C1181.98 273.77 1177.49 275.789 1173.84 279.827C1170.2 283.865 1168.38 288.994 1168.38 295.213C1168.38 301.512 1170.2 306.641 1173.84 310.598C1177.49 314.637 1181.98 316.656 1187.33 316.656ZM1185.51 326.832C1177.73 326.832 1171.05 323.763 1165.46 317.625C1159.95 311.406 1157.2 303.935 1157.2 295.213C1157.2 286.49 1159.95 279.019 1165.46 272.8C1171.05 266.662 1177.73 263.593 1185.51 263.593C1189.88 263.593 1193.85 264.522 1197.41 266.38C1201.05 268.237 1203.85 270.701 1205.79 273.77H1206.28L1205.79 265.532V238.152H1216.97V324.894H1206.28V316.656H1205.79C1203.85 319.725 1201.05 322.188 1197.41 324.046C1193.85 325.903 1189.88 326.832 1185.51 326.832Z" fill="black"/>
<path d="M1230.59 238.152H1241.77V265.532L1241.28 273.77H1241.77C1243.47 270.862 1246.06 268.439 1249.54 266.501C1253.11 264.562 1256.79 263.593 1260.6 263.593C1267.89 263.593 1273.47 265.693 1277.36 269.893C1281.33 274.012 1283.31 279.908 1283.31 287.58V324.894H1272.14V289.761C1272.14 279.1 1267.4 273.77 1257.92 273.77C1253.39 273.77 1249.54 275.668 1246.38 279.464C1243.31 283.179 1241.77 287.54 1241.77 292.548V324.894H1230.59V238.152Z" fill="black"/>
<path d="M1310.89 245.058C1310.89 247.238 1310.12 249.096 1308.58 250.63C1307.04 252.165 1305.18 252.932 1302.99 252.932C1300.8 252.932 1298.94 252.165 1297.4 250.63C1295.86 249.096 1295.09 247.238 1295.09 245.058C1295.09 242.877 1295.86 241.019 1297.4 239.485C1298.94 237.95 1300.8 237.183 1302.99 237.183C1305.18 237.183 1307.04 237.95 1308.58 239.485C1310.12 241.019 1310.89 242.877 1310.89 245.058ZM1308.58 265.532V324.894H1297.4V265.532H1308.58Z" fill="black"/>
<path d="M1323.12 265.532H1333.81V273.77H1334.3C1336 270.862 1338.59 268.439 1342.07 266.501C1345.64 264.562 1349.32 263.593 1353.13 263.593C1360.42 263.593 1366 265.693 1369.89 269.893C1373.86 274.012 1375.84 279.908 1375.84 287.58V324.894H1364.67V288.307C1364.42 278.616 1359.52 273.77 1349.97 273.77C1345.51 273.77 1341.79 275.587 1338.79 279.221C1335.8 282.775 1334.3 287.055 1334.3 292.063V324.894H1323.12V265.532Z" fill="black"/>
<path d="M1396.51 306.722C1396.51 309.629 1397.72 312.052 1400.15 313.991C1402.66 315.929 1405.58 316.898 1408.9 316.898C1413.59 316.898 1417.76 315.162 1421.41 311.689C1425.13 308.216 1427 304.137 1427 299.453C1423.51 296.707 1418.66 295.334 1412.42 295.334C1407.88 295.334 1404.08 296.424 1401 298.605C1398 300.786 1396.51 303.491 1396.51 306.722ZM1410.96 263.593C1419.22 263.593 1425.74 265.814 1430.52 270.256C1435.3 274.618 1437.69 280.635 1437.69 288.307V324.894H1427V316.656H1426.51C1421.89 323.44 1415.74 326.832 1408.05 326.832C1401.49 326.832 1395.98 324.894 1391.53 321.017C1387.15 317.14 1384.97 312.295 1384.97 306.479C1384.97 300.341 1387.27 295.455 1391.89 291.821C1396.59 288.186 1402.82 286.369 1410.6 286.369C1417.24 286.369 1422.7 287.58 1427 290.003V287.459C1427 283.583 1425.46 280.312 1422.38 277.646C1419.3 274.9 1415.7 273.527 1411.57 273.527C1405.33 273.527 1400.39 276.152 1396.75 281.402L1386.91 275.223C1392.34 267.47 1400.35 263.593 1410.96 263.593Z" fill="black"/>
<path d="M1476.42 316.656C1481.93 316.656 1486.42 314.677 1489.91 310.72C1493.55 306.762 1495.37 301.593 1495.37 295.213C1495.37 288.994 1493.55 283.865 1489.91 279.827C1486.34 275.789 1481.85 273.77 1476.42 273.77C1471.08 273.77 1466.58 275.789 1462.94 279.827C1459.29 283.865 1457.47 288.994 1457.47 295.213C1457.47 301.512 1459.29 306.641 1462.94 310.598C1466.58 314.637 1471.08 316.656 1476.42 316.656ZM1476.06 353C1472.74 353 1469.62 352.556 1466.7 351.667C1463.79 350.86 1461.12 349.689 1458.69 348.154C1456.34 346.62 1454.31 344.802 1452.61 342.702C1450.91 340.603 1449.62 338.26 1448.73 335.676L1459.29 331.315C1460.51 334.788 1462.61 337.574 1465.61 339.674C1468.61 341.774 1472.09 342.824 1476.06 342.824C1482.13 342.824 1486.87 341.006 1490.27 337.372C1493.67 333.738 1495.37 328.73 1495.37 322.35V316.656H1494.89C1492.78 319.806 1489.91 322.309 1486.26 324.167C1482.7 325.944 1478.81 326.832 1474.6 326.832C1466.83 326.832 1460.14 323.803 1454.56 317.746C1449.05 311.527 1446.3 304.016 1446.3 295.213C1446.3 286.409 1449.05 278.939 1454.56 272.8C1460.14 266.662 1466.83 263.593 1474.6 263.593C1478.81 263.593 1482.7 264.522 1486.26 266.38C1489.91 268.156 1492.78 270.62 1494.89 273.77H1495.37V265.532H1506.06V322.35C1506.06 331.88 1503.35 339.351 1497.92 344.762C1492.42 350.254 1485.13 353 1476.06 353Z" fill="black"/>
<path d="M1527.23 306.722C1527.23 309.629 1528.45 312.052 1530.88 313.991C1533.39 315.929 1536.3 316.898 1539.62 316.898C1544.32 316.898 1548.49 315.162 1552.14 311.689C1555.86 308.216 1557.72 304.137 1557.72 299.453C1554.24 296.707 1549.38 295.334 1543.15 295.334C1538.61 295.334 1534.81 296.424 1531.73 298.605C1528.73 300.786 1527.23 303.491 1527.23 306.722ZM1541.69 263.593C1549.95 263.593 1556.47 265.814 1561.25 270.256C1566.02 274.618 1568.41 280.635 1568.41 288.307V324.894H1557.72V316.656H1557.24C1552.62 323.44 1546.47 326.832 1538.77 326.832C1532.21 326.832 1526.71 324.894 1522.25 321.017C1517.88 317.14 1515.69 312.295 1515.69 306.479C1515.69 300.341 1518 295.455 1522.62 291.821C1527.31 288.186 1533.55 286.369 1541.32 286.369C1547.97 286.369 1553.43 287.58 1557.72 290.003V287.459C1557.72 283.583 1556.19 280.312 1553.11 277.646C1550.03 274.9 1546.43 273.527 1542.3 273.527C1536.06 273.527 1531.12 276.152 1527.48 281.402L1517.64 275.223C1523.06 267.47 1531.08 263.593 1541.69 263.593Z" fill="black"/>
<path d="M1592.19 324.894H1581.02V265.532H1591.71V275.223H1592.19C1593.33 272.074 1595.64 269.408 1599.12 267.228C1602.68 264.966 1606.16 263.836 1609.57 263.836C1612.8 263.836 1615.56 264.32 1617.83 265.289L1614.42 276.071C1613.05 275.506 1610.86 275.223 1607.86 275.223C1603.65 275.223 1599.97 276.919 1596.81 280.312C1593.73 283.704 1592.19 287.661 1592.19 292.184V324.894Z" fill="black"/>
</svg>
