<svg viewBox="0 0 432 64" xmlns="http://www.w3.org/2000/svg">
<path class="cls-5" d="M 167.557 14.724 C 169.045 14.724 170.262 14.976 171.212 15.481 L 170.096 19.094 C 169.385 18.734 168.581 18.561 167.687 18.561 C 166.673 18.561 165.849 18.91 165.209 19.608 C 164.57 20.307 164.25 21.238 164.25 22.397 L 164.25 25.158 L 169.962 25.158 L 169.962 28.908 L 164.25 28.908 L 164.25 47.021 L 160.147 47.021 L 160.147 28.908 L 156.045 28.908 L 156.045 25.158 L 160.147 25.158 L 160.147 21.994 C 160.147 19.819 160.84 18.065 162.222 16.725 C 163.605 15.389 165.385 14.72 167.551 14.72 L 167.557 14.724 Z" style="fill: rgb(95, 99, 104);"></path>
<path class="cls-5" d="M 170.936 36.094 C 170.936 32.735 171.995 29.955 174.102 27.753 C 176.246 25.555 178.939 24.451 182.177 24.451 C 185.414 24.451 188.098 25.555 190.206 27.753 C 192.35 29.955 193.418 32.735 193.418 36.094 C 193.418 39.456 192.345 42.268 190.206 44.437 C 188.094 46.637 185.414 47.736 182.177 47.736 C 178.939 47.736 176.24 46.637 174.102 44.437 C 171.989 42.234 170.936 39.456 170.936 36.094 Z M 175.039 36.094 C 175.039 38.445 175.724 40.347 177.09 41.808 C 178.457 43.268 180.155 43.994 182.177 43.994 C 184.199 43.994 185.896 43.268 187.263 41.808 C 188.631 40.351 189.315 38.445 189.315 36.094 C 189.315 33.742 188.631 31.886 187.263 30.432 C 185.867 28.943 184.171 28.201 182.177 28.201 C 180.185 28.201 178.486 28.943 177.09 30.432 C 175.724 31.891 175.039 33.777 175.039 36.094 Z" style="fill: rgb(95, 99, 104);"></path>
<path class="cls-5" d="M 200.44 47.025 L 196.336 47.025 L 196.336 25.164 L 200.263 25.164 L 200.263 28.736 L 200.444 28.736 C 200.861 27.575 201.715 26.585 203.008 25.766 C 204.303 24.946 205.574 24.54 206.824 24.54 C 208.077 24.54 209.028 24.72 209.862 25.073 L 208.61 29.044 C 208.108 28.836 207.301 28.736 206.2 28.736 C 204.654 28.736 203.303 29.358 202.161 30.607 C 201.015 31.857 200.444 33.312 200.444 34.98 L 200.444 47.025 L 200.44 47.025 Z" style="fill: rgb(95, 99, 104);"></path>
<path class="cls-5" d="M 223.054 47.025 L 223.054 15.084 L 232.827 15.084 C 237.706 15.084 241.622 16.556 244.58 19.5 C 247.54 22.444 249.017 26.3 249.017 31.056 C 249.017 35.813 247.54 39.704 244.58 42.631 C 241.622 45.559 237.706 47.025 232.827 47.025 L 223.054 47.025 Z M 227.159 19.008 L 227.159 43.098 L 232.824 43.098 C 236.542 43.098 239.47 42.037 241.608 39.907 C 243.753 37.783 244.817 34.83 244.817 31.052 C 244.817 27.276 243.745 24.362 241.608 22.216 C 239.466 20.072 236.535 19.008 232.824 19.008 L 227.159 19.008 Z" style="fill: rgb(95, 99, 104);"></path>
<path class="cls-5" d="M 262.339 47.736 C 259.131 47.736 256.482 46.637 254.396 44.437 C 252.316 42.234 251.273 39.456 251.273 36.094 C 251.273 32.735 252.28 29.989 254.309 27.774 C 256.329 25.558 258.923 24.451 262.073 24.451 C 265.227 24.451 267.897 25.496 269.811 27.597 C 271.732 29.696 272.688 32.634 272.688 36.411 L 272.645 36.857 L 255.468 36.857 C 255.525 39.001 256.237 40.722 257.613 42.03 C 258.979 43.339 260.613 43.994 262.519 43.994 C 265.138 43.994 267.188 42.684 268.677 40.067 L 272.334 41.851 C 271.353 43.694 269.991 45.139 268.25 46.177 C 266.508 47.213 264.542 47.736 262.339 47.736 Z M 255.783 33.463 L 268.32 33.463 C 268.198 31.943 267.581 30.687 266.467 29.696 C 265.352 28.701 263.856 28.201 261.981 28.201 C 260.432 28.201 259.105 28.676 257.991 29.627 C 256.876 30.576 256.136 31.857 255.783 33.463 Z" style="fill: rgb(95, 99, 104);"></path>
<path class="cls-5" d="M 285.395 47.025 L 281.294 47.025 L 272.459 25.164 L 276.92 25.164 L 283.346 42.116 L 283.433 42.116 L 289.946 25.164 L 294.319 25.164 L 285.395 47.025 Z" style="fill: rgb(95, 99, 104);"></path>
<path class="cls-5" d="M 305.099 47.736 C 301.889 47.736 299.241 46.637 297.156 44.437 C 295.077 42.234 294.032 39.456 294.032 36.094 C 294.032 32.735 295.042 29.989 297.069 27.774 C 299.091 25.558 301.681 24.451 304.833 24.451 C 307.987 24.451 310.658 25.496 312.572 27.597 C 314.492 29.696 315.447 32.634 315.447 36.411 L 315.403 36.857 L 298.227 36.857 C 298.287 39.001 298.999 40.722 300.369 42.03 C 301.739 43.339 303.374 43.994 305.278 43.994 C 307.899 43.994 309.949 42.684 311.438 40.067 L 315.094 41.851 C 314.114 43.694 312.751 45.139 311.013 46.177 C 309.268 47.213 307.302 47.736 305.099 47.736 Z M 298.544 33.463 L 311.079 33.463 C 310.957 31.943 310.341 30.687 309.226 29.696 C 308.11 28.701 306.619 28.201 304.743 28.201 C 303.195 28.201 301.865 28.676 300.75 29.627 C 299.633 30.576 298.897 31.857 298.544 33.463 Z" style="fill: rgb(95, 99, 104);"></path>
<path class="cls-5" d="M 322.47 15.084 L 322.47 47.025 L 318.368 47.025 L 318.368 15.084 L 322.47 15.084 Z" style="fill: rgb(95, 99, 104);"></path>
<path class="cls-5" d="M 325.437 36.094 C 325.437 32.735 326.493 29.955 328.604 27.753 C 330.748 25.555 333.437 24.451 336.68 24.451 C 339.918 24.451 342.598 25.555 344.708 27.753 C 346.853 29.955 347.919 32.735 347.919 36.094 C 347.919 39.456 346.848 42.268 344.708 44.437 C 342.593 46.637 339.918 47.736 336.68 47.736 C 333.437 47.736 330.744 46.637 328.604 44.437 C 326.488 42.234 325.437 39.456 325.437 36.094 Z M 329.54 36.094 C 329.54 38.445 330.224 40.347 331.59 41.808 C 332.958 43.268 334.655 43.994 336.68 43.994 C 338.699 43.994 340.396 43.268 341.764 41.808 C 343.132 40.351 343.816 38.445 343.816 36.094 C 343.816 33.742 343.132 31.886 341.764 30.432 C 340.37 28.943 338.67 28.201 336.68 28.201 C 334.685 28.201 332.987 28.943 331.59 30.432 C 330.224 31.891 329.54 33.777 329.54 36.094 Z" style="fill: rgb(95, 99, 104);"></path>
<path class="cls-5" d="M 362.305 47.736 C 360.701 47.736 359.235 47.395 357.913 46.708 C 356.588 46.025 355.571 45.121 354.857 43.989 L 354.678 43.989 L 354.857 47.025 L 354.857 56.661 L 350.755 56.661 L 350.755 25.164 L 354.683 25.164 L 354.683 28.201 L 354.862 28.201 C 355.575 27.071 356.594 26.163 357.918 25.48 C 359.241 24.794 360.706 24.451 362.31 24.451 C 365.198 24.451 367.633 25.582 369.628 27.842 C 371.679 30.129 372.706 32.885 372.706 36.094 C 372.706 39.305 371.679 42.088 369.628 44.349 C 367.633 46.607 365.198 47.736 362.31 47.736 L 362.305 47.736 Z M 361.636 43.989 C 363.599 43.989 365.25 43.249 366.588 41.758 C 367.926 40.303 368.594 38.414 368.594 36.094 C 368.594 33.777 367.926 31.914 366.588 30.432 C 365.25 28.943 363.599 28.201 361.636 28.201 C 359.673 28.201 357.979 28.943 356.642 30.432 C 355.333 31.92 354.678 33.807 354.678 36.094 C 354.678 38.384 355.333 40.318 356.642 41.808 C 357.979 43.268 359.643 43.994 361.636 43.994 L 361.636 43.989 Z" style="fill: rgb(95, 99, 104);"></path>
<path class="cls-5" d="M 385.557 47.736 C 382.347 47.736 379.699 46.637 377.616 44.437 C 375.534 42.234 374.493 39.456 374.493 36.094 C 374.493 32.735 375.501 29.989 377.527 27.774 C 379.549 25.558 382.138 24.451 385.291 24.451 C 388.442 24.451 391.117 25.496 393.031 27.597 C 394.949 29.696 395.906 32.634 395.906 36.411 L 395.864 36.857 L 378.689 36.857 C 378.745 39.001 379.458 40.722 380.83 42.03 C 382.197 43.339 383.833 43.994 385.737 43.994 C 388.356 43.994 390.406 42.684 391.896 40.067 L 395.55 41.851 C 394.573 43.694 393.211 45.139 391.469 46.177 C 389.728 47.213 387.759 47.736 385.557 47.736 Z M 379 33.463 L 391.537 33.463 C 391.415 31.943 390.801 30.687 389.685 29.696 C 388.57 28.701 387.076 28.201 385.198 28.201 C 383.652 28.201 382.323 28.676 381.208 29.627 C 380.092 30.576 379.355 31.857 379 33.463 Z" style="fill: rgb(95, 99, 104);"></path>
<path class="cls-5" d="M 402.952 47.025 L 398.85 47.025 L 398.85 25.164 L 402.778 25.164 L 402.778 28.736 L 402.956 28.736 C 403.374 27.575 404.229 26.585 405.521 25.766 C 406.816 24.946 408.087 24.54 409.339 24.54 C 410.589 24.54 411.539 24.72 412.377 25.073 L 411.123 29.044 C 410.618 28.836 409.812 28.736 408.713 28.736 C 407.166 28.736 405.818 29.358 404.674 30.607 C 403.531 31.857 402.956 33.312 402.956 34.98 L 402.956 47.025 L 402.952 47.025 Z" style="fill: rgb(95, 99, 104);"></path>
<path class="cls-5" d="M 430.728 40.96 C 430.728 42.865 429.894 44.469 428.231 45.778 C 426.563 47.088 424.47 47.741 421.939 47.741 C 419.74 47.741 417.806 47.17 416.145 46.025 C 414.474 44.882 413.285 43.373 412.572 41.496 L 416.23 39.936 C 416.761 41.245 417.541 42.264 418.57 42.99 C 419.597 43.717 420.719 44.083 421.939 44.083 C 423.25 44.083 424.342 43.8 425.222 43.233 C 426.096 42.668 426.533 42.002 426.533 41.226 C 426.533 39.829 425.462 38.801 423.324 38.147 L 419.575 37.21 C 415.323 36.139 413.194 34.087 413.194 31.052 C 413.194 29.057 414.004 27.459 415.623 26.257 C 417.243 25.053 419.32 24.447 421.845 24.447 C 423.78 24.447 425.526 24.907 427.085 25.828 C 428.649 26.751 429.738 27.987 430.365 29.533 L 426.709 31.052 C 426.291 30.129 425.618 29.409 424.677 28.889 C 423.74 28.37 422.691 28.109 421.531 28.109 C 420.456 28.109 419.497 28.376 418.652 28.913 C 417.81 29.451 417.384 30.101 417.384 30.876 C 417.384 32.127 418.555 33.019 420.908 33.554 L 424.211 34.404 C 428.552 35.475 430.724 37.662 430.724 40.96 L 430.728 40.96 Z" style="fill: rgb(95, 99, 104);"></path>
<path class="cls-3" d="M 19.87 47.732 C 9.919 47.732 1.558 39.624 1.558 29.676 C 1.558 19.725 9.919 11.616 19.87 11.616 C 25.374 11.616 29.285 13.774 32.233 16.59 L 28.756 20.068 C 26.642 18.085 23.782 16.541 19.87 16.541 C 12.608 16.541 6.93 22.401 6.93 29.67 C 6.93 36.937 12.608 42.792 19.87 42.792 C 24.578 42.792 27.263 40.899 28.981 39.178 C 30.386 37.767 31.312 35.746 31.666 32.967 L 19.742 32.967 L 19.742 28.035 L 36.464 28.035 C 36.636 28.917 36.726 29.974 36.726 31.119 C 36.726 34.821 35.709 39.403 32.456 42.662 C 29.292 45.963 25.24 47.724 19.87 47.724 L 19.87 47.732 Z" style="fill: rgb(66, 133, 244);"></path>
<path class="cls-2" d="M 61.766 36.103 C 61.766 42.8 56.534 47.732 50.118 47.732 C 43.703 47.732 38.472 42.8 38.472 36.103 C 38.472 29.409 43.703 24.474 50.118 24.474 C 56.534 24.474 61.766 29.363 61.766 36.103 Z M 56.664 36.103 C 56.664 31.92 53.63 29.057 50.114 29.057 C 46.598 29.057 43.563 31.92 43.563 36.103 C 43.563 40.288 46.598 43.15 50.114 43.15 C 53.63 43.15 56.664 40.245 56.664 36.103 Z" style="fill: rgb(234, 67, 53);"></path>
<path class="cls-1" d="M 87.123 36.103 C 87.123 42.8 81.889 47.732 75.475 47.732 C 69.058 47.732 63.827 42.8 63.827 36.103 C 63.827 29.409 69.058 24.474 75.475 24.474 C 81.889 24.474 87.123 29.363 87.123 36.103 Z M 82.022 36.103 C 82.022 31.92 78.987 29.057 75.469 29.057 C 71.952 29.057 68.918 31.92 68.918 36.103 C 68.918 40.288 71.952 43.15 75.469 43.15 C 78.987 43.15 82.022 40.245 82.022 36.103 Z" style="fill: rgb(251, 188, 4);"></path>
<path class="cls-3" d="M 111.378 25.179 L 111.378 46.056 C 111.378 54.644 106.315 58.167 100.332 58.167 C 94.696 58.167 91.308 54.382 90.031 51.296 L 94.479 49.45 C 95.27 51.346 97.21 53.591 100.332 53.591 C 104.162 53.591 106.537 51.214 106.537 46.764 L 106.537 45.089 L 106.365 45.089 C 105.219 46.502 103.018 47.732 100.245 47.732 C 94.436 47.732 89.109 42.668 89.109 36.147 C 89.109 29.627 94.436 24.474 100.245 24.474 C 103.018 24.474 105.219 25.707 106.365 27.074 L 106.537 27.074 L 106.537 25.179 L 111.378 25.179 Z M 106.888 36.147 C 106.888 32.05 104.158 29.057 100.682 29.057 C 97.205 29.057 94.212 32.056 94.212 36.147 C 94.212 40.241 97.159 43.15 100.682 43.15 C 104.201 43.15 106.888 40.196 106.888 36.147 Z" style="fill: rgb(66, 133, 244);"></path>
<path class="cls-4" d="M 120.156 12.848 L 120.156 47.025 L 115.05 47.025 L 115.05 12.848 L 120.156 12.848 Z" style="fill: rgb(52, 168, 83);"></path>
<path class="cls-2" d="M 139.945 39.936 L 143.908 42.579 C 142.63 44.474 139.547 47.732 134.223 47.732 C 127.623 47.732 122.692 42.622 122.692 36.103 C 122.692 29.188 127.667 24.474 133.65 24.474 C 139.633 24.474 142.625 29.276 143.598 31.877 L 144.126 33.194 L 128.587 39.624 C 129.776 41.959 131.623 43.15 134.223 43.15 C 136.821 43.15 138.625 41.875 139.945 39.936 Z M 127.753 35.751 L 138.14 31.433 C 137.569 29.98 135.854 28.966 133.83 28.966 C 131.235 28.966 127.623 31.255 127.759 35.751 L 127.753 35.751 Z" style="fill: rgb(234, 67, 53);"></path>
</svg>