<?xml version="1.0" encoding="utf-8"?>
<!-- Generator: Adobe Illustrator 27.0.0, SVG Export Plug-In . SVG Version: 6.00 Build 0)  -->
<svg version="1.1" xmlns="http://www.w3.org/2000/svg" xmlns:xlink="http://www.w3.org/1999/xlink" x="0px" y="0px"
	 viewBox="0 0 374.9 342.4" style="enable-background:new 0 0 374.9 342.4;" xml:space="preserve">
<style type="text/css">
	.st0{fill:#0072BB;}
	.st1{fill:#2E3191;}
	.st2{fill:#FFFFFF;}
	.st3{fill:#2E3192;}
	.st4{fill:#2F3192;}
</style>
<g id="Layer_2">
	<path id="Path_1" class="st0" d="M188.6,78c6.2,0,12.5-0.4,18.7,0.1c15.8,1.2,27.9,14.3,27.9,30.2c0,11.9,0.2,23.8-0.1,35.7
		c-0.3,12.8-6.9,21.8-18.4,27.2c-3.5,1.6-7.4,2.5-11.3,2.4c-8.8,0.1-17.5,0-26.3,0c-0.3,0-0.6,0-0.8-0.1c0.3-1.3,1.4-1.9,2.3-2.7
		c4-3.7,8.2-7.2,12.7-10.5c2.8-2,5.7-3.7,8.5-5.6c1.5-0.8,3.2-1.1,4.7-1.9c4.9-2.4,8.4-7,9.6-12.3c0.3-1.5,0.5-3,0.5-4.5v-20.3
		c0.2-5-1.7-9.8-5.1-13.4c-2.8-3-6.5-4.9-10.5-5.4c-1.3-0.2-2.6-0.3-4-0.3h-18.8c-2.4,0-4.7,0.3-7,0.8c-0.9-0.4-0.2-0.9,0-1.2
		c1.1-1.6,2.4-3,3.6-4.5c3.2-3.8,6.7-7.3,10.3-10.7C186,79.7,187.2,78.7,188.6,78z"/>
	<path id="Path_2" class="st1" d="M188.6,78c-3.7,3.1-7.1,6.5-10.4,10c-2.7,2.8-5.2,5.8-7.4,9c-0.3,0.6-0.9,0.7-1.4,0.9
		c-5.8,2.4-10,7.5-11.1,13.7c-0.1,0.7-0.2,1.5-0.2,2.3c0,7.6,0.1,15.3,0,22.9c0,7.9,5.2,14.9,12.7,17.3c2.2,0.7,4.4,1,6.6,1
		c6.6,0,13.2,0,19.7,0c1,0,1.9-0.2,2.9-0.2c0.5,0,1.1-0.1,1.6,0.4c-4,2.6-8,5.1-11.8,8.1c-4.1,3.2-8,6.6-11.6,10.3
		c-5.3,0-10.6,0.4-15.8-0.8c-12-3-21-12.9-22.8-25.1c-0.2-1.5-0.3-3.1-0.3-4.7v-34.3c-0.2-14.5,10-27.2,24.3-30
		c1.4-0.3,2.8-0.5,4.3-0.6C174.8,78,181.7,78,188.6,78z"/>
</g>
<g id="Layer_5">
	<path id="Path_31" class="st0" d="M199.5,109.8c-0.2,0.2-0.5,0.5-0.7,0.7c-1.5,2-3.1,2.7-5.9,2c-7.2-1.8-14.4,3.4-15.8,11
		c-1.1,7.2,3.6,14,10.8,15.5c2.5,0.5,5,0.3,7.3-0.6c0.5-0.3,1.1-0.2,1.4,0.3c0.7,0.8,1.5,1.6,2.3,2.3c0.9,0.8,0.2,0.9-0.4,1.2
		c-6.9,3.1-13.4,2.5-19.4-2.1c-6.4-5-8.8-13.6-5.7-21.1c3-7.6,10.7-12.2,18.8-11.5C194.8,107.8,197.3,108.6,199.5,109.8z"/>
</g>
<g id="Layer_4">
	<path id="Path_32" class="st1" d="M183.7,125.8c-0.1-3.8,3-7,6.8-7c0,0,0.1,0,0.1,0c3.9-0.1,7.1,3,7.2,6.9c0.1,3.9-3,7.1-6.9,7.2
		c-3.9,0.1-7.1-3-7.2-6.9C183.7,125.9,183.7,125.9,183.7,125.8z"/>
	<path id="Path_32_00000013893590281817914260000010190331239685123214_" class="st2" d="M313.6,125.8c-0.1-3.8,3-7,6.8-7
		c0,0,0.1,0,0.1,0c3.9-0.1,7.1,3,7.2,6.9c0.1,3.9-3,7.1-6.9,7.2c-3.9,0.1-7.1-3-7.2-6.9C313.6,125.9,313.6,125.9,313.6,125.8z"/>
</g>
<g id="Layer_3">
	<g id="text" transform="translate(-60 218.158)">
		<path id="Path_3" class="st1" d="M331,2.2l5.1-5.8c1.5-1.7,3-3.4,4.4-5.1c0.4-0.5,1-0.7,1.6-0.7c1.6,0.1,3.3,0,4.9,0
			c0.3,0,0.8-0.2,1,0.2c0.2,0.4-0.3,0.5-0.5,0.8c-3.2,3.4-6.4,6.9-9.6,10.3c-0.7,0.7-0.7,1.1,0,1.8c3.7,4.2,7.4,8.5,11,12.7
			c0.2,0.3,0.8,0.5,0.6,1c-0.2,0.5-0.7,0.2-1.1,0.2h-6c-0.6,0-1.3-0.2-1.6-0.8c-3-3.7-6-7.3-9-10.9c-0.1-0.2-0.3-0.3-0.6-0.7v11.5
			c0,0.6-0.2,0.8-0.9,0.8c-1.6,0-3.2-0.1-4.8,0c-0.9,0-1.1-0.3-1-1.1V-20c0-1.2,0.4-1.4,1.4-1.4c1.4,0.1,2.7,0.1,4.1,0
			c1-0.1,1.2,0.3,1.2,1.2V0.6L331,2.2z"/>
		<path id="Path_4" class="st1" d="M261.6-18.8c1.7,0,3.4,0.2,5.1,0.5c0.9,0.2,1.4,0.6,1.3,1.6c-0.1,1.2-0.1,2.5,0,3.7
			c0,0.9-0.1,1.2-1.2,0.9c-3.4-1.2-7.1-1.3-10.6-0.4c-4.7,1.2-8,5.3-8.3,10.1c-0.2,2-0.1,3.9,0.4,5.9c1.4,5.3,5.8,8.6,12,8.7
			c2.2,0.1,4.3-0.1,6.4-0.8c0.7-0.2,1-0.2,1,0.7c-0.1,1.3,0,2.7,0,4c0,0.6-0.2,1-0.8,1.2c-6.9,1.5-13.7,1.4-19.6-3.1
			c-4.4-3.4-6.1-8.2-6.3-13.5C240.6-11.2,248.6-19,261.6-18.8z"/>
		<path id="Path_5" class="st1" d="M190.9-6.9c1.7-1.4,3.8-2.3,6-2.8c5.7-1,10.2,2.3,10.9,8.1c0.4,4.3,0.1,8.6,0.2,12.9v5.2
			c0.1,1-0.3,1.3-1.3,1.3c-1.4-0.1-2.7-0.1-4.1,0c-1,0-1.3-0.3-1.3-1.3V0.9c-0.2-3.7-2.5-5.6-6.1-4.8c-0.6,0.1-1.1,0.3-1.6,0.5
			C192-3,191-1.6,191.2,0c0.2,5.5,0,10.9,0.1,16.4c0,1.1-0.3,1.4-1.4,1.3c-1.4-0.1-2.7-0.1-4.1,0c-1,0.1-1.3-0.3-1.3-1.3V-4.2
			c0-1.4,0-2.8-0.2-4.2c0-0.7,0.2-0.9,0.9-0.9c1.2,0.1,2.4,0.1,3.6,0c1.2-0.1,1.8,0.3,1.8,1.5C190.7-7.5,190.8-7.2,190.9-6.9z"/>
		<path id="Path_6" class="st1" d="M313.7,18.2c-7.9,0.1-13.1-3.9-14.6-10.8c-1.7-7.6,3-15.1,10.6-16.8c0.9-0.2,1.8-0.3,2.7-0.3
			c1.9-0.1,3.8,0,5.6,0.3c0.8,0.2,1.4,0.5,1.3,1.5c-0.1,1.2-0.1,2.5,0,3.7c0,0.8-0.3,1-1,0.7c-2.2-0.7-4.5-0.8-6.7-0.3
			c-4,0.9-6.3,4.2-6,8.4c0.4,4.8,3.3,7.6,8.3,7.8c1.5,0.1,3,0,4.4-0.4c0.9-0.2,1,0,1,0.8c-0.1,1.2-0.1,2.5,0,3.7
			c0.1,0.5-0.3,1-0.8,1.1C316.9,18,315.3,18.3,313.7,18.2z"/>
		<path id="Path_7" class="st3" d="M272.8-4.2v-15.7c0-1.2,0.4-1.5,1.5-1.5c1.3,0.1,2.6,0.1,3.9,0c1.1-0.1,1.4,0.3,1.4,1.4v30.5
			c0.1,1.8,0.5,2.3,2.3,2.3c0.6,0,0.9,0.1,0.9,0.8c-0.1,1.1,0,2.2,0,3.4c0.1,0.5-0.3,0.9-0.7,1c0,0,0,0-0.1,0c-2,0.5-4,0.4-5.9-0.3
			c-1.9-0.8-2.7-2.4-3-4.4c-0.2-2.4-0.3-4.7-0.2-7.1C272.8,2.7,272.8-0.8,272.8-4.2z"/>
		<path id="Path_8" class="st1" d="M287,4V-8.1c0-1,0.3-1.3,1.2-1.2c1.5,0.1,3,0.1,4.4,0c0.8,0,1,0.2,1,1v25c0,0.7-0.2,1-0.9,1
			c-1.5,0-3-0.1-4.6,0c-1,0-1.2-0.3-1.2-1.3C287,12.3,287,8.2,287,4z"/>
		<path id="Path_9" class="st3" d="M177.8,30.8c-0.8-0.1-1.5-0.3-2.2-0.4c-3.2-0.3-5.4,1.6-5.5,4.6c-0.1,3,2,5.2,5.3,5
			c0.3-0.1,0.6-0.1,1-0.1c0.5,0.1,1.2-0.8,1.4,0.3c0.1,1,0.1,1.8-1.3,1.9c-1.3,0.2-2.7,0.1-4-0.2c-3.1-0.8-4.9-3.5-4.9-7
			c0-3.2,2.3-6,5.4-6.6c1.1-0.2,2.3-0.3,3.5-0.2c1.2,0.1,1.7,0.6,1.5,1.7C177.8,30.2,177.8,30.5,177.8,30.8L177.8,30.8z"/>
		<path id="Path_10" class="st4" d="M221.6,37v4c0,0.4,0.3,1-0.2,1.1c-0.7,0.1-1.5,0.4-2-0.2c-0.4-0.5-0.5-0.3-0.8-0.1
			c-1,0.6-2.2,0.8-3.4,0.5c-1.4-0.3-2.3-1.5-2.3-2.9c-0.1-2.3-0.1-4.6-0.1-6.9c0-1.2,0.9-0.5,1.4-0.6s1-0.1,1,0.7v5.7
			c-0.1,1,0.6,1.9,1.6,2c0.3,0,0.7,0,1-0.2c0.7-0.1,1.2-0.7,1.2-1.5c0,0,0,0,0,0c-0.1-1.8,0.1-3.7,0-5.5c-0.1-1.1,0.4-1.2,1.3-1.2
			c0.9,0,1.3,0.1,1.3,1.1C221.6,34.3,221.7,35.7,221.6,37L221.6,37z"/>
		<path id="Path_11" class="st3" d="M270.1,31.9c2.7-0.2,2.7-0.2,3.5,2.1c0.6,1.6,1.1,3.3,1.7,5c0.7-2.2,1.4-4.2,2-6.2
			c0.5-0.9,1.5-1.4,2.5-1c0.4,0.3,0.1,0.6,0,1c-1,3-2.1,6-3.3,8.9c-0.5,1-0.9,2-1.2,3c-0.4,1.5-1.4,1.7-2.7,1.7
			c-0.5,0-0.7-0.1-0.4-0.6c0-0.1,0.1-0.1,0.1-0.2c1.8-2.5,1.6-5,0.2-7.7C271.6,35.9,270.8,33.9,270.1,31.9z"/>
		<path id="Path_12" class="st3" d="M249.2,37.3v-4.4c0-0.4-0.3-1,0.3-1c0.6,0,1.6-0.5,2,0.3c0.3,0.5,0.4,0.4,0.7,0.2
			c0.7-0.4,1.5-0.7,2.3-0.7c2-0.1,3.4,1,3.5,3c0.2,2.3,0.1,4.6,0.1,7c0,0.9-0.7,0.5-1,0.5c-1.1,0.2-1.6-0.1-1.5-1.4
			c0.1-1.6,0.1-3.3,0-4.9c-0.1-1.7-1.2-2.4-2.8-1.8c-0.6,0.2-1.1,0.8-1,1.4c0.1,1.9-0.1,3.8,0,5.8c0.1,1.2-0.7,0.9-1.3,0.9
			s-1.4,0.2-1.3-1C249.3,39.9,249.2,38.6,249.2,37.3L249.2,37.3z"/>
		<path id="Path_13" class="st3" d="M191.8,37.4v-4.6c0-0.4-0.3-1,0.3-1c0.6-0.1,1.6-0.5,2,0.3c0.3,0.6,0.4,0.4,0.7,0.2
			c0.7-0.4,1.5-0.7,2.3-0.7c2-0.1,3.4,1,3.5,3c0.2,2.3,0.1,4.6,0.1,7c0,0.2,0,0.5-0.2,0.5c-0.7,0.1-1.3,0.1-2,0
			c-0.5-0.1-0.2-0.8-0.2-1.2v-5c0-1.6-1.1-2.4-2.7-1.9c-0.7,0.1-1.2,0.8-1.1,1.5c0.1,1.9-0.1,3.8,0,5.7c0.1,1.2-0.6,1-1.3,1.1
			c-0.8,0.1-1.4,0-1.3-1.1C192,40,191.9,38.7,191.8,37.4L191.8,37.4z"/>
		<path id="Path_14" class="st3" d="M154.5,36.3c0-1.5-0.1-3,0-4.4c0.1-1-0.3-1.3-1.3-1.2c-0.7,0.1-1.4,0.1-2.2,0
			c-0.4,0-1.1,0.2-0.8-0.5c0.2-0.6-0.4-1.7,0.9-1.7h4.7c1.5,0,3,0.1,4.5,0c1.4-0.1,0.9,1,1,1.7c0.2,0.9-0.5,0.6-0.9,0.6
			c-1.1,0.1-2.6-0.5-3.2,0.3c-0.7,0.8-0.2,2.2-0.2,3.3v7.1c0,1.2-0.8,0.8-1.4,0.8c-0.6,0.1-1.2,0.1-1.1-0.9
			C154.6,39.6,154.5,38,154.5,36.3z"/>
		<path id="Path_15" class="st3" d="M303.4,39.6c0.8-2.5,1.5-4.7,2.2-6.9c0.4-0.9,1.5-1.3,2.4-0.9c0.3,0.2,0.1,0.4,0.1,0.6
			c-1.1,3-2.2,6.1-3.2,9.2c-0.3,0.8-0.8,0.4-1.3,0.5c-1.2,0.2-1.8-0.2-2.2-1.5c-0.8-2.7-1.7-5.2-2.7-7.8c-0.3-0.8-0.1-1,0.7-1
			c1.2-0.1,1.8,0.3,2.1,1.5C302,35.4,302.7,37.3,303.4,39.6z"/>
		<path id="Path_16" class="st1" d="M323,35.2c0-2,0.1-4,0-6c0-1.1,0.7-0.8,1.3-0.8c0.6,0,1.3-0.3,1.3,0.8c-0.1,3.2,0,6.4,0,9.6
			c0,0.8,0.2,1,1,1c1.4-0.1,2.9,0,4.3,0c0.3,0,1-0.3,0.8,0.4s0.3,1.8-0.8,1.8c-2.4,0.1-4.8,0-7.2,0c-0.7,0-0.6-0.5-0.6-0.9
			C323,39.2,323,37.2,323,35.2z"/>
		<path id="Path_17" class="st3" d="M209.8,34.2c-0.8-0.4-1.8-0.5-2.7-0.6c-0.6,0-1.3,0-1.5,0.8c-0.2,0.8,0.5,0.9,1,1.2
			c0.8,0.4,1.6,0.7,2.3,1.1c1.1,0.5,1.7,1.7,1.5,2.9c-0.1,1.1-0.9,2.1-2,2.4c-1.4,0.5-3,0.5-4.4,0c-0.9-0.3-0.9-0.6-0.6-2.5
			c1,0.6,2.2,0.8,3.3,0.7c0.5-0.1,1.1-0.1,1.2-0.8c0.1-0.7-0.4-0.9-0.8-1.1c-0.7-0.4-1.5-0.6-2.2-1c-1.2-0.5-2-1.8-1.7-3.1
			c0.2-1.3,1.3-2.3,2.6-2.5c0.6-0.1,1.2-0.1,1.8-0.1C209.9,31.7,210,31.9,209.8,34.2z"/>
		<path id="Path_18" class="st3" d="M286.7-16.8c0-2.1,1.7-3.8,3.7-3.8c2.1,0,3.8,1.7,3.8,3.7c0,0,0,0,0,0.1c0.1,2-1.4,3.7-3.4,3.8
			c-0.1,0-0.3,0-0.4,0c-1.9,0.1-3.6-1.4-3.7-3.3C286.7-16.5,286.7-16.7,286.7-16.8L286.7-16.8z"/>
		<path id="Path_19" class="st3" d="M311.2,37.2v-1.9c0-0.6,0.2-1.5-1.1-1.4c-0.8,0.1-0.4-0.7-0.4-1.1c-0.1-0.4-0.2-1,0.6-0.9
			c1.1,0.1,1-0.6,1-1.3c0.1-0.7-0.3-1.3,0.7-1.5c1.7-0.4,1.9-0.4,1.7,1.4c-0.1,1.2,0.3,1.6,1.4,1.4c1.2-0.2,0.7,0.7,0.8,1.2
			c0.1,0.5,0,1.1-0.8,0.9c-1.2-0.2-1.5,0.3-1.4,1.4c0.1,1.2,0.1,2.3,0,3.5c0,0.9,0.3,1.5,1.3,1.4c0.4,0,0.9-0.1,0.8,0.5
			c-0.1,0.7,0.3,1.1-0.5,1.4c-2.3,0.8-4-0.4-4.1-2.8L311.2,37.2z"/>
		<path id="Path_20" class="st3" d="M231.2,37.3v-2.2c0-0.7,0-1.3-1-1.2c-0.7,0.1-0.5-0.6-0.5-1c0-0.4-0.3-1.2,0.5-1.1
			c1.1,0.1,1.1-0.6,1.1-1.3c0.1-1.3,0.7-1.8,2-1.7c0.3,0,0.5,0.1,0.4,0.4c0,0.3,0,0.6,0,1c-0.2,1.1,0,1.9,1.4,1.6
			c1-0.2,0.7,0.6,0.7,1.1c0,0.5,0.1,1.2-0.7,1c-1.4-0.3-1.6,0.4-1.5,1.6c0.1,1.1,0.1,2.2,0,3.2c0,1,0.3,1.6,1.4,1.5
			c0.4,0,0.8-0.1,0.7,0.5c-0.1,0.6,0.3,1.1-0.5,1.5c-1.4,0.7-3.1,0.2-3.8-1.1c-0.3-0.5-0.4-1-0.3-1.6
			C231.2,38.7,231.2,38,231.2,37.3z"/>
		<path id="Path_21" class="st3" d="M336.6,30.6c-0.3,1,0.2,1.4,1.4,1.2c1-0.2,0.8,0.6,0.8,1.2c0.1,0.6-0.1,1.1-0.9,1
			c-1.2-0.2-1.4,0.4-1.3,1.4c0.1,1.2,0,2.4,0,3.6c0,0.9,0.4,1.4,1.3,1.3c0.5,0,0.9-0.1,0.8,0.6c-0.1,0.5,0.2,1.1-0.6,1.3
			c-2.4,0.7-4-0.4-4-2.9V35c0-0.7,0-1.2-0.9-1.1c-0.7,0.1-0.7-0.5-0.6-0.9s-0.3-1.3,0.5-1.2c1.3,0.1,1-0.8,1.1-1.5
			c0.1-0.7,0.1-1.4,1.1-1.4C336.7,28.8,336.7,28.7,336.6,30.6z"/>
		<path id="Path_22" class="st3" d="M266.8,31.7l0.8,0.1c1.3,0.1,0.7,1.1,0.8,1.7c0.1,0.9-0.6,0.5-1,0.4c-2.9-0.4-4.7,1.3-4.1,3.9
			c0.4,1.7,1.8,2.5,3.9,2.3c0.4,0,1.1-0.6,1.2,0.3c0.1,0.8,0.4,1.6-1,1.8c-4.6,0.8-7.9-2.8-6.5-7.1
			C261.7,32.9,263.8,31.7,266.8,31.7z"/>
		<path id="Path_23" class="st3" d="M224.7,34c0-2,0.1-3.9,0-5.9c0-1.2,0.7-0.9,1.4-0.9c0.6-0.1,1.2,0,1.2,1V39
			c0,0.6-0.1,1.2,0.8,1.3c0.7,0.1,0.3,0.8,0.4,1.2c0.1,0.3-0.1,0.7-0.4,0.8c0,0-0.1,0-0.1,0c-1.2,0.5-2.5-0.1-3-1.3
			c-0.1-0.3-0.2-0.6-0.2-1C224.7,38.1,224.8,36.1,224.7,34L224.7,34z"/>
		<path id="Path_24" class="st1" d="M147.9,35.3c0,2-0.1,3.9,0,5.9c0,1.1-0.6,1-1.2,0.9s-1.4,0.4-1.4-0.9c0.1-4,0.1-8,0-12
			c0-1.2,0.8-0.8,1.4-0.8c0.6-0.1,1.2-0.1,1.2,0.9C147.9,31.3,147.9,33.3,147.9,35.3z"/>
		<path id="Path_25" class="st1" d="M178.5-5.9c-1.7-7.3-7.3-12.3-14.3-12.9c-8.2-0.6-14.6,3.2-17.5,10.4c-1.8,4.4-2,9.3-0.8,13.9
			c1.7,6.5,5.7,10.9,12.4,12.2s12.6-0.2,16.9-5.8c2.5-3.3,3.8-7.4,3.8-11.6C179.2-1.7,179-3.8,178.5-5.9z M170.9,6.9
			c-1.3,3.1-4.2,5.2-7.6,5.3c-3.5,0.4-6.9-1.2-8.8-4.1c-3-4.4-3.1-12.5-0.2-16.9c2.9-4.4,8.8-5.6,13.2-2.7c1.2,0.8,2.1,1.8,2.9,3
			c1.4,2.5,2.1,5.3,1.9,8.2C172.4,2.2,171.9,4.6,170.9,6.9L170.9,6.9z"/>
		<path id="Path_26" class="st1" d="M237.1,0.7c-0.4-4.4-2.2-7.9-6.5-9.7c-5.7-2.4-12.4-0.2-15.4,5.2c-2.6,4.5-2.9,10-0.8,14.8
			c1.3,3.2,4,5.6,7.3,6.4c4,1.1,8.3,0.9,12.2-0.5c0.9-0.2,1.4-1,1.2-1.9c-0.1-1-0.1-2,0-3c0-0.8-0.2-1-1-0.7
			c-2.2,0.9-4.5,1.2-6.8,1.1c-4.2-0.2-6.9-2.3-7.5-5.9c-0.1-0.7,0-1,0.8-1h7.5V5.6h7.2c1.5,0,1.7-0.2,1.8-1.7
			C237.1,2.8,237.1,1.7,237.1,0.7L237.1,0.7z M230,1h-10.2c0.1-3.2,2.8-5.7,6-5.6c0.3,0,0.7,0.1,1,0.1c2.2,0.5,3.8,2.4,3.9,4.6
			C230.9,0.7,230.7,1,230,1L230,1z"/>
		<path id="Path_27" class="st3" d="M349.6,34.4h-0.1v-6.3c0-0.4,0.2-0.8-0.5-0.9c-1.5-0.3-2,0-2,1.5v0.7c0,2,0,2-1.9,2.2
			c-2.8,0.2-4.9,2.6-4.8,5.4c-0.2,2.7,1.8,5,4.4,5.2c0,0,0.1,0,0.1,0c1.4,0.1,2.8-0.1,4.1-0.6c0.4-0.1,0.7-0.5,0.7-0.9
			C349.5,38.7,349.6,36.5,349.6,34.4z M346,40.2c-1.6,0.2-3.1-1-3.3-2.6c0-0.2,0-0.4,0-0.7c0-1.7,1.4-3.2,3.1-3.2c0.1,0,0.2,0,0.4,0
			c0.5,0,0.8,0.2,0.8,0.8v4.6C347,39.8,346.8,40.1,346,40.2L346,40.2z"/>
		<path id="Path_28" class="st1" d="M292.9,28.6c-1.7-0.4-3.4-0.1-5-0.2c-0.8-0.1-1,0.3-1,1.1v5.8c0,1.9,0.1,4,0,6
			c0,1.2,0.8,0.8,1.4,0.9c0.6,0,1.3,0.1,1.2-0.9c-0.1-0.9-0.1-1.8,0-2.8c0-0.6,0.2-0.8,0.8-0.8c1,0.1,2.1,0,3.1-0.4
			c2-0.6,3.3-2.5,3.1-4.6C296.3,30.6,294.9,28.9,292.9,28.6L292.9,28.6z M292.6,35.1c-0.9,0.3-1.9,0.4-2.8,0.3
			c-0.4,0-0.4-0.3-0.4-0.6V33c0-0.2,0-0.4,0-0.6c0.3-0.6-0.7-1.6,0.6-1.9c2-0.3,3.4,0.4,3.8,1.7C294.2,33.4,293.7,34.6,292.6,35.1
			L292.6,35.1z"/>
		<path id="Path_29" class="st3" d="M184.4,31.7c-2.7-0.1-5.1,2-5.2,4.7c0,0.2,0,0.3,0,0.5c-0.1,3.2,1.9,5.4,4.8,5.5
			c3.1,0.1,5.2-2.1,5.2-5.3C189.3,33.9,187.3,31.7,184.4,31.7z M186.4,38.7c-0.3,0.9-1.1,1.5-2,1.5c-1,0.1-1.8-0.5-2.2-1.4
			c-0.5-1-0.5-2.1-0.2-3.2c0.2-1.1,1.2-1.9,2.3-1.9c1.1,0,2.1,0.8,2.3,1.9c0.1,0.3,0.1,0.7,0.2,1C186.7,37.3,186.6,38.1,186.4,38.7
			L186.4,38.7z"/>
		<path id="Path_30" class="st3" d="M246,34.9c-0.1-1.8-1.6-3.3-3.4-3.3c-0.7,0-1.3,0-2,0.1c-1.9,0.2-2.2,0.6-1.8,2.6
			c0.8-0.3,1.7-0.5,2.6-0.6c0.8-0.1,1.6,0.2,2.1,0.9c0.3,0.5,0.4,1-0.5,0.9c-1-0.1-2.1,0-3.1,0.4c-1.7,0.6-2.6,2.4-2,4
			c0.4,1,1.2,1.8,2.3,2.1c1.9,0.4,3.8,0.2,5.5-0.5c0.3-0.1,0.5-0.3,0.5-0.6C246.1,39,246.2,36.9,246,34.9z M242.3,40.4
			c-1.3,0-2.1-0.5-2.1-1.4s0.7-1.3,2.4-1.4c1.2-0.1,1.2,0.5,1.1,1.4C244.1,40.1,243.3,40.3,242.3,40.4L242.3,40.4z"/>
	</g>
</g>
</svg>
