<?xml version="1.0" encoding="UTF-8"?>
<!DOCTYPE svg PUBLIC "-//W3C//DTD SVG 1.1//EN" "http://www.w3.org/Graphics/SVG/1.1/DTD/svg11.dtd">
<!-- Creator: CorelDRAW 2020 (64-Bit) -->
<svg xmlns="http://www.w3.org/2000/svg" xml:space="preserve" width="149.258mm" height="41.7027mm" version="1.1" style="shape-rendering:geometricPrecision; text-rendering:geometricPrecision; image-rendering:optimizeQuality; fill-rule:evenodd; clip-rule:evenodd"
viewBox="0 0 13839.27 3866.68"
 xmlns:xlink="http://www.w3.org/1999/xlink"
 xmlns:xodm="http://www.corel.com/coreldraw/odm/2003">
 <defs>
  <style type="text/css">
   <![CDATA[
    .fil2 {fill:#FBBB00;fill-rule:nonzero}
    .fil1 {fill:#E51273;fill-rule:nonzero}
    .fil3 {fill:#1DBADE;fill-rule:nonzero}
    .fil0 {fill:#29315F;fill-rule:nonzero}
   ]]>
  </style>
 </defs>
 <g id="__x0023_Layer_x0020_1">
  <metadata id="CorelCorpID_0Corel-Layer"/>
  <g id="_1615391846192">
   <path class="fil0" d="M8175.78 1975.22c-28.84,254.54 -249.99,453.32 -512.85,453.32 -282.09,0 -510.8,-228.47 -510.8,-510.89 0,-282.24 228.71,-511.39 510.8,-511.39 72.5,0 141.57,14.84 203.58,42.02l309.28 -268.09 0 795.03zm0 -1667.5l0 663.48c-152.55,-81.49 -327.03,-128.16 -512.85,-128.16 -601.12,0 -1089.03,487.71 -1089.03,1089.44 0,601.06 487.9,1088.93 1089.03,1088.93 269.28,0 515.51,-97.62 704.95,-259.76l384.06 206.92 0 -2968.59 -576.15 307.73z"/>
   <path class="fil0" d="M10643.77 2725.71l-341.97 -297.75c-53.62,20.16 -111.11,29.94 -170.64,29.94 -282.24,0 -511.22,-228.3 -511.22,-510.38 0,-282.17 228.98,-510.88 511.22,-510.88 275.31,0 503.08,218.43 512.61,491.84l0 797.23zm195.32 -1620.73c-190.6,-162.93 -438.46,-261.93 -707.94,-261.93 -601.47,0 -1089.1,487.74 -1089.1,1089.47 0,601.03 487.63,1088.93 1089.1,1088.93 189.08,0 366.68,-47.88 521.35,-132.56l0 127.41 578.58 0 0 -2122.72 -391.99 211.4z"/>
   <path class="fil1" d="M10643.77 1928.48l0 797.23 -341.97 -297.75c-53.62,20.16 -111.11,29.94 -170.64,29.94 -282.24,0 -511.22,-228.3 -511.22,-510.38 0,-282.17 228.98,-510.88 511.22,-510.88 275.31,0 503.08,218.43 512.61,491.84z"/>
   <path class="fil0" d="M6283.85 2747.67l-0.58 0c0.58,9.26 0.58,18.6 0.58,28.04 0,601.23 -487.88,1089.3 -1089.01,1089.3 -242.62,0 -466.52,-79.28 -647.55,-213.54 -109.39,-80.73 -203.16,-181.87 -275.48,-297.85l518.1 -244.69c35.5,36.72 74.37,67.09 117.26,91.29 82.44,47.35 178.28,71.45 287.66,71.45 262.59,0 482.58,-195.67 511.3,-450.99l0 -35.7c-152.18,81.34 -326.43,127.5 -511.3,127.5 -601.3,0 -1089.28,-487.9 -1089.28,-1089.1l0 -979.91 578.4 0 0 965.05c0,282.34 228.61,510.71 510.88,510.71 262.59,0 482.58,-197.73 511.3,-453.15l0 2 1.29 -1024.61 576.42 0 0 1904.21z"/>
   <path class="fil0" d="M1088.93 2457.91c-72.13,0 -140.52,-14.49 -202.96,-42.12l-309.18 268.53 0 -794.75c29.09,-254.71 249.46,-452.91 512.15,-452.91 282.27,0 510.88,228.65 510.88,510.81 0,282.07 -228.61,510.44 -510.88,510.44zm0 -1614.82c-269.45,0 -515.16,98.23 -704.92,260.28l-384.01 -207.19 0 2680.26 576.52 290.24 0 -972.96c152.7,81.76 326.94,127.75 512.42,127.75 601.57,0 1089.3,-487.88 1089.3,-1088.93 0,-601.81 -487.73,-1089.45 -1089.3,-1089.45z"/>
   <path class="fil2" d="M1599.84 1947.5c0,282.06 -228.64,510.44 -510.88,510.44 -72.15,0 -140.55,-14.49 -202.99,-42.2l-309.18 268.5 0 -794.75c29.09,-254.61 249.48,-452.88 512.18,-452.88 282.24,0 510.88,228.71 510.88,510.89z"/>
   <path class="fil3" d="M8175.78 1180.19l0 795.03c-28.84,254.54 -249.99,453.29 -512.85,453.29 -282.09,0 -510.8,-228.44 -510.8,-510.86 0,-282.26 228.71,-511.42 510.8,-511.42 72.5,0 141.57,14.86 203.58,42.05l309.28 -268.09z"/>
   <path class="fil0" d="M3552.23 843.48c-269.04,0 -514.83,98.32 -704.78,259.94l-383.72 -207 0 2117.56 0 5.13 10.72 0 565.09 268.87 0 -1338.05 0 -2.68c0,-282.24 230.61,-510.61 512.69,-510.61l254.54 0 0 -593.16 -254.54 0z"/>
   <path class="fil0" d="M13839.27 1932.71l0 1083.34 -577.54 0 0 -1068.61c0,-281.97 -228.71,-510.68 -511.73,-510.68l0 2.74c-282,0 -510.37,228.72 -510.37,510.86l0 1068.97 -578.49 0 0 -2122.72 385.55 207.95c189.44,-161.04 435.23,-258.24 703.31,-258.24l0 -2.65c602.15,0 1089.28,487.98 1089.28,1089.04z"/>
  </g>
 </g>
</svg>
