<svg xmlns="http://www.w3.org/2000/svg" width="157" height="121" viewBox="0 0 157 121" fill="none">
<path d="M122.288 0.0231934H156.776L122.288 34.6903H87.8008L122.288 0.0231934Z" fill="#F8C81F"/>
<path d="M122.207 34.6903L122.207 69.3574L156.775 34.6903L156.775 0.0231949L122.207 34.6903Z" fill="#00A650"/>
<path d="M122.207 69.3575L122.207 104.025L156.775 69.3575L156.775 34.6904L122.207 69.3575Z" fill="#0070BC"/>
<path d="M87.718 0.0231934H122.206L87.718 34.6903H53.2305L87.718 0.0231934Z" fill="#F04019"/>
<path d="M103.481 104.374C100.857 104.374 98.5645 103.931 96.6036 103.044C94.6428 102.13 92.9995 100.925 91.6738 99.4298C90.3758 97.9065 89.3953 96.2032 88.7325 94.3198C88.0697 92.4364 87.7383 90.5115 87.7383 88.545C87.7383 86.5785 88.0697 84.6674 88.7325 82.8117C89.3953 80.9283 90.3758 79.2388 91.6738 77.7432C92.9995 76.2476 94.6428 75.0566 96.6036 74.1703C98.5645 73.2563 100.857 72.7993 103.481 72.7993C106.077 72.7993 108.355 73.2563 110.316 74.1703C112.277 75.0566 113.906 76.2476 115.204 77.7432C116.53 79.2388 117.524 80.9283 118.187 82.8117C118.85 84.6674 119.181 86.5785 119.181 88.545C119.181 90.5115 118.85 92.4364 118.187 94.3198C117.524 96.2032 116.53 97.9065 115.204 99.4298C113.906 100.925 112.277 102.13 110.316 103.044C108.355 103.931 106.077 104.374 103.481 104.374ZM103.481 97.9342C105.276 97.9342 106.781 97.4772 107.996 96.5632C109.239 95.6492 110.164 94.486 110.772 93.0734C111.407 91.6332 111.724 90.1237 111.724 88.545C111.724 86.994 111.407 85.5122 110.772 84.0996C110.164 82.6594 109.239 81.4823 107.996 80.5683C106.781 79.6543 105.276 79.1973 103.481 79.1973C101.658 79.1973 100.125 79.6543 98.8821 80.5683C97.6669 81.4823 96.7555 82.6594 96.1479 84.0996C95.5403 85.5122 95.2366 86.994 95.2366 88.545C95.2366 90.1237 95.5403 91.6332 96.1479 93.0734C96.7555 94.486 97.6669 95.6492 98.8821 96.5632C100.125 97.4772 101.658 97.9342 103.481 97.9342Z" fill="black"/>
<path d="M60.3359 103.958V73.2141H73.5511C76.1196 73.2141 78.26 73.7127 79.9723 74.7097C81.6846 75.7068 82.955 76.9947 83.7836 78.5735C84.6397 80.1522 85.0678 81.8001 85.0678 83.5173C85.0678 85.2622 84.6397 86.9241 83.7836 88.5028C82.955 90.0815 81.6846 91.3832 79.9723 92.408C78.26 93.4051 76.1196 93.9037 73.5511 93.9037H67.5028V103.958H60.3359ZM73.5097 79.4874H67.5028V87.6719H73.5097C74.9734 87.6719 76.0644 87.2426 76.7824 86.384C77.5005 85.5254 77.8595 84.5837 77.8595 83.5589C77.8595 82.5341 77.5005 81.6063 76.7824 80.7754C76.0644 79.9167 74.9734 79.4874 73.5097 79.4874Z" fill="black"/>
<path d="M27.0664 103.958L36.3875 88.5859L27.1078 73.2141H35.6418L41.3587 83.3096L47.1585 73.2141H55.6924L46.2471 88.5859L55.7338 103.958H47.1585L41.3587 93.8621L35.6418 103.958H27.0664Z" fill="black"/>
<path d="M0.871094 103.958V73.2141H22.5374V79.4459H8.03795V85.3869H20.6732V91.3279H8.03795V97.7258H22.7445V103.958H0.871094Z" fill="black"/>
<path d="M90.5195 69.337V38.5935H97.6864V50.517H108.706V38.5935H115.873V69.337H108.706V56.6657H97.6864V69.337H90.5195Z" fill="black"/>
<path d="M72.3639 69.7529C69.8231 69.7529 67.586 69.3097 65.6528 68.4234C63.7195 67.5094 62.1039 66.3046 60.8058 64.809C59.5354 63.2857 58.5688 61.5823 57.9059 59.6989C57.2707 57.8155 56.9531 55.8906 56.9531 53.9241C56.9531 51.9853 57.2707 50.0743 57.9059 48.1909C58.5688 46.3075 59.5354 44.618 60.8058 43.1224C62.1039 41.6267 63.7195 40.4358 65.6528 39.5495C67.586 38.6355 69.8231 38.1785 72.3639 38.1785C74.5458 38.1785 76.3962 38.4554 77.9152 39.0094C79.4618 39.5356 80.746 40.2419 81.7679 41.1282C82.8173 41.9868 83.6459 42.9008 84.2535 43.8702C84.8887 44.8119 85.3582 45.712 85.662 46.5706C85.9658 47.4292 86.1591 48.1355 86.242 48.6894C86.3524 49.2434 86.4077 49.5203 86.4077 49.5203H79.3237C79.3237 49.5203 79.2408 49.2711 79.0751 48.7725C78.937 48.274 78.6332 47.7062 78.1637 47.0692C77.7218 46.4044 77.0452 45.8228 76.1338 45.3243C75.2224 44.8257 73.9934 44.5764 72.4468 44.5764C70.6516 44.5764 69.1465 45.0334 67.9313 45.9474C66.7437 46.8614 65.8461 48.0385 65.2385 49.4788C64.6585 50.8913 64.3686 52.3731 64.3686 53.9241C64.3686 55.4751 64.6585 56.9708 65.2385 58.411C65.8461 59.8513 66.7437 61.0284 67.9313 61.9424C69.1465 62.8564 70.6516 63.3134 72.4468 63.3134C73.9934 63.3134 75.2224 63.0641 76.1338 62.5655C77.0452 62.067 77.7218 61.4992 78.1637 60.8622C78.6332 60.2252 78.937 59.6574 79.0751 59.1588C79.2408 58.6603 79.3237 58.411 79.3237 58.411H86.4077C86.4077 58.411 86.3524 58.688 86.242 59.2419C86.1591 59.7682 85.9658 60.4744 85.662 61.3607C85.3582 62.2193 84.8887 63.1333 84.2535 64.1027C83.6459 65.0444 82.8173 65.9584 81.7679 66.8447C80.746 67.7033 79.4618 68.4096 77.9152 68.9635C76.3962 69.4898 74.5458 69.7529 72.3639 69.7529Z" fill="black"/>
<path d="M31.9023 69.337V38.5935H53.5686V44.8253H39.0692V50.7663H51.7044V56.7072H39.0692V63.1052H53.7758V69.337H31.9023Z" fill="black"/>
<path d="M11.1765 69.337V44.8253H1.85547V38.5935H27.7059V44.8253H18.3848V69.337H11.1765Z" fill="black"/>
<path d="M113.923 119.885V111.714H110.816V109.637H119.433V111.714H116.326V119.885H113.923Z" fill="black"/>
<path d="M92.6445 119.885L96.083 109.637H99.2866L102.725 119.885H100.226L99.6319 118.015H95.7377L95.144 119.885H92.6445ZM96.4006 115.966H98.9829L97.6848 111.936L96.4006 115.966Z" fill="black"/>
<path d="M74.4648 119.885V109.637H78.7871C79.5419 109.637 80.2002 109.766 80.7617 110.025C81.3233 110.283 81.756 110.653 82.0598 111.133C82.3636 111.613 82.5155 112.185 82.5155 112.85C82.5155 113.533 82.3498 114.119 82.0184 114.609C81.6961 115.098 81.2404 115.467 80.6513 115.716L82.764 119.885H80.1265L78.2347 116.049H76.8538V119.885H74.4648ZM78.7594 111.7H76.8538V114.124H78.7594C79.1737 114.124 79.5051 114.013 79.7537 113.791C80.0022 113.57 80.1265 113.279 80.1265 112.919C80.1265 112.55 80.0022 112.254 79.7537 112.033C79.5051 111.811 79.1737 111.7 78.7594 111.7Z" fill="black"/>
<path d="M54.4531 119.885L57.8916 109.637H61.0952L64.5337 119.885H62.0343L61.4405 118.015H57.5463L56.9526 119.885H54.4531ZM58.2092 115.966H60.7914L59.4934 111.936L58.2092 115.966Z" fill="black"/>
<path d="M41.0096 120.023C40.577 120.023 40.2087 120 39.9049 119.954C39.6011 119.917 39.4492 119.899 39.4492 119.899V117.918C39.4492 117.918 39.5597 117.932 39.7806 117.96C40.0108 117.978 40.2639 117.988 40.5401 117.988C41.1477 117.988 41.631 117.84 41.9901 117.544C42.3583 117.249 42.5424 116.727 42.5424 115.98V109.637H44.9038V116.035C44.9038 116.755 44.7749 117.42 44.5171 118.029C44.2686 118.629 43.8589 119.114 43.2881 119.483C42.7173 119.843 41.9579 120.023 41.0096 120.023Z" fill="black"/>
<path d="M25.0636 120.023C24.5204 120.023 23.9957 119.949 23.4894 119.802C22.983 119.645 22.5273 119.4 22.1223 119.068C21.7264 118.735 21.4088 118.301 21.1694 117.766C20.9393 117.231 20.8242 116.584 20.8242 115.827V109.637H23.2132V115.827C23.2132 116.372 23.3605 116.834 23.6551 117.212C23.9589 117.581 24.4284 117.766 25.0636 117.766C25.6988 117.766 26.1637 117.581 26.4583 117.212C26.7621 116.834 26.914 116.372 26.914 115.827V109.637H29.3029V115.827C29.3029 116.584 29.1833 117.231 28.9439 117.766C28.7137 118.301 28.3961 118.735 27.9911 119.068C27.5952 119.4 27.1441 119.645 26.6378 119.802C26.1315 119.949 25.6067 120.023 25.0636 120.023Z" fill="black"/>
<path d="M5.99714 120.023C5.13177 120.023 4.37228 119.875 3.71866 119.579C3.06503 119.284 2.51727 118.887 2.07539 118.388C1.64271 117.881 1.31589 117.318 1.09495 116.699C0.883213 116.071 0.777344 115.43 0.777344 114.774C0.777344 114.119 0.887816 113.477 1.10876 112.849C1.3297 112.221 1.65652 111.658 2.0892 111.16C2.53108 110.652 3.08344 110.25 3.74627 109.955C4.4091 109.65 5.18241 109.498 6.06618 109.498C6.76584 109.498 7.36423 109.586 7.86135 109.761C8.35847 109.936 8.77274 110.163 9.10416 110.439C9.44478 110.716 9.71635 111.012 9.91889 111.326C10.1306 111.63 10.2871 111.921 10.3884 112.198C10.4989 112.466 10.5679 112.688 10.5955 112.863C10.6324 113.038 10.6508 113.126 10.6508 113.126H8.27562C8.27562 113.126 8.248 113.052 8.19276 112.905C8.14673 112.748 8.04547 112.568 7.88897 112.364C7.74167 112.161 7.52073 111.986 7.22614 111.838C6.93154 111.681 6.54489 111.603 6.06618 111.603C5.44018 111.603 4.91543 111.755 4.49196 112.06C4.07769 112.364 3.76469 112.757 3.55295 113.237C3.34121 113.717 3.23534 114.215 3.23534 114.733C3.23534 115.268 3.34121 115.78 3.55295 116.27C3.77389 116.75 4.0961 117.147 4.51958 117.461C4.94305 117.775 5.46779 117.931 6.0938 117.931C6.75663 117.931 7.28137 117.77 7.66802 117.447C8.06388 117.124 8.30784 116.694 8.3999 116.159H5.87286V114.289H10.7612V115.106C10.7612 116.187 10.5541 117.091 10.1398 117.821C9.73477 118.55 9.1732 119.099 8.45514 119.469C7.73707 119.838 6.91774 120.023 5.99714 120.023Z" fill="black"/>
</svg>