<?xml version="1.0" encoding="UTF-8"?>
<!DOCTYPE svg PUBLIC "-//W3C//DTD SVG 1.1//EN" "http://www.w3.org/Graphics/SVG/1.1/DTD/svg11.dtd">
<!-- Creator: CorelDRAW X7 -->
<svg xmlns="http://www.w3.org/2000/svg" xml:space="preserve" width="4.83332in" height="0.79898in" version="1.1" style="shape-rendering:geometricPrecision; text-rendering:geometricPrecision; image-rendering:optimizeQuality; fill-rule:evenodd; clip-rule:evenodd"
viewBox="0 0 5515 912"
 xmlns:xlink="http://www.w3.org/1999/xlink">
 <defs>
  <style type="text/css">
   <![CDATA[
    .fil3 {fill:#0F9D58}
    .fil1 {fill:#4285F4}
    .fil0 {fill:#EA4335}
    .fil2 {fill:#FBBC04}
    .fil4 {fill:white;fill-rule:nonzero}
   ]]>
  </style>
 </defs>
 <g id="Layer_x0020_1">
  <metadata id="CorelCorpID_0Corel-Layer"/>
  <g id="_531243801536">
   <path class="fil0" d="M449 458l306 -177c72,-42 96,-134 55,-206 -42,-72 -134,-96 -206,-55l-529 305 374 133z"/>
   <path class="fil1" d="M679 912c52,0 103,-28 130,-76 42,-72 17,-164 -55,-205l-528 -306c-72,-41 -164,-17 -206,55 -41,72 -17,165 55,206l529 305c24,14 50,21 75,21l0 0z"/>
   <path class="fil2" d="M1205 912c26,0 52,-7 75,-21l529 -305 -369 -135 -310 180c-72,41 -97,133 -55,205 27,48 78,76 130,76z"/>
   <path class="fil3" d="M1733 606c53,0 103,-27 131,-75 41,-72 17,-164 -55,-206l-529 -305c-72,-41 -164,-17 -205,55 -42,72 -17,165 55,206l528 305c24,14 50,20 75,20z"/>
  </g>
  <g id="_531243800608">
   <path class="fil4" d="M2270 635l-53 144 107 0 -53 -144 -1 0zm-98 269l-45 0 120 -319 47 0 120 319 -45 0 -31 -86 -135 0 -31 86z"/>
   <path id="1" class="fil4" d="M2444 585l42 0 0 101 -2 30 2 0c6,-11 15,-20 28,-27 13,-7 27,-11 41,-11 27,0 47,8 62,23 14,16 21,37 21,66l0 137 -41 0 0 -129c0,-39 -17,-59 -52,-59 -17,0 -31,7 -42,21 -12,13 -17,30 -17,48l0 119 -42 0 0 -319z"/>
   <path id="2" class="fil4" d="M2727 904l-41 0 0 -218 40 0 0 30 1 0c7,-11 16,-20 29,-27 13,-7 26,-11 39,-11 16,0 30,4 42,12 12,7 21,17 27,30 18,-28 43,-42 75,-42 26,0 45,8 59,24 14,15 20,37 20,66l0 136 -41 0 0 -130c0,-21 -3,-35 -11,-45 -7,-9 -20,-13 -37,-13 -16,0 -29,7 -40,20 -11,13 -16,29 -16,47l0 121 -41 0 0 -130c0,-21 -4,-35 -11,-45 -8,-9 -20,-13 -38,-13 -15,0 -29,7 -39,20 -11,13 -17,29 -17,47l0 121z"/>
   <path id="3" class="fil4" d="M3165 911c-32,0 -59,-11 -80,-33 -20,-22 -31,-49 -31,-83 0,-33 10,-61 31,-83 20,-23 46,-34 77,-34 33,0 58,11 78,32 19,21 28,50 28,88l0 4 -172 0c1,22 8,39 22,52 13,13 30,20 49,20 26,0 46,-13 61,-39l37 17c-10,19 -24,33 -41,44 -17,10 -37,15 -59,15zm-66 -142l126 0c-1,-16 -8,-28 -19,-38 -11,-10 -26,-15 -45,-15 -15,0 -28,5 -40,14 -11,10 -18,22 -22,39z"/>
   <path id="4" class="fil4" d="M3406 874c21,0 37,-7 50,-22 13,-15 20,-34 20,-57 0,-23 -7,-42 -20,-57 -13,-15 -30,-22 -50,-22 -19,0 -36,7 -49,22 -14,15 -20,34 -20,57 0,23 6,42 20,57 13,14 30,22 49,22zm-6 37c-29,0 -53,-11 -74,-34 -20,-22 -30,-50 -30,-82 0,-32 10,-60 30,-83 21,-22 45,-34 74,-34 16,0 30,4 44,11 13,6 23,16 30,27l2 0 -2 -30 0 -101 41 0 0 319 -39 0 0 -30 -2 0c-7,11 -17,20 -30,27 -14,7 -28,10 -44,10z"/>
   <path id="5" class="fil4" d="M3593 837c0,11 4,20 14,27 9,7 19,11 31,11 18,0 33,-7 47,-19 13,-13 20,-28 20,-45 -13,-11 -31,-16 -54,-16 -16,0 -30,4 -41,12 -11,8 -17,18 -17,30zm53 -159c30,0 54,8 72,25 17,16 26,38 26,66l0 135 -39 0 0 -30 -2 0c-17,25 -39,37 -68,37 -24,0 -44,-7 -60,-21 -16,-14 -24,-32 -24,-54 0,-22 8,-40 25,-54 17,-13 40,-20 69,-20 24,0 44,5 60,14l0 -10c0,-14 -6,-26 -17,-36 -11,-10 -25,-15 -40,-15 -23,0 -41,10 -54,29l-36 -23c20,-28 49,-43 88,-43z"/>
   <path id="6" class="fil4" d="M3906 911c-16,0 -30,-3 -44,-10 -13,-7 -23,-16 -30,-27l-2 0 0 30 -39 0 0 -319 41 0 0 101 -2 30 2 0c7,-11 17,-21 30,-27 14,-7 28,-11 44,-11 29,0 54,12 73,34 21,23 31,51 31,83 0,32 -10,60 -31,82 -19,23 -44,34 -73,34zm-6 -37c19,0 36,-8 49,-22 14,-15 20,-34 20,-57 0,-23 -6,-42 -20,-57 -13,-15 -30,-22 -49,-22 -20,0 -37,7 -50,22 -13,15 -20,34 -20,57 0,23 7,42 20,57 13,15 30,22 50,22z"/>
   <path id="7" class="fil4" d="M4078 837c0,11 4,20 13,27 9,7 20,11 32,11 17,0 33,-7 46,-19 14,-13 21,-28 21,-45 -13,-11 -31,-16 -54,-16 -16,0 -30,4 -42,12 -11,8 -16,18 -16,30zm53 -159c30,0 54,8 72,25 17,16 26,38 26,66l0 135 -39 0 0 -30 -2 0c-17,25 -40,37 -68,37 -24,0 -44,-7 -60,-21 -17,-14 -25,-32 -25,-54 0,-22 9,-40 26,-54 17,-13 40,-20 68,-20 25,0 45,5 61,14l0 -10c0,-14 -6,-26 -17,-36 -12,-10 -25,-15 -40,-15 -23,0 -41,10 -54,29l-37 -23c20,-28 50,-43 89,-43z"/>
   <path id="8" class="fil4" d="M4371 874c21,0 37,-7 50,-22 13,-15 20,-34 20,-57 0,-23 -7,-42 -20,-57 -13,-15 -30,-22 -50,-22 -19,0 -36,7 -49,22 -14,15 -20,34 -20,57 0,23 6,42 20,57 13,14 30,22 49,22zm-6 37c-29,0 -53,-11 -74,-34 -20,-22 -30,-50 -30,-82 0,-32 10,-60 30,-83 21,-22 45,-34 74,-34 16,0 30,4 44,11 13,6 23,16 30,27l2 0 -2 -30 0 -101 41 0 0 319 -39 0 0 -30 -2 0c-7,11 -17,20 -30,27 -14,7 -28,10 -44,10z"/>
   <path id="9" class="fil4" d="M4816 865l0 39 -195 0 0 -41 79 -80c27,-27 45,-47 55,-61 10,-13 15,-27 15,-42 0,-14 -5,-25 -15,-35 -11,-9 -24,-14 -40,-14 -14,0 -26,4 -37,13 -10,8 -16,18 -19,30l-38 -15c6,-19 18,-35 35,-48 17,-13 37,-19 60,-19 27,0 50,8 69,25 18,17 27,38 27,63 0,29 -16,61 -48,95l-90 90 142 0z"/>
   <path id="10" class="fil4" d="M4855 752c0,-47 12,-85 35,-115 23,-30 52,-45 88,-45 36,0 65,15 88,45 23,30 35,68 35,115 0,45 -12,84 -35,114 -23,30 -52,45 -88,45 -36,0 -65,-15 -88,-45 -23,-30 -35,-69 -35,-114zm204 0c0,-36 -8,-64 -23,-87 -14,-23 -34,-34 -58,-34 -24,0 -44,11 -58,34 -15,23 -23,51 -23,87 0,35 8,64 23,87 14,22 34,33 58,33 24,0 44,-11 58,-34 15,-23 23,-52 23,-86z"/>
   <polygon id="11" class="fil4" points="5250,599 5250,904 5209,904 5209,650 5149,676 5134,641 5223,599 "/>
   <path id="12" class="fil4" d="M5401 793c-25,0 -47,-10 -67,-29 -19,-20 -29,-44 -29,-70 0,-28 11,-51 31,-71 21,-21 46,-31 74,-31 29,0 54,10 74,30 20,20 31,44 31,72 0,25 -10,53 -30,84l-89 133 -33 -22 75 -105 -1 -1c-9,7 -21,10 -36,10zm72 -99c0,-18 -6,-32 -19,-45 -12,-12 -27,-18 -44,-18 -18,0 -33,6 -45,18 -12,13 -18,27 -18,45 0,17 6,32 18,44 13,12 28,18 45,18 17,0 31,-6 44,-18 13,-12 19,-27 19,-44z"/>
   <path class="fil4" d="M2535 227c0,57 -17,102 -50,135 -38,40 -87,60 -149,60 -58,0 -108,-21 -148,-61 -41,-41 -61,-91 -61,-150 0,-59 20,-109 61,-150 40,-41 90,-61 148,-61 30,0 58,5 84,16 27,11 48,25 65,45l-37 37c-12,-15 -29,-27 -48,-36 -20,-8 -41,-12 -64,-12 -44,0 -81,15 -111,45 -30,31 -45,70 -45,116 0,46 15,85 45,116 30,30 67,45 111,45 41,0 74,-11 101,-34 26,-22 42,-53 46,-93l-147 0 0 -48 196 0c2,10 3,21 3,30z"/>
   <path id="1" class="fil4" d="M2598 413l0 -404 123 0c62,0 111,19 149,56 37,37 56,86 56,146 0,60 -19,109 -56,146 -38,37 -87,56 -149,56l-123 0zm52 -354l0 304 71 0c47,0 84,-13 111,-40 27,-27 41,-64 41,-112 0,-47 -14,-85 -41,-112 -27,-27 -64,-40 -111,-40l-71 0z"/>
   <path id="2" class="fil4" d="M3376 227c0,57 -17,102 -51,135 -37,40 -87,60 -148,60 -58,0 -108,-21 -149,-61 -40,-41 -60,-91 -60,-150 0,-59 20,-109 60,-150 41,-41 91,-61 149,-61 30,0 58,5 84,16 26,11 48,25 65,45l-37 37c-13,-15 -29,-27 -48,-36 -20,-8 -41,-12 -64,-12 -44,0 -81,15 -111,45 -30,31 -45,70 -45,116 0,46 15,85 45,116 30,30 67,45 111,45 40,0 74,-11 101,-34 26,-22 42,-53 46,-93l-147 0 0 -48 196 0c2,10 3,21 3,30z"/>
   <path id="3" class="fil4" d="M3563 413l0 -404 123 0c62,0 111,19 149,56 37,37 56,86 56,146 0,60 -19,109 -56,146 -38,37 -87,56 -149,56l-123 0zm52 -354l0 304 71 0c47,0 84,-13 111,-40 27,-27 41,-64 41,-112 0,-47 -14,-85 -41,-112 -27,-27 -64,-40 -111,-40l-71 0z"/>
   <path id="4" class="fil4" d="M4059 422c-41,0 -74,-14 -101,-42 -26,-28 -39,-63 -39,-105 0,-42 13,-77 38,-105 26,-28 58,-42 98,-42 41,0 74,13 98,39 24,27 36,64 36,112l0 5 -217 0c1,27 10,49 27,66 17,16 38,24 62,24 33,0 59,-16 78,-49l46 22c-13,24 -30,42 -52,55 -22,13 -47,20 -74,20zm-83 -181l158 0c-1,-19 -9,-35 -23,-47 -14,-13 -33,-19 -57,-19 -19,0 -36,6 -50,18 -14,12 -24,28 -28,48z"/>
   <polygon id="5" class="fil4" points="4365,413 4313,413 4202,137 4258,137 4339,351 4340,351 4423,137 4478,137 "/>
   <polygon id="6" class="fil4" points="4573,240 4573,413 4521,413 4521,9 4756,9 4756,59 4573,59 4573,191 4738,191 4738,240 "/>
   <path id="7" class="fil4" d="M4913 422c-41,0 -74,-14 -100,-42 -27,-28 -40,-63 -40,-105 0,-42 13,-77 39,-105 25,-28 58,-42 98,-42 41,0 73,13 97,39 25,27 37,64 37,112l-1 5 -217 0c1,27 10,49 27,66 18,16 38,24 62,24 33,0 59,-16 78,-49l46 22c-12,24 -29,42 -51,55 -22,13 -47,20 -75,20zm-83 -181l159 0c-2,-19 -10,-35 -24,-47 -14,-13 -33,-19 -56,-19 -20,0 -37,6 -51,18 -14,12 -23,28 -28,48z"/>
   <path id="8" class="fil4" d="M5305 336c0,24 -10,44 -31,61 -21,16 -48,25 -80,25 -28,0 -52,-7 -73,-22 -21,-14 -36,-33 -45,-57l46 -20c7,17 17,30 30,39 13,9 27,14 42,14 17,0 31,-4 42,-11 11,-7 16,-16 16,-26 0,-17 -13,-30 -40,-38l-48 -12c-53,-14 -80,-40 -80,-78 0,-25 10,-45 30,-61 21,-15 47,-22 79,-22 25,0 47,5 66,17 20,12 34,27 42,47l-46 19c-6,-12 -14,-21 -26,-27 -12,-7 -25,-10 -40,-10 -13,0 -25,3 -36,10 -11,7 -16,15 -16,25 0,16 15,27 44,34l42 10c55,14 82,41 82,83z"/>
   <path id="9" class="fil4" d="M5457 417c-23,0 -41,-7 -56,-21 -15,-13 -23,-33 -23,-58l0 -154 -48 0 0 -47 48 0 0 -85 52 0 0 85 67 0 0 47 -67 0 0 137c0,19 3,31 11,38 7,7 15,10 24,10 4,0 8,-1 12,-2 4,-1 7,-2 11,-3l16 46c-13,5 -29,7 -47,7z"/>
  </g>
 </g>
</svg>
