<?xml version="1.0" encoding="utf-8"?>
<!-- Generator: Adobe Illustrator 22.1.0, SVG Export Plug-In . SVG Version: 6.00 Build 0)  -->
<svg version="1.1" id="Layer_4" xmlns="http://www.w3.org/2000/svg" xmlns:xlink="http://www.w3.org/1999/xlink" x="0px" y="0px"
	 viewBox="0 0 536.9 128" style="enable-background:new 0 0 536.9 128;" xml:space="preserve">
<style type="text/css">
	.st0{fill:none;}
	.st1{fill:#FFC107;}
	.st2{fill:#0F9D58;}
	.st3{opacity:0.2;fill:#BF360C;enable-background:new    ;}
	.st4{opacity:0.2;fill:#263238;enable-background:new    ;}
	.st5{opacity:0.2;fill:#FFFFFF;enable-background:new    ;}
	.st6{fill:url(#XMLID_7_);}
	.st7{fill:url(#XMLID_34_);}
	.st8{fill:#4285F4;}
	.st9{fill:#DB4437;}
	.st10{opacity:0.2;fill:#1A237E;enable-background:new    ;}
	.st11{opacity:0.2;fill:#3E2723;enable-background:new    ;}
	.st12{fill:url(#XMLID_35_);}
	.st13{fill:#FFFFFF;}
</style>
<g id="XMLID_2_">
	<g id="XMLID_3_">
		<g id="XMLID_4_">
			<path id="XMLID_33_" class="st0" d="M78.7,58L45.1,0H0.3l37,64l-37,64h44.8l33.5-58C80.8,66.3,80.8,61.7,78.7,58z"/>
			<path id="XMLID_32_" class="st1" d="M59.4,102.3L48.8,83.9L23.3,128h21.8l14.6-25.2L59.4,102.3z"/>
			<path id="XMLID_31_" class="st0" d="M78.7,58L45.1,0H0.3l37,64l-37,64h44.8l33.5-58C80.8,66.3,80.8,61.7,78.7,58z"/>
			<path id="XMLID_30_" class="st2" d="M37.3,64l11.5,19.9L23.3,128h-23L37.3,64z"/>
			<path id="XMLID_29_" class="st0" d="M78.7,58L45.1,0H0.3l37,64l-37,64h44.8l33.5-58C80.8,66.3,80.8,61.7,78.7,58z"/>
			<path id="XMLID_28_" class="st3" d="M45.1,127H23.8l-0.5,1h21.8l14.6-25.2l-0.3-0.5L45.1,127z"/>
			<path id="XMLID_27_" class="st0" d="M78.7,58L45.1,0H0.3l37,64l-37,64h44.8l33.5-58C80.8,66.3,80.8,61.7,78.7,58z"/>
			<path id="XMLID_26_" class="st4" d="M0.8,127l-0.5,1h23l0.5-1H0.8z"/>
			<path id="XMLID_25_" class="st0" d="M78.7,58L45.1,0H0.3l37,64l-37,64h44.8l33.5-58C80.8,66.3,80.8,61.7,78.7,58z"/>
			<path id="XMLID_24_" class="st5" d="M0.3,128h0.5l36.8-63.5L37.3,64L0.3,128z"/>
			<path id="XMLID_23_" class="st0" d="M78.7,58L45.1,0H0.3l37,64l-37,64h44.8l33.5-58C80.8,66.3,80.8,61.7,78.7,58z"/>
			
				<radialGradient id="XMLID_7_" cx="59.537" cy="-158.374" r="44.264" gradientTransform="matrix(1 0 0 -1 0 -56)" gradientUnits="userSpaceOnUse">
				<stop  offset="0" style="stop-color:#BF360C;stop-opacity:0.2"/>
				<stop  offset="1" style="stop-color:#BF360C;stop-opacity:2.000000e-02"/>
			</radialGradient>
			<path id="XMLID_22_" class="st6" d="M59.7,102.8L48.8,83.9l-2.7,4.6L59.7,102.8z"/>
			<path id="XMLID_21_" class="st0" d="M78.7,58L45.1,0H0.3l37,64l-37,64h44.8l33.5-58C80.8,66.3,80.8,61.7,78.7,58z"/>
			
				<radialGradient id="XMLID_34_" cx="59.411" cy="-158.654" r="44.623" gradientTransform="matrix(1 0 0 -1 0 -56)" gradientUnits="userSpaceOnUse">
				<stop  offset="0" style="stop-color:#263238;stop-opacity:0.2"/>
				<stop  offset="1" style="stop-color:#263238;stop-opacity:2.000000e-02"/>
			</radialGradient>
			<path id="XMLID_20_" class="st7" d="M46.1,88.5l2.7-4.6L37.3,64l-5.5,9.5L46.1,88.5z"/>
			<path id="XMLID_19_" class="st0" d="M78.7,58L45.1,0H0.3l37,64l-37,64h44.8l33.5-58C80.8,66.3,80.8,61.7,78.7,58z"/>
			<g id="XMLID_16_">
				<g id="XMLID_17_">
					<path id="XMLID_18_" class="st8" d="M23.3,0h-23l59.4,102.8l11.5-19.9L23.3,0z"/>
				</g>
			</g>
			<path id="XMLID_15_" class="st0" d="M78.7,58L45.1,0H0.3l37,64l-37,64h44.8l33.5-58C80.8,66.3,80.8,61.7,78.7,58z"/>
			<path id="XMLID_14_" class="st9" d="M78.7,70c2.1-3.7,2.1-8.3,0-12L45.1,0H23.3l47.9,82.9L78.7,70z"/>
			<path id="XMLID_13_" class="st0" d="M78.7,58L45.1,0H0.3l37,64l-37,64h44.8l33.5-58C80.8,66.3,80.8,61.7,78.7,58z"/>
			<path id="XMLID_12_" class="st10" d="M71.2,82.9l-0.3-0.5l-11.2,19.4L0.8,0H0.3l59.4,102.8L71.2,82.9z"/>
			<path id="XMLID_11_" class="st0" d="M78.7,58L45.1,0H0.3l37,64l-37,64h44.8l33.5-58C80.8,66.3,80.8,61.7,78.7,58z"/>
			<path id="XMLID_10_" class="st5" d="M45.1,1l33.5,58c1,1.7,1.5,3.6,1.6,5.5c0.1-2.2-0.4-4.5-1.6-6.5L45.1,0H0.3l0.6,1
				C0.9,1,45.1,1,45.1,1z"/>
			<path id="XMLID_9_" class="st0" d="M78.7,58L45.1,0H0.3l37,64l-37,64h44.8l33.5-58C80.8,66.3,80.8,61.7,78.7,58z"/>
			<path id="XMLID_8_" class="st11" d="M71.2,82.9L78.7,70c1.2-2,1.7-4.3,1.6-6.5c-0.1,1.9-0.6,3.8-1.6,5.5L71,82.4L71.2,82.9z"/>
			<path id="XMLID_6_" class="st0" d="M78.7,58L45.1,0H0.3l37,64l-37,64h44.8l33.5-58C80.8,66.3,80.8,61.7,78.7,58z"/>
			
				<radialGradient id="XMLID_35_" cx="-0.74" cy="-57" r="134.35" gradientTransform="matrix(1 0 0 -1 0 -56)" gradientUnits="userSpaceOnUse">
				<stop  offset="0" style="stop-color:#FFFFFF;stop-opacity:0.1"/>
				<stop  offset="1" style="stop-color:#FFFFFF;stop-opacity:0"/>
			</radialGradient>
			<path id="XMLID_5_" class="st12" d="M78.7,58L45.1,0H0.3l37,64l-37,64h44.8l33.5-58C80.8,66.3,80.8,61.7,78.7,58z"/>
		</g>
	</g>
</g>
<g>
	<path class="st13" d="M167.1,35.3c0,6.8-2,12.2-6.1,16.3c-4.6,4.8-10.5,7.2-17.9,7.2c-7,0-13-2.4-17.9-7.3s-7.4-10.9-7.4-18.1
		s2.5-13.2,7.4-18.1S136.1,8,143.1,8c3.5,0,6.8,0.7,10,2c3.2,1.4,5.7,3.2,7.6,5.4l-4.3,4.3c-3.2-3.9-7.7-5.8-13.3-5.8
		c-5.1,0-9.6,1.8-13.3,5.4s-5.6,8.3-5.6,14c0,5.8,1.9,10.4,5.6,14s8.2,5.4,13.3,5.4c5.4,0,10-1.8,13.6-5.4c2.4-2.4,3.7-5.6,4.1-9.9
		h-17.7v-5.8h23.6C167,32.9,167.1,34.1,167.1,35.3z"/>
	<path class="st13" d="M174.7,57.7V9h14.9c7.5,0,13.5,2.3,18,6.8s6.7,10.4,6.7,17.6s-2.2,13.1-6.7,17.6s-10.5,6.8-18,6.8L174.7,57.7
		L174.7,57.7z M181,51.7h8.6c5.6,0,10.1-1.6,13.4-4.8c3.3-3.2,4.9-7.7,4.9-13.5s-1.6-10.3-4.9-13.5c-3.3-3.2-7.7-4.9-13.4-4.9H181
		V51.7z"/>
	<path class="st13" d="M268.5,35.3c0,6.8-2,12.2-6.1,16.3c-4.6,4.8-10.5,7.2-17.9,7.2c-7,0-13-2.4-17.9-7.3s-7.4-10.9-7.4-18.1
		s2.5-13.2,7.4-18.1S237.5,8,244.5,8c3.5,0,6.8,0.7,10,2c3.2,1.4,5.7,3.2,7.6,5.4l-4.3,4.3c-3.2-3.9-7.7-5.8-13.3-5.8
		c-5.1,0-9.6,1.8-13.3,5.4s-5.6,8.3-5.6,14c0,5.8,1.9,10.4,5.6,14c3.7,3.6,8.2,5.4,13.3,5.4c5.4,0,10-1.8,13.6-5.4
		c2.4-2.4,3.7-5.6,4.1-9.9h-17.7v-5.8h23.6C268.4,32.9,268.5,34.1,268.5,35.3z"/>
	<path class="st13" d="M291.1,57.7V9H306c7.5,0,13.5,2.3,18,6.8s6.7,10.4,6.7,17.6S328.5,46.5,324,51s-10.5,6.8-18,6.8L291.1,57.7
		L291.1,57.7z M297.4,51.7h8.6c5.6,0,10.1-1.6,13.4-4.8s4.9-7.7,4.9-13.5s-1.6-10.3-4.9-13.5S311.7,15,306,15h-8.6V51.7z"/>
	<path class="st13" d="M351.1,58.8c-5,0-9.1-1.7-12.3-5c-3.2-3.4-4.7-7.6-4.7-12.7c0-4.9,1.5-9,4.6-12.5s7-5.2,11.7-5.2
		c4.9,0,8.9,1.6,11.9,4.8s4.5,7.5,4.5,12.9l-0.1,1.2h-26.3c0.2,3.4,1.3,6,3.4,8c2.1,1.9,4.5,2.9,7.2,2.9c4.5,0,7.5-1.9,9.1-5.7
		l5.6,2.3c-1.1,2.6-2.9,4.8-5.4,6.5C357.8,57.9,354.7,58.8,351.1,58.8z M360.1,37c-0.1-1.9-1-3.7-2.6-5.4c-1.6-1.7-4-2.6-7.2-2.6
		c-2.3,0-4.3,0.7-6,2.2s-2.9,3.4-3.5,5.8H360.1z"/>
	<path class="st13" d="M381.7,57.7l-13.5-33.3h6.8l9.8,25.8h0.1l9.9-25.8h6.7l-13.6,33.3H381.7z"/>
	<path class="st13" d="M413,57.7h-6.3V9h28.4v6H413v16h20v5.8h-20V57.7z"/>
	<path class="st13" d="M454.2,58.8c-5,0-9.1-1.7-12.3-5c-3.2-3.4-4.7-7.6-4.7-12.7c0-4.9,1.5-9,4.6-12.5s7-5.2,11.7-5.2
		c4.9,0,8.9,1.6,11.9,4.8s4.5,7.5,4.5,12.9l-0.1,1.2h-26.3c0.2,3.4,1.3,6,3.4,8c2.1,1.9,4.5,2.9,7.2,2.9c4.5,0,7.5-1.9,9.1-5.7
		l5.6,2.3c-1.1,2.6-2.9,4.8-5.4,6.5C460.9,57.9,457.8,58.8,454.2,58.8z M463.1,37c-0.1-1.9-1-3.7-2.6-5.4c-1.6-1.7-4-2.6-7.2-2.6
		c-2.3,0-4.3,0.7-6,2.2s-2.9,3.4-3.5,5.8H463.1z"/>
	<path class="st13" d="M488.2,58.8c-3.7,0-6.8-0.9-9.2-2.7c-2.4-1.8-4.2-4.1-5.3-6.8l5.6-2.3c1.8,4.2,4.8,6.3,9,6.3
		c1.9,0,3.5-0.4,4.8-1.3c1.2-0.9,1.9-2,1.9-3.4c0-2.2-1.5-3.6-4.6-4.4l-6.7-1.6c-2.1-0.5-4.1-1.6-6.1-3.1c-1.9-1.5-2.9-3.6-2.9-6.2
		c0-2.9,1.3-5.3,3.9-7.2c2.6-1.8,5.7-2.8,9.3-2.8c2.9,0,5.6,0.7,7.9,2s4,3.3,5,5.7l-5.4,2.2c-1.2-2.9-3.8-4.4-7.6-4.4
		c-1.9,0-3.4,0.4-4.7,1.2c-1.3,0.8-1.9,1.8-1.9,3.1c0,1.9,1.5,3.2,4.4,3.9l6.6,1.6c3.1,0.7,5.4,2,6.9,3.7c1.5,1.8,2.2,3.8,2.2,6
		c0,3-1.2,5.5-3.7,7.5C495.2,57.8,492.1,58.8,488.2,58.8z"/>
	<path class="st13" d="M520.9,58.2c-3.5,0-6.2-0.9-8-2.8c-1.8-1.9-2.8-4.5-2.8-7.9V30.1h-5.8v-5.7h5.8V14.1h6.3v10.2h8.2V30h-8.2v17
		c0,3.6,1.5,5.4,4.5,5.4c1.1,0,2.1-0.2,2.9-0.5l2.2,5.4C524.6,57.9,522.9,58.2,520.9,58.2z"/>
</g>
<g>
	<path class="st13" d="M114,118l14.6-38.7h5.6l14.6,38.7h-5.5l-3.7-10.5h-16.3l-3.8,10.5H114z M124.9,102.9h12.9l-6.3-17.4h-0.2
		L124.9,102.9z"/>
	<path class="st13" d="M157.4,79.3v12.2l-0.2,3.7h0.2c0.7-1.3,1.9-2.3,3.4-3.2c1.5-0.9,3.2-1.3,5-1.3c3.3,0,5.8,1,7.5,3
		s2.6,4.7,2.6,8.1V118h-5v-15.4c0-4.9-2.2-7.3-6.5-7.3c-2.1,0-3.7,0.8-5,2.5c-1.3,1.6-1.9,3.5-1.9,5.7V118h-5V79.3H157.4z"/>
	<path class="st13" d="M181.7,118V91.5h4.8v3.7h0.2c0.8-1.3,1.9-2.3,3.5-3.2c1.6-0.9,3.1-1.3,4.7-1.3c4.1,0,6.9,1.7,8.4,5.1
		c2.2-3.4,5.2-5.1,9.2-5.1c3.1,0,5.5,1,7.1,3s2.4,4.7,2.4,8.1V118h-5v-15.4c0-2.7-0.5-4.6-1.5-5.7s-2.4-1.7-4.4-1.7
		c-1.9,0-3.6,0.8-4.8,2.5c-1.3,1.7-1.9,3.5-1.9,5.7V118h-5v-15.4c0-2.7-0.5-4.6-1.5-5.7s-2.4-1.7-4.4-1.7c-1.9,0-3.6,0.8-4.8,2.5
		c-1.3,1.7-1.9,3.5-1.9,5.7V118H181.7z"/>
	<path class="st13" d="M239.7,118.9c-4,0-7.2-1.3-9.7-4s-3.8-6-3.8-10.1c0-3.9,1.2-7.2,3.6-9.9c2.4-2.8,5.5-4.2,9.3-4.2
		c3.9,0,7.1,1.3,9.4,3.8c2.4,2.6,3.5,6,3.5,10.3l-0.1,0.9H231c0.1,2.7,1,4.8,2.7,6.3c1.6,1.5,3.6,2.3,5.8,2.3c3.6,0,6-1.5,7.2-4.5
		l4.4,1.8c-0.9,2.1-2.3,3.8-4.3,5.2C245,118.2,242.6,118.9,239.7,118.9z M246.8,101.6c-0.1-1.5-0.8-3-2.1-4.3
		c-1.3-1.4-3.2-2.1-5.7-2.1c-1.8,0-3.4,0.6-4.8,1.7s-2.3,2.7-2.8,4.6h15.4V101.6z"/>
	<path class="st13" d="M268,118.9c-3.4,0-6.4-1.4-8.9-4c-2.5-2.7-3.7-6-3.7-10s1.2-7.3,3.7-10s5.4-4,8.9-4c2,0,3.8,0.4,5.4,1.3
		s2.8,1.9,3.6,3.2h0.2l-0.2-3.7V79.3h5V118h-4.8v-3.7H277c-0.8,1.3-2,2.4-3.6,3.2C271.8,118.4,270,118.9,268,118.9z M268.8,114.3
		c2.3,0,4.3-0.9,6-2.6c1.6-1.7,2.5-4.1,2.5-7s-0.8-5.2-2.5-7c-1.6-1.7-3.6-2.6-6-2.6c-2.3,0-4.3,0.9-5.9,2.6
		c-1.7,1.7-2.5,4.1-2.5,6.9c0,2.9,0.8,5.2,2.5,6.9C264.5,113.5,266.5,114.3,268.8,114.3z"/>
	<path class="st13" d="M296.1,118.9c-2.8,0-5.2-0.8-7-2.4c-1.9-1.6-2.8-3.8-2.8-6.4c0-2.9,1.1-5.1,3.3-6.8c2.2-1.6,5-2.5,8.3-2.5
		c2.9,0,5.3,0.5,7.2,1.6v-0.8c0-1.9-0.7-3.5-2-4.7s-3-1.8-4.9-1.8c-1.4,0-2.7,0.3-3.9,1s-2,1.6-2.4,2.8l-4.5-1.9
		c0.6-1.6,1.8-3.1,3.6-4.4c1.8-1.4,4.2-2,7.1-2c3.4,0,6.2,1,8.4,3c2.2,2,3.3,4.8,3.3,8.4v16H305v-3.7h-0.2
		C302.8,117.4,299.9,118.9,296.1,118.9z M296.9,114.3c2.1,0,3.9-0.8,5.6-2.3s2.5-3.3,2.5-5.4c-1.4-1.2-3.5-1.7-6.3-1.7
		c-2.4,0-4.2,0.5-5.5,1.6c-1.2,1-1.8,2.3-1.8,3.7c0,1.3,0.6,2.3,1.7,3.1C294.2,114,295.5,114.3,296.9,114.3z"/>
	<path class="st13" d="M329.4,118.9c-2,0-3.8-0.4-5.4-1.3s-2.8-1.9-3.6-3.2h-0.2v3.7h-4.8V79.3h5v12.2l-0.2,3.7h0.2
		c0.8-1.3,2-2.4,3.6-3.2c1.6-0.9,3.4-1.3,5.4-1.3c3.4,0,6.4,1.4,8.9,4c2.5,2.7,3.7,6,3.7,10s-1.2,7.3-3.7,10
		C335.8,117.5,332.8,118.9,329.4,118.9z M328.6,114.3c2.3,0,4.3-0.9,5.9-2.6s2.5-4.1,2.5-6.9c0-2.9-0.8-5.2-2.5-6.9
		s-3.6-2.6-5.9-2.6s-4.3,0.9-6,2.6c-1.6,1.7-2.5,4-2.5,7s0.8,5.2,2.5,7C324.2,113.5,326.2,114.3,328.6,114.3z"/>
	<path class="st13" d="M354.9,118.9c-2.8,0-5.2-0.8-7-2.4c-1.9-1.6-2.8-3.8-2.8-6.4c0-2.9,1.1-5.1,3.3-6.8c2.2-1.6,5-2.5,8.3-2.5
		c2.9,0,5.3,0.5,7.2,1.6v-0.8c0-1.9-0.7-3.5-2-4.7s-3-1.8-4.9-1.8c-1.4,0-2.7,0.3-3.9,1s-2,1.6-2.4,2.8l-4.5-1.9
		c0.6-1.6,1.8-3.1,3.6-4.4c1.8-1.4,4.2-2,7.1-2c3.4,0,6.2,1,8.4,3c2.2,2,3.3,4.8,3.3,8.4v16h-4.8v-3.7h-0.2
		C361.6,117.4,358.7,118.9,354.9,118.9z M355.7,114.3c2.1,0,3.9-0.8,5.6-2.3s2.5-3.3,2.5-5.4c-1.4-1.2-3.5-1.7-6.3-1.7
		c-2.4,0-4.2,0.5-5.5,1.6c-1.2,1-1.8,2.3-1.8,3.7c0,1.3,0.6,2.3,1.7,3.1C353,114,354.2,114.3,355.7,114.3z"/>
	<path class="st13" d="M385,118.9c-3.4,0-6.4-1.4-8.9-4c-2.5-2.7-3.7-6-3.7-10s1.2-7.3,3.7-10s5.4-4,8.9-4c2,0,3.8,0.4,5.4,1.3
		s2.8,1.9,3.6,3.2h0.2l-0.2-3.7V79.3h5V118h-4.8v-3.7H394c-0.8,1.3-2,2.4-3.6,3.2C388.8,118.4,387,118.9,385,118.9z M385.8,114.3
		c2.3,0,4.3-0.9,6-2.6c1.6-1.7,2.5-4.1,2.5-7s-0.8-5.2-2.5-7c-1.6-1.7-3.6-2.6-6-2.6c-2.3,0-4.3,0.9-5.9,2.6
		c-1.7,1.7-2.5,4.1-2.5,6.9c0,2.9,0.8,5.2,2.5,6.9C381.5,113.5,383.5,114.3,385.8,114.3z"/>
	<path class="st13" d="M439.5,118H416v-5c7.1-7.1,11.6-11.7,13.6-13.9c1.8-2,3-3.5,3.6-4.5s0.9-2.3,0.9-3.8s-0.6-2.9-1.8-4.1
		c-1.2-1.2-2.9-1.8-4.9-1.8c-1.9,0-3.4,0.5-4.5,1.6c-1.2,1.1-1.9,2.3-2.2,3.5l-4.5-1.8c0.6-1.9,1.9-3.8,3.8-5.5s4.5-2.6,7.6-2.6
		c3.4,0,6.2,1,8.4,3.1s3.3,4.6,3.3,7.5c0,3.6-2,7.5-5.9,11.6l-10.8,10.9h17.1v4.8H439.5z"/>
	<path class="st13" d="M469.9,113.3c-2.7,3.7-6.3,5.6-10.7,5.6c-4.4,0-8-1.9-10.7-5.6s-4.1-8.3-4.1-13.8s1.4-10.1,4.1-13.8
		c2.7-3.7,6.3-5.5,10.7-5.5c4.4,0,8,1.8,10.7,5.5S474,94,474,99.5S472.6,109.6,469.9,113.3z M459.1,114.1c3,0,5.3-1.4,7.1-4.2
		c1.8-2.8,2.7-6.2,2.7-10.4c0-4.2-0.9-7.7-2.7-10.4s-4.1-4.1-7.1-4.1s-5.4,1.4-7.1,4.1s-2.6,6.2-2.6,10.4c0,4.2,0.9,7.7,2.6,10.4
		C453.8,112.7,456.2,114.1,459.1,114.1z"/>
	<path class="st13" d="M492,118h-5V87.2l-7.2,3.1l-1.9-4.2l10.9-5.1h3.2V118z"/>
	<path class="st13" d="M520.2,115.7c-2.4,2.1-5.4,3.2-8.9,3.2c-3.5,0-6.5-1.1-8.9-3.2s-3.6-4.8-3.6-7.9c0-2.1,0.6-3.9,1.7-5.4
		c1.1-1.6,2.6-2.8,4.4-3.7v-0.2c-1.4-0.9-2.6-2-3.5-3.4s-1.3-2.8-1.3-4.3c0-3,1.1-5.5,3.2-7.5s4.8-3,8.1-3s6,1,8.1,3
		c2.1,2,3.2,4.5,3.2,7.5c0,1.5-0.5,3-1.3,4.3c-0.9,1.4-2.1,2.5-3.5,3.4v0.2c1.8,0.9,3.3,2.1,4.4,3.7c1.1,1.6,1.7,3.4,1.7,5.4
		C523.8,110.9,522.6,113.6,520.2,115.7z M506,112.3c1.4,1.2,3.2,1.8,5.3,1.8s3.9-0.6,5.3-1.8c1.4-1.2,2.2-2.8,2.2-4.8
		c0-1.9-0.7-3.5-2.2-4.7c-1.4-1.2-3.2-1.8-5.3-1.8c-2.1,0-3.9,0.6-5.3,1.8c-1.4,1.2-2.2,2.8-2.2,4.7
		C503.8,109.5,504.5,111.1,506,112.3z M506.8,94.8c1.2,1.1,2.7,1.6,4.5,1.6s3.3-0.5,4.5-1.6s1.8-2.5,1.8-4.2s-0.6-3.1-1.8-4.1
		s-2.7-1.5-4.5-1.5s-3.3,0.5-4.5,1.5s-1.8,2.4-1.8,4.1S505.6,93.7,506.8,94.8z"/>
</g>
</svg>
