<?xml version="1.0" encoding="utf-8"?>
<!-- Generator: Adobe Illustrator 22.1.0, SVG Export Plug-In . SVG Version: 6.00 Build 0)  -->
<svg version="1.1" id="Layer_4" xmlns="http://www.w3.org/2000/svg" xmlns:xlink="http://www.w3.org/1999/xlink" x="0px" y="0px"
	 viewBox="0 0 134.1 32" style="enable-background:new 0 0 134.1 32;" xml:space="preserve">
<style type="text/css">
	.st0{fill:#419CF6;}
</style>
<g id="XMLID_261_">
	<path id="XMLID_259_" class="st0" d="M5.2,0H0l14.8,25.6l2.6-4.5L5.2,0z"/>
	<path id="XMLID_258_" class="st0" d="M19.3,14.6L10.9,0H5.8l11.9,20.6l1.7-2.9c0.3-0.5,0.4-1,0.4-1.6C19.8,15.6,19.6,15,19.3,14.6z
		"/>
	<path id="XMLID_257_" class="st0" d="M9,16.7L0.2,32h5.1l6.3-10.9L9,16.7z"/>
	<path id="XMLID_256_" class="st0" d="M11.9,21.6L5.9,32h5.2l3.4-5.9L11.9,21.6z"/>
</g>
<g>
	<path class="st0" d="M43.6,8.7c0,1.7-0.5,3-1.5,4c-1.1,1.2-2.6,1.8-4.4,1.8c-1.7,0-3.2-0.6-4.4-1.8s-1.8-2.7-1.8-4.5S32,5,33.2,3.8
		S35.9,2,37.6,2c0.9,0,1.7,0.2,2.5,0.5c0.8,0.3,1.4,0.8,1.9,1.3l-1.1,1.1c-0.8-1-1.9-1.4-3.3-1.4c-1.3,0-2.4,0.4-3.3,1.3
		C33.4,5.7,33,6.8,33,8.3c0,1.4,0.5,2.6,1.4,3.5c0.9,0.9,2,1.3,3.3,1.3c1.3,0,2.5-0.4,3.4-1.3c0.6-0.6,0.9-1.4,1-2.4h-4.4V7.8h5.8
		C43.6,8.2,43.6,8.4,43.6,8.7z"/>
	<path class="st0" d="M45.5,14.3v-12h3.7c1.9,0,3.3,0.6,4.4,1.7s1.7,2.6,1.7,4.3s-0.5,3.2-1.7,4.3s-2.6,1.7-4.4,1.7L45.5,14.3
		L45.5,14.3z M47,12.8h2.1c1.4,0,2.5-0.4,3.3-1.2c0.8-0.8,1.2-1.9,1.2-3.3s-0.4-2.5-1.2-3.3c-0.8-0.8-1.9-1.2-3.3-1.2H47V12.8z"/>
	<path class="st0" d="M68.6,8.7c0,1.7-0.5,3-1.5,4c-1.1,1.2-2.6,1.8-4.4,1.8c-1.7,0-3.2-0.6-4.4-1.8s-1.8-2.7-1.8-4.5
		s0.6-3.3,1.8-4.5S61,2,62.7,2c0.9,0,1.7,0.2,2.5,0.5c0.8,0.3,1.4,0.8,1.9,1.3L66,4.9c-0.8-1-1.9-1.4-3.3-1.4
		c-1.3,0-2.4,0.4-3.3,1.3C58.5,5.7,58,6.8,58,8.3c0,1.4,0.5,2.6,1.4,3.5c0.9,0.9,2,1.3,3.3,1.3c1.3,0,2.5-0.4,3.4-1.3
		c0.6-0.6,0.9-1.4,1-2.4h-4.4V7.8h5.8C68.6,8.2,68.6,8.4,68.6,8.7z"/>
	<path class="st0" d="M74.2,14.3v-12h3.7c1.9,0,3.3,0.6,4.4,1.7C83.5,5,84,6.5,84,8.3s-0.5,3.2-1.7,4.3c-1.1,1.1-2.6,1.7-4.4,1.7
		L74.2,14.3L74.2,14.3z M75.8,12.8h2.1c1.4,0,2.5-0.4,3.3-1.2c0.8-0.8,1.2-1.9,1.2-3.3S82,5.7,81.2,4.9c-0.8-0.8-1.9-1.2-3.3-1.2
		h-2.1V12.8z"/>
	<path class="st0" d="M89,14.6c-1.2,0-2.2-0.4-3-1.2c-0.8-0.8-1.2-1.9-1.2-3.1C84.8,9,85.2,8,86,7.1s1.7-1.3,2.9-1.3
		c1.2,0,2.2,0.4,2.9,1.2c0.7,0.8,1.1,1.9,1.1,3.2l0,0.3h-6.5c0,0.8,0.3,1.5,0.8,2c0.5,0.5,1.1,0.7,1.8,0.7c1.1,0,1.9-0.5,2.2-1.4
		l1.4,0.6c-0.3,0.6-0.7,1.2-1.3,1.6C90.7,14.3,89.9,14.6,89,14.6z M91.3,9.2c0-0.5-0.2-0.9-0.6-1.3c-0.4-0.4-1-0.6-1.8-0.6
		c-0.6,0-1.1,0.2-1.5,0.5s-0.7,0.8-0.9,1.4H91.3z"/>
	<path class="st0" d="M96.6,14.3l-3.3-8.2h1.7l2.4,6.4h0l2.4-6.4h1.7l-3.4,8.2H96.6z"/>
	<path class="st0" d="M104.3,14.3h-1.6v-12h7v1.5h-5.5v4h4.9v1.4h-4.9V14.3z"/>
	<path class="st0" d="M114.5,14.6c-1.2,0-2.2-0.4-3-1.2c-0.8-0.8-1.2-1.9-1.2-3.1c0-1.2,0.4-2.2,1.1-3.1c0.8-0.9,1.7-1.3,2.9-1.3
		c1.2,0,2.2,0.4,2.9,1.2c0.7,0.8,1.1,1.9,1.1,3.2l0,0.3h-6.5c0,0.8,0.3,1.5,0.8,2c0.5,0.5,1.1,0.7,1.8,0.7c1.1,0,1.9-0.5,2.2-1.4
		l1.4,0.6c-0.3,0.6-0.7,1.2-1.3,1.6C116.2,14.3,115.4,14.6,114.5,14.6z M116.7,9.2c0-0.5-0.2-0.9-0.6-1.3c-0.4-0.4-1-0.6-1.8-0.6
		c-0.6,0-1.1,0.2-1.5,0.5s-0.7,0.8-0.9,1.4H116.7z"/>
	<path class="st0" d="M122.9,14.6c-0.9,0-1.7-0.2-2.3-0.7s-1-1-1.3-1.7l1.4-0.6c0.4,1,1.2,1.6,2.2,1.6c0.5,0,0.9-0.1,1.2-0.3
		c0.3-0.2,0.5-0.5,0.5-0.8c0-0.5-0.4-0.9-1.1-1.1l-1.7-0.4c-0.5-0.1-1-0.4-1.5-0.8c-0.5-0.4-0.7-0.9-0.7-1.5c0-0.7,0.3-1.3,1-1.8
		c0.6-0.4,1.4-0.7,2.3-0.7c0.7,0,1.4,0.2,2,0.5c0.6,0.3,1,0.8,1.2,1.4l-1.3,0.5c-0.3-0.7-0.9-1.1-1.9-1.1c-0.5,0-0.8,0.1-1.2,0.3
		c-0.3,0.2-0.5,0.4-0.5,0.8c0,0.5,0.4,0.8,1.1,1l1.6,0.4c0.8,0.2,1.3,0.5,1.7,0.9c0.4,0.4,0.5,0.9,0.5,1.5c0,0.7-0.3,1.4-0.9,1.9
		C124.6,14.3,123.9,14.6,122.9,14.6z"/>
	<path class="st0" d="M131,14.4c-0.9,0-1.5-0.2-2-0.7c-0.4-0.5-0.7-1.1-0.7-2V7.5h-1.4V6.1h1.4V3.5h1.6V6h2v1.4h-2v4.2
		c0,0.9,0.4,1.3,1.1,1.3c0.3,0,0.5,0,0.7-0.1l0.5,1.3C131.9,14.3,131.5,14.4,131,14.4z"/>
</g>
<g>
	<path class="st0" d="M30.5,29.2l3.6-9.6h1.4l3.6,9.6h-1.4l-0.9-2.6h-4l-0.9,2.6H30.5z M33.2,25.4h3.2l-1.6-4.3h0L33.2,25.4z"/>
	<path class="st0" d="M41.2,19.6v3l0,0.9h0c0.2-0.3,0.5-0.6,0.8-0.8c0.4-0.2,0.8-0.3,1.2-0.3c0.8,0,1.4,0.2,1.9,0.7s0.6,1.2,0.6,2v4
		h-1.2v-3.8c0-1.2-0.5-1.8-1.6-1.8c-0.5,0-0.9,0.2-1.2,0.6c-0.3,0.4-0.5,0.9-0.5,1.4v3.6H40v-9.6H41.2z"/>
	<path class="st0" d="M47.2,29.2v-6.5h1.2v0.9h0c0.2-0.3,0.5-0.6,0.9-0.8c0.4-0.2,0.8-0.3,1.2-0.3c1,0,1.7,0.4,2.1,1.3
		c0.5-0.8,1.3-1.3,2.3-1.3c0.8,0,1.4,0.2,1.8,0.7c0.4,0.5,0.6,1.2,0.6,2v4h-1.2v-3.8c0-0.7-0.1-1.1-0.4-1.4
		c-0.2-0.3-0.6-0.4-1.1-0.4c-0.5,0-0.9,0.2-1.2,0.6c-0.3,0.4-0.5,0.9-0.5,1.4v3.6h-1.2v-3.8c0-0.7-0.1-1.1-0.4-1.4s-0.6-0.4-1.1-0.4
		c-0.5,0-0.9,0.2-1.2,0.6c-0.3,0.4-0.5,0.9-0.5,1.4v3.6H47.2z"/>
	<path class="st0" d="M61.5,29.4c-1,0-1.8-0.3-2.4-1c-0.6-0.7-0.9-1.5-0.9-2.5c0-1,0.3-1.8,0.9-2.4c0.6-0.7,1.4-1,2.3-1
		c1,0,1.8,0.3,2.3,0.9c0.6,0.6,0.9,1.5,0.9,2.5l0,0.2h-5.2c0,0.7,0.2,1.2,0.7,1.6c0.4,0.4,0.9,0.6,1.4,0.6c0.9,0,1.5-0.4,1.8-1.1
		l1.1,0.4c-0.2,0.5-0.6,0.9-1.1,1.3C62.8,29.2,62.2,29.4,61.5,29.4z M63.3,25.1c0-0.4-0.2-0.7-0.5-1.1c-0.3-0.3-0.8-0.5-1.4-0.5
		c-0.4,0-0.8,0.1-1.2,0.4c-0.3,0.3-0.6,0.7-0.7,1.1L63.3,25.1L63.3,25.1L63.3,25.1z"/>
	<path class="st0" d="M68.5,29.4c-0.8,0-1.6-0.3-2.2-1c-0.6-0.7-0.9-1.5-0.9-2.5c0-1,0.3-1.8,0.9-2.5c0.6-0.7,1.3-1,2.2-1
		c0.5,0,0.9,0.1,1.3,0.3c0.4,0.2,0.7,0.5,0.9,0.8h0l0-0.9v-3.1H72v9.6h-1.2v-0.9h0c-0.2,0.3-0.5,0.6-0.9,0.8
		C69.4,29.3,69,29.4,68.5,29.4z M68.7,28.3c0.6,0,1.1-0.2,1.5-0.6c0.4-0.4,0.6-1,0.6-1.7c0-0.7-0.2-1.3-0.6-1.7
		c-0.4-0.4-0.9-0.6-1.5-0.6c-0.6,0-1.1,0.2-1.5,0.6c-0.4,0.4-0.6,1-0.6,1.7c0,0.7,0.2,1.3,0.6,1.7C67.6,28.1,68.1,28.3,68.7,28.3z"
		/>
	<path class="st0" d="M75.5,29.4c-0.7,0-1.3-0.2-1.7-0.6c-0.5-0.4-0.7-0.9-0.7-1.6c0-0.7,0.3-1.3,0.8-1.7c0.5-0.4,1.2-0.6,2.1-0.6
		c0.7,0,1.3,0.1,1.8,0.4v-0.2c0-0.5-0.2-0.9-0.5-1.2c-0.3-0.3-0.7-0.4-1.2-0.4c-0.3,0-0.7,0.1-1,0.2c-0.3,0.2-0.5,0.4-0.6,0.7
		L73.3,24c0.1-0.4,0.4-0.8,0.9-1.1c0.4-0.3,1-0.5,1.8-0.5c0.8,0,1.5,0.2,2.1,0.7c0.5,0.5,0.8,1.2,0.8,2.1v4h-1.2v-0.9h0
		C77.1,29,76.4,29.4,75.5,29.4z M75.6,28.3c0.5,0,1-0.2,1.4-0.6c0.4-0.4,0.6-0.8,0.6-1.3c-0.3-0.3-0.9-0.4-1.6-0.4
		c-0.6,0-1,0.1-1.4,0.4c-0.3,0.2-0.4,0.6-0.4,0.9c0,0.3,0.1,0.6,0.4,0.8C75,28.2,75.3,28.3,75.6,28.3z"/>
	<path class="st0" d="M83.7,29.4c-0.5,0-0.9-0.1-1.3-0.3c-0.4-0.2-0.7-0.5-0.9-0.8h0v0.9h-1.2v-9.6h1.2v3l0,0.9h0
		c0.2-0.3,0.5-0.6,0.9-0.8c0.4-0.2,0.8-0.3,1.3-0.3c0.8,0,1.6,0.3,2.2,1c0.6,0.7,0.9,1.5,0.9,2.5s-0.3,1.8-0.9,2.5
		C85.3,29.1,84.5,29.4,83.7,29.4z M83.5,28.3c0.6,0,1.1-0.2,1.5-0.6c0.4-0.4,0.6-1,0.6-1.7c0-0.7-0.2-1.3-0.6-1.7s-0.9-0.6-1.5-0.6
		c-0.6,0-1.1,0.2-1.5,0.6c-0.4,0.4-0.6,1-0.6,1.7c0,0.7,0.2,1.3,0.6,1.7C82.4,28.1,82.9,28.3,83.5,28.3z"/>
	<path class="st0" d="M90,29.4c-0.7,0-1.3-0.2-1.7-0.6c-0.5-0.4-0.7-0.9-0.7-1.6c0-0.7,0.3-1.3,0.8-1.7c0.5-0.4,1.2-0.6,2.1-0.6
		c0.7,0,1.3,0.1,1.8,0.4v-0.2c0-0.5-0.2-0.9-0.5-1.2c-0.3-0.3-0.7-0.4-1.2-0.4c-0.3,0-0.7,0.1-1,0.2c-0.3,0.2-0.5,0.4-0.6,0.7
		L87.8,24c0.1-0.4,0.4-0.8,0.9-1.1c0.4-0.3,1-0.5,1.8-0.5c0.8,0,1.5,0.2,2.1,0.7c0.5,0.5,0.8,1.2,0.8,2.1v4h-1.2v-0.9h0
		C91.6,29,90.9,29.4,90,29.4z M90.2,28.3c0.5,0,1-0.2,1.4-0.6c0.4-0.4,0.6-0.8,0.6-1.3c-0.3-0.3-0.9-0.4-1.6-0.4
		c-0.6,0-1,0.1-1.4,0.4c-0.3,0.2-0.4,0.6-0.4,0.9c0,0.3,0.1,0.6,0.4,0.8C89.5,28.2,89.8,28.3,90.2,28.3z"/>
	<path class="st0" d="M97.4,29.4c-0.8,0-1.6-0.3-2.2-1c-0.6-0.7-0.9-1.5-0.9-2.5c0-1,0.3-1.8,0.9-2.5s1.3-1,2.2-1
		c0.5,0,0.9,0.1,1.3,0.3c0.4,0.2,0.7,0.5,0.9,0.8h0l0-0.9v-3.1h1.2v9.6h-1.2v-0.9h0c-0.2,0.3-0.5,0.6-0.9,0.8
		C98.4,29.3,97.9,29.4,97.4,29.4z M97.6,28.3c0.6,0,1.1-0.2,1.5-0.6c0.4-0.4,0.6-1,0.6-1.7c0-0.7-0.2-1.3-0.6-1.7
		c-0.4-0.4-0.9-0.6-1.5-0.6c-0.6,0-1.1,0.2-1.5,0.6c-0.4,0.4-0.6,1-0.6,1.7c0,0.7,0.2,1.3,0.6,1.7C96.6,28.1,97,28.3,97.6,28.3z"/>
	<path class="st0" d="M110.9,29.2h-5.8v-1.2c1.8-1.8,2.9-2.9,3.4-3.4c0.4-0.5,0.7-0.9,0.9-1.1c0.1-0.2,0.2-0.6,0.2-0.9
		c0-0.4-0.1-0.7-0.4-1c-0.3-0.3-0.7-0.4-1.2-0.4c-0.5,0-0.8,0.1-1.1,0.4c-0.3,0.3-0.5,0.6-0.5,0.9l-1.1-0.4c0.1-0.5,0.5-0.9,0.9-1.4
		c0.5-0.4,1.1-0.6,1.9-0.6c0.8,0,1.5,0.2,2.1,0.8c0.5,0.5,0.8,1.1,0.8,1.9c0,0.9-0.5,1.9-1.5,2.9l-2.7,2.7h4.2L110.9,29.2
		C110.9,29.2,110.9,29.2,110.9,29.2z"/>
	<path class="st0" d="M118.4,28c-0.7,0.9-1.6,1.4-2.6,1.4c-1.1,0-2-0.5-2.6-1.4s-1-2.1-1-3.4c0-1.4,0.3-2.5,1-3.4
		c0.7-0.9,1.6-1.4,2.6-1.4c1.1,0,2,0.4,2.6,1.4s1,2.1,1,3.4C119.4,26,119.1,27.1,118.4,28z M115.7,28.2c0.7,0,1.3-0.3,1.8-1
		c0.4-0.7,0.7-1.5,0.7-2.6c0-1-0.2-1.9-0.7-2.6c-0.4-0.7-1-1-1.8-1c-0.7,0-1.3,0.3-1.8,1c-0.4,0.7-0.6,1.5-0.6,2.6
		c0,1,0.2,1.9,0.6,2.6C114.4,27.9,115,28.2,115.7,28.2z"/>
	<path class="st0" d="M123.9,29.2h-1.2v-7.6l-1.8,0.8l-0.5-1l2.7-1.3h0.8V29.2z"/>
	<path class="st0" d="M130.8,28.6c-0.6,0.5-1.3,0.8-2.2,0.8c-0.9,0-1.6-0.3-2.2-0.8c-0.6-0.5-0.9-1.2-0.9-2c0-0.5,0.1-1,0.4-1.3
		c0.3-0.4,0.6-0.7,1.1-0.9v0c-0.3-0.2-0.6-0.5-0.9-0.8c-0.2-0.3-0.3-0.7-0.3-1.1c0-0.7,0.3-1.4,0.8-1.9c0.5-0.5,1.2-0.7,2-0.7
		c0.8,0,1.5,0.2,2,0.7s0.8,1.1,0.8,1.9c0,0.4-0.1,0.7-0.3,1.1c-0.2,0.3-0.5,0.6-0.9,0.8v0c0.4,0.2,0.8,0.5,1.1,0.9
		c0.3,0.4,0.4,0.8,0.4,1.3C131.7,27.4,131.4,28.1,130.8,28.6z M127.3,27.8c0.3,0.3,0.8,0.4,1.3,0.4c0.5,0,1-0.1,1.3-0.4
		c0.3-0.3,0.5-0.7,0.5-1.2c0-0.5-0.2-0.9-0.5-1.2c-0.3-0.3-0.8-0.4-1.3-0.4s-1,0.1-1.3,0.4c-0.3,0.3-0.5,0.7-0.5,1.2
		C126.8,27.1,126.9,27.5,127.3,27.8z M127.5,23.4c0.3,0.3,0.7,0.4,1.1,0.4c0.4,0,0.8-0.1,1.1-0.4c0.3-0.3,0.4-0.6,0.4-1
		s-0.1-0.8-0.4-1c-0.3-0.2-0.7-0.4-1.1-0.4c-0.4,0-0.8,0.1-1.1,0.4c-0.3,0.2-0.4,0.6-0.4,1S127.2,23.2,127.5,23.4z"/>
</g>
</svg>
