<?xml version="1.0" encoding="utf-8"?>
<!-- Generator: Adobe Illustrator 22.1.0, SVG Export Plug-In . SVG Version: 6.00 Build 0)  -->
<svg version="1.1" id="Layer_4" xmlns="http://www.w3.org/2000/svg" xmlns:xlink="http://www.w3.org/1999/xlink" x="0px" y="0px"
	 viewBox="0 0 1900 200" style="enable-background:new 0 0 1900 200;" xml:space="preserve">
<style type="text/css">
	.st0{fill:#757575;}
</style>
<g id="XMLID_261_">
	<path id="XMLID_259_" class="st0" d="M32.3,0H0l92.3,160l16.2-28L32.3,0z"/>
	<path id="XMLID_258_" class="st0" d="M120.9,91L68.3,0H36.1l74.3,128.8l10.5-18.2c1.7-2.8,2.8-6.2,2.8-9.8
		C123.6,97.2,122.6,93.9,120.9,91L120.9,91z"/>
	<path id="XMLID_257_" class="st0" d="M56.3,104.1L0.9,200h32.3l39.3-68L56.3,104.1z"/>
	<path id="XMLID_256_" class="st0" d="M74.3,135.3L37,200h32.2l21.3-36.8L74.3,135.3L74.3,135.3z"/>
</g>
<g>
	<path class="st0" d="M346.3,106.7c0,22-6.5,39.5-19.6,52.6c-14.8,15.5-34.1,23.3-57.9,23.3c-22.7,0-42.1-7.9-58-23.6
		c-15.9-15.8-23.9-35.3-23.9-58.6c0-23.3,8-42.9,23.9-58.6c15.9-15.8,35.2-23.7,58-23.7c11.3,0,22.1,2.2,32.3,6.6
		c10.3,4.4,18.5,10.3,24.6,17.6L312,56.1c-10.4-12.5-24.8-18.7-43.1-18.7c-16.6,0-30.9,5.8-43,17.5c-12.1,11.7-18.2,26.8-18.2,45.4
		c0,18.6,6.1,33.8,18.2,45.4c12.1,11.7,26.4,17.5,43,17.5c17.6,0,32.3-5.9,44-17.6c7.6-7.6,12-18.3,13.2-31.9h-57.2V94.8h76.4
		C345.9,98.9,346.3,102.9,346.3,106.7z"/>
	<path class="st0" d="M371,179.1V21.6h48.2c24.2,0,43.6,7.3,58.1,21.9C491.8,58.1,499,77,499,100.3c0,23.3-7.3,42.3-21.8,56.9
		c-14.5,14.6-33.9,21.9-58.1,21.9H371z M391.2,159.7h27.9c18.2,0,32.6-5.2,43.2-15.6c10.6-10.4,16-25,16-43.8
		c0-18.6-5.3-33.2-16-43.7c-10.6-10.5-25.1-15.7-43.2-15.7h-27.9V159.7z"/>
	<path class="st0" d="M674.7,106.7c0,22-6.5,39.5-19.6,52.6c-14.8,15.5-34.1,23.3-57.9,23.3c-22.7,0-42.1-7.9-58-23.6
		c-15.9-15.8-23.9-35.3-23.9-58.6c0-23.3,8-42.9,23.9-58.6c15.9-15.8,35.2-23.7,58-23.7c11.3,0,22.1,2.2,32.3,6.6
		c10.3,4.4,18.5,10.3,24.6,17.6l-13.9,13.9c-10.4-12.5-24.8-18.7-43.1-18.7c-16.6,0-30.9,5.8-43,17.5C542.1,66.6,536,81.7,536,100.3
		c0,18.6,6.1,33.8,18.2,45.4c12.1,11.7,26.4,17.5,43,17.5c17.6,0,32.3-5.9,44-17.6c7.6-7.6,12-18.3,13.2-31.9h-57.2V94.8h76.4
		C674.3,98.9,674.7,102.9,674.7,106.7z"/>
	<path class="st0" d="M725.7,179.1l59.4-157.5H808l59.4,157.5H845l-15.2-42.7h-66.2l-15.4,42.7H725.7z M770.4,117.5h52.4L797,46.4
		h-0.9L770.4,117.5z"/>
	<path class="st0" d="M902.6,21.6v49.7l-0.9,15h0.9c2.9-5.1,7.6-9.5,13.9-13.1c6.3-3.6,13.1-5.4,20.2-5.4c13.3,0,23.5,4.1,30.6,12.3
		c7,8.2,10.6,19.2,10.6,33v66h-20.2v-62.9c0-19.9-8.9-29.9-26.6-29.9c-8.4,0-15.2,3.3-20.5,10c-5.3,6.7-7.9,14.4-7.9,23.2v59.6
		h-20.2V21.6H902.6z"/>
	<path class="st0" d="M1001.7,179.1V71.3h19.4v15h0.9c3.1-5.1,7.8-9.5,14.2-13.1c6.4-3.6,12.7-5.4,19-5.4c16.7,0,28.1,6.9,34.1,20.7
		c8.8-13.8,21.3-20.7,37.6-20.7c12.8,0,22.4,4.1,28.8,12.2c6.5,8.1,9.7,19.2,9.7,33.1v66h-20.2v-62.9c0-10.9-2-18.6-5.9-23.1
		c-4-4.5-10-6.8-18-6.8c-7.9,0-14.5,3.4-19.7,10.1c-5.2,6.7-7.8,14.4-7.8,23.1v59.6h-20.2v-62.9c0-10.9-2-18.6-5.9-23.1
		c-4-4.5-10-6.8-18-6.8c-7.9,0-14.5,3.4-19.7,10.1c-5.2,6.7-7.8,14.4-7.8,23.1v59.6H1001.7z"/>
	<path class="st0" d="M1238,182.6c-16.3,0-29.5-5.4-39.7-16.3c-10.2-10.9-15.3-24.6-15.3-41.1c0-15.7,5-29.2,14.9-40.5
		c9.9-11.3,22.6-16.9,38-16.9c16,0,28.8,5.2,38.4,15.6c9.6,10.4,14.4,24.3,14.4,41.8l-0.2,3.7h-85.2c0.6,10.9,4.2,19.4,10.9,25.7
		c6.7,6.3,14.5,9.5,23.4,9.5c14.5,0,24.4-6.2,29.5-18.5l18,7.5c-3.5,8.4-9.3,15.4-17.4,21C1259.7,179.8,1249.8,182.6,1238,182.6z
		 M1267.1,112.2c-0.4-6.2-3.3-12-8.5-17.6c-5.2-5.6-13-8.4-23.2-8.4c-7.5,0-14,2.3-19.5,7c-5.5,4.7-9.3,11-11.3,18.9H1267.1z"/>
	<path class="st0" d="M1353.3,182.6c-13.9,0-26-5.5-36.1-16.5s-15.2-24.6-15.2-40.9c0-16.3,5.1-29.9,15.2-40.9s22.2-16.5,36.1-16.5
		c8.2,0,15.6,1.8,22.1,5.3c6.5,3.5,11.4,7.9,14.6,13.2h0.9l-0.9-15V21.6h20.2v157.5H1391v-15h-0.9c-3.2,5.3-8.1,9.7-14.6,13.2
		C1368.9,180.9,1361.5,182.6,1353.3,182.6z M1356.6,164.1c9.5,0,17.6-3.5,24.3-10.6c6.7-7,10-16.5,10-28.4c0-11.9-3.3-21.3-10-28.4
		c-6.7-7-14.8-10.6-24.3-10.6c-9.4,0-17.5,3.6-24.2,10.7c-6.7,7.1-10.1,16.5-10.1,28.3c0,11.7,3.4,21.2,10.1,28.3
		C1339.2,160.6,1347.2,164.1,1356.6,164.1z"/>
	<path class="st0" d="M1468,182.6c-11.4,0-21-3.3-28.7-9.9c-7.7-6.6-11.6-15.3-11.6-26.2c0-11.7,4.5-20.9,13.6-27.6
		c9.1-6.7,20.3-10,33.7-10c11.9,0,21.6,2.2,29.3,6.6v-3.1c0-7.9-2.7-14.3-8.1-19c-5.4-4.8-12.1-7.1-20-7.1c-5.9,0-11.2,1.4-16,4.2
		c-4.8,2.8-8,6.6-9.8,11.4l-18.5-7.9c2.5-6.5,7.4-12.4,14.7-17.9c7.3-5.5,17-8.3,29-8.3c13.8,0,25.2,4,34.3,12.1
		c9.1,8.1,13.6,19.4,13.6,34.1v65.1h-19.4v-15h-0.9C1495.3,176.5,1483.5,182.6,1468,182.6z M1471.3,164.1c8.4,0,16-3.1,22.8-9.3
		c6.8-6.2,10.2-13.6,10.2-22.1c-5.7-4.7-14.3-7-25.7-7c-9.8,0-17.2,2.1-22.2,6.4c-5,4.3-7.5,9.2-7.5,15c0,5.3,2.3,9.5,6.8,12.5
		C1460.2,162.6,1465.4,164.1,1471.3,164.1z"/>
	<path class="st0" d="M1603.5,182.6c-8.2,0-15.6-1.8-22.1-5.3c-6.5-3.5-11.4-7.9-14.6-13.2h-0.9v15h-19.4V21.6h20.2v49.7l-0.9,15
		h0.9c3.2-5.3,8.1-9.7,14.6-13.2c6.5-3.5,13.9-5.3,22.1-5.3c13.9,0,26,5.5,36.1,16.5c10.1,11,15.2,24.6,15.2,40.9
		c0,16.3-5.1,29.9-15.2,40.9C1629.5,177.1,1617.5,182.6,1603.5,182.6z M1600.2,164.1c9.4,0,17.5-3.6,24.2-10.7
		c6.7-7.1,10.1-16.5,10.1-28.3c0-11.7-3.4-21.2-10.1-28.3c-6.8-7.1-14.8-10.7-24.2-10.7c-9.5,0-17.6,3.5-24.3,10.6
		c-6.7,7-10,16.5-10,28.4c0,11.9,3.3,21.3,10,28.4C1582.6,160.6,1590.7,164.1,1600.2,164.1z"/>
	<path class="st0" d="M1707.4,182.6c-11.4,0-21-3.3-28.7-9.9c-7.7-6.6-11.6-15.3-11.6-26.2c0-11.7,4.5-20.9,13.6-27.6
		c9.1-6.7,20.3-10,33.7-10c11.9,0,21.6,2.2,29.3,6.6v-3.1c0-7.9-2.7-14.3-8.1-19c-5.4-4.8-12.1-7.1-20-7.1c-5.9,0-11.2,1.4-16,4.2
		c-4.8,2.8-8,6.6-9.8,11.4l-18.5-7.9c2.5-6.5,7.4-12.4,14.7-17.9c7.3-5.5,17-8.3,29-8.3c13.8,0,25.2,4,34.3,12.1
		c9.1,8.1,13.6,19.4,13.6,34.1v65.1h-19.4v-15h-0.9C1734.8,176.5,1723,182.6,1707.4,182.6z M1710.7,164.1c8.4,0,16-3.1,22.8-9.3
		c6.8-6.2,10.2-13.6,10.2-22.1c-5.7-4.7-14.3-7-25.7-7c-9.8,0-17.2,2.1-22.2,6.4c-5,4.3-7.5,9.2-7.5,15c0,5.3,2.3,9.5,6.8,12.5
		C1699.6,162.6,1704.8,164.1,1710.7,164.1z"/>
	<path class="st0" d="M1830,182.6c-13.9,0-26-5.5-36.1-16.5s-15.2-24.6-15.2-40.9c0-16.3,5.1-29.9,15.2-40.9s22.2-16.5,36.1-16.5
		c8.2,0,15.6,1.8,22.1,5.3c6.5,3.5,11.4,7.9,14.6,13.2h0.9l-0.9-15V21.6h20.2v157.5h-19.4v-15h-0.9c-3.2,5.3-8.1,9.7-14.6,13.2
		C1845.6,180.9,1838.2,182.6,1830,182.6z M1833.3,164.1c9.5,0,17.6-3.5,24.3-10.6c6.7-7,10-16.5,10-28.4c0-11.9-3.3-21.3-10-28.4
		c-6.7-7-14.8-10.6-24.3-10.6c-9.4,0-17.5,3.6-24.2,10.7c-6.7,7.1-10.1,16.5-10.1,28.3c0,11.7,3.4,21.2,10.1,28.3
		C1815.8,160.6,1823.9,164.1,1833.3,164.1z"/>
</g>
</svg>
